SplineFontDB: 3.2
FontName: Vanish
FullName: Vanish
FamilyName: Vanish
Weight: Book
Copyright: (c) Jakob Fischer at www.pizzadude.dk - DO NOT DISTRIBUTE WITHOUT AUTHOR'S PERMISSION!
Version: 2
ItalicAngle: 0
UnderlinePosition: -125
UnderlineWidth: 50
Ascent: 800
Descent: 200
InvalidEm: 0
sfntRevision: 0x00010000
LayerCount: 2
Layer: 0 1 "Back" 1
Layer: 1 1 "Fore" 0
XUID: [1021 571 1660928927 10921]
StyleMap: 0x0040
FSType: 0
OS2Version: 0
OS2_WeightWidthSlopeOnly: 0
OS2_UseTypoMetrics: 0
CreationTime: 1044750751
ModificationTime: 1594308002
PfmFamily: 81
TTFWeight: 400
TTFWidth: 5
LineGap: 30
VLineGap: 0
Panose: 0 0 0 0 0 0 0 0 0 0
OS2TypoAscent: 750
OS2TypoAOffset: 0
OS2TypoDescent: -170
OS2TypoDOffset: 0
OS2TypoLinegap: 30
OS2WinAscent: 1246
OS2WinAOffset: 0
OS2WinDescent: 367
OS2WinDOffset: 0
HheadAscent: 750
HheadAOffset: 0
HheadDescent: -170
HheadDOffset: 0
OS2SubXSize: 100
OS2SubYSize: 100
OS2SubXOff: 0
OS2SubYOff: 140
OS2SupXSize: 100
OS2SupYSize: 100
OS2SupXOff: 0
OS2SupYOff: 140
OS2StrikeYSize: 50
OS2StrikeYPos: 250
OS2Vendor: 'pyrs'
OS2UnicodeRanges: 80000003.00000000.00000000.00000000
DEI: 91125
TtTable: prep
NPUSHB
 23
 14
 14
 13
 13
 12
 12
 11
 11
 10
 10
 9
 9
 8
 8
 7
 7
 6
 6
 1
 1
 0
 0
 1
SCANTYPE
PUSHW_1
 511
SCANCTRL
RCVT
ROUND[Grey]
WCVTP
RCVT
ROUND[Grey]
WCVTP
RCVT
ROUND[Grey]
WCVTP
RCVT
ROUND[Grey]
WCVTP
RCVT
ROUND[Grey]
WCVTP
RCVT
ROUND[Grey]
WCVTP
RCVT
ROUND[Grey]
WCVTP
RCVT
ROUND[Grey]
WCVTP
RCVT
ROUND[Grey]
WCVTP
RCVT
ROUND[Grey]
WCVTP
RCVT
ROUND[Grey]
WCVTP
PUSHB_4
 3
 2
 70
 0
CALL
PUSHB_4
 5
 4
 70
 0
CALL
PUSHB_2
 2
 2
RCVT
ROUND[Grey]
WCVTP
PUSHB_2
 4
 4
RCVT
ROUND[Grey]
WCVTP
EndTTInstrs
TtTable: fpgm
NPUSHB
 1
 0
FDEF
SROUND
RCVT
DUP
PUSHB_1
 3
CINDEX
RCVT
SWAP
SUB
ROUND[Grey]
RTG
SWAP
ROUND[Grey]
ADD
WCVTP
ENDF
EndTTInstrs
ShortTable: cvt  19
  0
  720
  30
  120
  30
  180
  120
  330
  420
  480
  330
  480
  420
  360
  150
  23138
  23138
  2
  4
EndShort
ShortTable: maxp 16
  1
  0
  120
  360
  30
  0
  0
  2
  8
  64
  10

StartChar: .notdef
Encoding: 65536 -1 0
Width: 500
Flags: W
LayerCount: 2
Fore
SplineSet
63 0 m 1,0,-1
 63 750 l 1,1,-1
 438 750 l 1,2,-1
 438 0 l 1,3,-1
 63 0 l 1,0,-1
125 63 m 1,4,-1
 375 63 l 1,5,-1
 375 688 l 1,6,-1
 125 688 l 1,7,-1
 125 63 l 1,4,-1
EndSplineSet
Validated: 1
EndChar

StartChar: exclam
Encoding: 33 33 4
Width: 242
Flags: W
LayerCount: 2
Fore
SplineSet
60 720 m 1,0,-1
 180 720 l 1,1,-1
 180 210 l 1,2,-1
 60 210 l 1,3,-1
 60 720 l 1,0,-1
30 90 m 256,4,5
 30 128 30 128 56 154 c 128,-1,6
 82 180 82 180 120 180 c 256,7,8
 158 180 158 180 184 154 c 128,-1,9
 210 128 210 128 210 90 c 256,10,11
 210 52 210 52 184 26 c 128,-1,12
 158 0 158 0 120 0 c 256,13,14
 82 0 82 0 56 26 c 128,-1,15
 30 52 30 52 30 90 c 256,4,5
EndSplineSet
Validated: 1
EndChar

StartChar: quotedbl
Encoding: 34 34 5
Width: 360
Flags: W
LayerCount: 2
Fore
SplineSet
150 480 m 1,0,-1
 150 720 l 1,1,-1
 30 720 l 1,2,-1
 30 600 l 1,3,-1
 90 480 l 1,4,-1
 150 480 l 1,0,-1
330 480 m 1,5,-1
 330 720 l 1,6,-1
 210 720 l 1,7,-1
 210 600 l 1,8,-1
 270 480 l 1,9,-1
 330 480 l 1,5,-1
EndSplineSet
Validated: 9
EndChar

StartChar: numbersign
Encoding: 35 35 6
Width: 500
Flags: W
LayerCount: 2
Fore
SplineSet
478 362 m 1,0,-1
 463 432 l 1,1,-1
 270 359 l 1,2,-1
 428 494 l 1,3,-1
 375 543 l 1,4,-1
 261 369 l 1,5,-1
 309 572 l 1,6,-1
 238 580 l 1,7,-1
 248 373 l 1,8,-1
 168 565 l 1,9,-1
 106 530 l 1,10,-1
 235 368 l 1,11,-1
 57 477 l 1,12,-1
 28 411 l 1,13,-1
 228 357 l 1,14,-1
 20 340 l 1,15,-1
 35 270 l 1,16,-1
 228 343 l 1,17,-1
 70 208 l 1,18,-1
 123 159 l 1,19,-1
 237 333 l 1,20,-1
 189 130 l 1,21,-1
 260 122 l 1,22,-1
 250 329 l 1,23,-1
 330 137 l 1,24,-1
 392 172 l 1,25,-1
 263 334 l 1,26,-1
 441 225 l 1,27,-1
 470 291 l 1,28,-1
 270 345 l 1,29,-1
 478 362 l 1,0,-1
EndSplineSet
Validated: 9
EndChar

StartChar: dollar
Encoding: 36 36 7
Width: 500
Flags: W
LayerCount: 2
Fore
SplineSet
478 362 m 1,0,-1
 463 432 l 1,1,-1
 270 359 l 1,2,-1
 428 494 l 1,3,-1
 375 543 l 1,4,-1
 261 369 l 1,5,-1
 309 572 l 1,6,-1
 238 580 l 1,7,-1
 248 373 l 1,8,-1
 168 565 l 1,9,-1
 106 530 l 1,10,-1
 235 368 l 1,11,-1
 57 477 l 1,12,-1
 28 411 l 1,13,-1
 228 357 l 1,14,-1
 20 340 l 1,15,-1
 35 270 l 1,16,-1
 228 343 l 1,17,-1
 70 208 l 1,18,-1
 123 159 l 1,19,-1
 237 333 l 1,20,-1
 189 130 l 1,21,-1
 260 122 l 1,22,-1
 250 329 l 1,23,-1
 330 137 l 1,24,-1
 392 172 l 1,25,-1
 263 334 l 1,26,-1
 441 225 l 1,27,-1
 470 291 l 1,28,-1
 270 345 l 1,29,-1
 478 362 l 1,0,-1
EndSplineSet
Validated: 9
EndChar

StartChar: percent
Encoding: 37 37 8
Width: 500
Flags: W
LayerCount: 2
Fore
SplineSet
478 362 m 1,0,-1
 463 432 l 1,1,-1
 270 359 l 1,2,-1
 428 494 l 1,3,-1
 375 543 l 1,4,-1
 261 369 l 1,5,-1
 309 572 l 1,6,-1
 238 580 l 1,7,-1
 248 373 l 1,8,-1
 168 565 l 1,9,-1
 106 530 l 1,10,-1
 235 368 l 1,11,-1
 57 477 l 1,12,-1
 28 411 l 1,13,-1
 228 357 l 1,14,-1
 20 340 l 1,15,-1
 35 270 l 1,16,-1
 228 343 l 1,17,-1
 70 208 l 1,18,-1
 123 159 l 1,19,-1
 237 333 l 1,20,-1
 189 130 l 1,21,-1
 260 122 l 1,22,-1
 250 329 l 1,23,-1
 330 137 l 1,24,-1
 392 172 l 1,25,-1
 263 334 l 1,26,-1
 441 225 l 1,27,-1
 470 291 l 1,28,-1
 270 345 l 1,29,-1
 478 362 l 1,0,-1
EndSplineSet
Validated: 9
EndChar

StartChar: ampersand
Encoding: 38 38 9
Width: 500
Flags: W
LayerCount: 2
Fore
SplineSet
478 362 m 1,0,-1
 463 432 l 1,1,-1
 270 359 l 1,2,-1
 428 494 l 1,3,-1
 375 543 l 1,4,-1
 261 369 l 1,5,-1
 309 572 l 1,6,-1
 238 580 l 1,7,-1
 248 373 l 1,8,-1
 168 565 l 1,9,-1
 106 530 l 1,10,-1
 235 368 l 1,11,-1
 57 477 l 1,12,-1
 28 411 l 1,13,-1
 228 357 l 1,14,-1
 20 340 l 1,15,-1
 35 270 l 1,16,-1
 228 343 l 1,17,-1
 70 208 l 1,18,-1
 123 159 l 1,19,-1
 237 333 l 1,20,-1
 189 130 l 1,21,-1
 260 122 l 1,22,-1
 250 329 l 1,23,-1
 330 137 l 1,24,-1
 392 172 l 1,25,-1
 263 334 l 1,26,-1
 441 225 l 1,27,-1
 470 291 l 1,28,-1
 270 345 l 1,29,-1
 478 362 l 1,0,-1
EndSplineSet
Validated: 9
EndChar

StartChar: quotesingle
Encoding: 39 39 10
Width: 181
Flags: W
LayerCount: 2
Fore
SplineSet
150 480 m 1,0,-1
 150 720 l 1,1,-1
 30 720 l 1,2,-1
 30 600 l 1,3,-1
 90 480 l 1,4,-1
 150 480 l 1,0,-1
EndSplineSet
Validated: 9
EndChar

StartChar: parenleft
Encoding: 40 40 11
Width: 407
Flags: W
LayerCount: 2
Fore
SplineSet
373 118 m 1,0,-1
 182 360 l 1,1,-1
 373 602 l 1,2,-1
 279 676 l 1,3,-1
 30 360 l 1,4,-1
 279 44 l 1,5,-1
 373 118 l 1,0,-1
EndSplineSet
Validated: 9
EndChar

StartChar: parenright
Encoding: 41 41 12
Width: 407
Flags: W
LayerCount: 2
Fore
SplineSet
29 118 m 1,0,-1
 220 360 l 1,1,-1
 29 602 l 1,2,-1
 123 676 l 1,3,-1
 372 360 l 1,4,-1
 123 44 l 1,5,-1
 29 118 l 1,0,-1
EndSplineSet
Validated: 1
EndChar

StartChar: asterisk
Encoding: 42 42 13
Width: 500
Flags: W
LayerCount: 2
Fore
SplineSet
480 360 m 1,0,-1
 430 492 l 1,1,-1
 274 434 l 1,2,-1
 311 570 l 1,3,-1
 170 563 l 1,4,-1
 177 397 l 1,5,-1
 59 475 l 1,6,-1
 22 338 l 1,7,-1
 182 294 l 1,8,-1
 72 206 l 1,9,-1
 191 128 l 1,10,-1
 282 267 l 1,11,-1
 332 135 l 1,12,-1
 443 223 l 1,13,-1
 339 353 l 1,14,-1
 480 360 l 1,0,-1
EndSplineSet
Validated: 9
EndChar

StartChar: plus
Encoding: 43 43 14
Width: 541
Flags: W
LayerCount: 2
Fore
SplineSet
240 600 m 1,0,-1
 240 390 l 1,1,-1
 30 390 l 1,2,-1
 30 330 l 1,3,-1
 240 330 l 1,4,-1
 240 120 l 1,5,-1
 300 120 l 1,6,-1
 300 330 l 1,7,-1
 509 330 l 1,8,-1
 509 390 l 1,9,-1
 300 390 l 1,10,-1
 300 600 l 1,11,-1
 240 600 l 1,0,-1
EndSplineSet
Validated: 9
EndChar

StartChar: comma
Encoding: 44 44 15
Width: 240
Flags: W
LayerCount: 2
Fore
SplineSet
65 -84 m 1,0,-1
 118 -111 l 1,1,-1
 200 49 l 2,2,3
 217 81 217 81 205 118 c 0,4,5
 197 143 197 143 174.5 160.5 c 128,-1,6
 152 178 152 178 126 180 c 0,7,8
 66 183 66 183 39 131 c 0,9,10
 22 98 22 98 34 62 c 0,11,12
 45 28 45 28 79 10 c 0,13,14
 95 2 95 2 108 1 c 1,15,-1
 65 -84 l 1,0,-1
EndSplineSet
Validated: 41
EndChar

StartChar: hyphen
Encoding: 45 45 16
AltUni2: 002010.ffffffff.0
Width: 509
Flags: W
LayerCount: 2
Fore
SplineSet
30 300 m 1,0,-1
 480 300 l 1,1,-1
 480 420 l 1,2,-1
 30 420 l 1,3,-1
 30 300 l 1,0,-1
EndSplineSet
Validated: 9
EndChar

StartChar: period
Encoding: 46 46 17
Width: 240
Flags: W
LayerCount: 2
Fore
SplineSet
30 90 m 256,0,1
 30 52 30 52 56 26 c 128,-1,2
 82 0 82 0 120 0 c 256,3,4
 158 0 158 0 184 26 c 128,-1,5
 210 52 210 52 210 90 c 256,6,7
 210 128 210 128 184 154 c 128,-1,8
 158 180 158 180 120 180 c 256,9,10
 82 180 82 180 56 154 c 128,-1,11
 30 128 30 128 30 90 c 256,0,1
EndSplineSet
Validated: 9
EndChar

StartChar: slash
Encoding: 47 47 18
Width: 500
Flags: W
LayerCount: 2
Fore
SplineSet
478 362 m 1,0,-1
 463 432 l 1,1,-1
 270 359 l 1,2,-1
 428 494 l 1,3,-1
 375 543 l 1,4,-1
 261 369 l 1,5,-1
 309 572 l 1,6,-1
 238 580 l 1,7,-1
 248 373 l 1,8,-1
 168 565 l 1,9,-1
 106 530 l 1,10,-1
 235 368 l 1,11,-1
 57 477 l 1,12,-1
 28 411 l 1,13,-1
 228 357 l 1,14,-1
 20 340 l 1,15,-1
 35 270 l 1,16,-1
 228 343 l 1,17,-1
 70 208 l 1,18,-1
 123 159 l 1,19,-1
 237 333 l 1,20,-1
 189 130 l 1,21,-1
 260 122 l 1,22,-1
 250 329 l 1,23,-1
 330 137 l 1,24,-1
 392 172 l 1,25,-1
 263 334 l 1,26,-1
 441 225 l 1,27,-1
 470 291 l 1,28,-1
 270 345 l 1,29,-1
 478 362 l 1,0,-1
EndSplineSet
Validated: 9
EndChar

StartChar: zero
Encoding: 48 48 19
Width: 931
Flags: W
LayerCount: 2
Fore
SplineSet
60 210 m 256,0,1
 60 185 60 185 77.5 167.5 c 128,-1,2
 95 150 95 150 120 150 c 256,3,4
 145 150 145 150 162.5 167.5 c 128,-1,5
 180 185 180 185 180 210 c 256,6,7
 180 235 180 235 162.5 252.5 c 128,-1,8
 145 270 145 270 120 270 c 256,9,10
 95 270 95 270 77.5 252.5 c 128,-1,11
 60 235 60 235 60 210 c 256,0,1
30 360 m 256,12,13
 30 335 30 335 47.5 317.5 c 128,-1,14
 65 300 65 300 90 300 c 256,15,16
 115 300 115 300 132.5 317.5 c 128,-1,17
 150 335 150 335 150 360 c 256,18,19
 150 385 150 385 132.5 402.5 c 128,-1,20
 115 420 115 420 90 420 c 256,21,22
 65 420 65 420 47.5 402.5 c 128,-1,23
 30 385 30 385 30 360 c 256,12,13
60 510 m 256,24,25
 60 485 60 485 77.5 467.5 c 128,-1,26
 95 450 95 450 120 450 c 256,27,28
 145 450 145 450 162.5 467.5 c 128,-1,29
 180 485 180 485 180 510 c 256,30,31
 180 535 180 535 162.5 552.5 c 128,-1,32
 145 570 145 570 120 570 c 256,33,34
 95 570 95 570 77.5 552.5 c 128,-1,35
 60 535 60 535 60 510 c 256,24,25
180 90 m 256,36,37
 180 65 180 65 197.5 47.5 c 128,-1,38
 215 30 215 30 240 30 c 256,39,40
 265 30 265 30 282.5 47.5 c 128,-1,41
 300 65 300 65 300 90 c 256,42,43
 300 115 300 115 282.5 132.5 c 128,-1,44
 265 150 265 150 240 150 c 256,45,46
 215 150 215 150 197.5 132.5 c 128,-1,47
 180 115 180 115 180 90 c 256,36,37
180 630 m 256,48,49
 180 605 180 605 197.5 587.5 c 128,-1,50
 215 570 215 570 240 570 c 256,51,52
 265 570 265 570 282.5 587.5 c 128,-1,53
 300 605 300 605 300 630 c 256,54,55
 300 655 300 655 282.5 672.5 c 128,-1,56
 265 690 265 690 240 690 c 256,57,58
 215 690 215 690 197.5 672.5 c 128,-1,59
 180 655 180 655 180 630 c 256,48,49
330 60 m 256,60,61
 330 35 330 35 347.5 17.5 c 128,-1,62
 365 0 365 0 390 0 c 256,63,64
 415 0 415 0 432.5 17.5 c 128,-1,65
 450 35 450 35 450 60 c 256,66,67
 450 85 450 85 432.5 102.5 c 128,-1,68
 415 120 415 120 390 120 c 256,69,70
 365 120 365 120 347.5 102.5 c 128,-1,71
 330 85 330 85 330 60 c 256,60,61
330 660 m 256,72,73
 330 635 330 635 347.5 617.5 c 128,-1,74
 365 600 365 600 390 600 c 256,75,76
 415 600 415 600 432.5 617.5 c 128,-1,77
 450 635 450 635 450 660 c 256,78,79
 450 685 450 685 432.5 702.5 c 128,-1,80
 415 720 415 720 390 720 c 256,81,82
 365 720 365 720 347.5 702.5 c 128,-1,83
 330 685 330 685 330 660 c 256,72,73
900 360 m 0,84,85
 900 510 900 510 776.5 615 c 128,-1,86
 653 720 653 720 480 720 c 1,87,-1
 480 600 l 1,88,89
 565 597 565 597 638 560 c 0,90,91
 718 520 718 520 757 451 c 0,92,93
 780 408 780 408 780 360 c 0,94,95
 780 265 780 265 692.5 194.5 c 128,-1,96
 605 124 605 124 480 120 c 1,97,-1
 480 0 l 1,98,99
 601 0 601 0 705 56 c 0,100,101
 815 116 815 116 867 220 c 0,102,103
 900 285 900 285 900 360 c 0,84,85
EndSplineSet
Validated: 9
EndChar

StartChar: one
Encoding: 49 49 20
Width: 330
Flags: W
LayerCount: 2
Fore
SplineSet
180 0 m 1,0,-1
 300 0 l 1,1,-1
 300 720 l 1,2,-1
 180 720 l 1,3,-1
 180 0 l 1,0,-1
30 660 m 256,4,5
 30 635 30 635 47.5 617.5 c 128,-1,6
 65 600 65 600 90 600 c 256,7,8
 115 600 115 600 132.5 617.5 c 128,-1,9
 150 635 150 635 150 660 c 256,10,11
 150 685 150 685 132.5 702.5 c 128,-1,12
 115 720 115 720 90 720 c 256,13,14
 65 720 65 720 47.5 702.5 c 128,-1,15
 30 685 30 685 30 660 c 256,4,5
EndSplineSet
Validated: 9
EndChar

StartChar: two
Encoding: 50 50 21
Width: 931
Flags: W
LayerCount: 2
Fore
SplineSet
900 510 m 0,0,1
 900 594 900 594 778 655 c 128,-1,2
 656 716 656 716 480 720 c 1,3,-1
 480 600 l 1,4,5
 605 598 605 598 692.5 572 c 128,-1,6
 780 546 780 546 780 510 c 0,7,8
 780 473 780 473 694 447.5 c 128,-1,9
 608 422 608 422 480 420 c 1,10,-1
 480 300 l 1,11,12
 654 302 654 302 777 363.5 c 128,-1,13
 900 425 900 425 900 510 c 0,0,1
480 0 m 1,14,-1
 900 0 l 1,15,-1
 900 120 l 1,16,-1
 480 120 l 1,17,-1
 480 0 l 1,14,-1
330 360 m 256,18,19
 330 335 330 335 347.5 317.5 c 128,-1,20
 365 300 365 300 390 300 c 256,21,22
 415 300 415 300 432.5 317.5 c 128,-1,23
 450 335 450 335 450 360 c 256,24,25
 450 385 450 385 432.5 402.5 c 128,-1,26
 415 420 415 420 390 420 c 256,27,28
 365 420 365 420 347.5 402.5 c 128,-1,29
 330 385 330 385 330 360 c 256,18,19
180 660 m 256,30,31
 180 635 180 635 197.5 617.5 c 128,-1,32
 215 600 215 600 240 600 c 256,33,34
 265 600 265 600 282.5 617.5 c 128,-1,35
 300 635 300 635 300 660 c 256,36,37
 300 685 300 685 282.5 702.5 c 128,-1,38
 265 720 265 720 240 720 c 256,39,40
 215 720 215 720 197.5 702.5 c 128,-1,41
 180 685 180 685 180 660 c 256,30,31
30 660 m 256,42,43
 30 635 30 635 47.5 617.5 c 128,-1,44
 65 600 65 600 90 600 c 256,45,46
 115 600 115 600 132.5 617.5 c 128,-1,47
 150 635 150 635 150 660 c 256,48,49
 150 685 150 685 132.5 702.5 c 128,-1,50
 115 720 115 720 90 720 c 256,51,52
 65 720 65 720 47.5 702.5 c 128,-1,53
 30 685 30 685 30 660 c 256,42,43
330 60 m 256,54,55
 330 35 330 35 347.5 17.5 c 128,-1,56
 365 0 365 0 390 0 c 256,57,58
 415 0 415 0 432.5 17.5 c 128,-1,59
 450 35 450 35 450 60 c 256,60,61
 450 85 450 85 432.5 102.5 c 128,-1,62
 415 120 415 120 390 120 c 256,63,64
 365 120 365 120 347.5 102.5 c 128,-1,65
 330 85 330 85 330 60 c 256,54,55
180 300 m 256,66,67
 180 275 180 275 197.5 257.5 c 128,-1,68
 215 240 215 240 240 240 c 256,69,70
 265 240 265 240 282.5 257.5 c 128,-1,71
 300 275 300 275 300 300 c 256,72,73
 300 325 300 325 282.5 342.5 c 128,-1,74
 265 360 265 360 240 360 c 256,75,76
 215 360 215 360 197.5 342.5 c 128,-1,77
 180 325 180 325 180 300 c 256,66,67
30 210 m 256,78,79
 30 185 30 185 47.5 167.5 c 128,-1,80
 65 150 65 150 90 150 c 256,81,82
 115 150 115 150 132.5 167.5 c 128,-1,83
 150 185 150 185 150 210 c 256,84,85
 150 235 150 235 132.5 252.5 c 128,-1,86
 115 270 115 270 90 270 c 256,87,88
 65 270 65 270 47.5 252.5 c 128,-1,89
 30 235 30 235 30 210 c 256,78,79
30 60 m 256,90,91
 30 35 30 35 47.5 17.5 c 128,-1,92
 65 0 65 0 90 0 c 256,93,94
 115 0 115 0 132.5 17.5 c 128,-1,95
 150 35 150 35 150 60 c 256,96,97
 150 85 150 85 132.5 102.5 c 128,-1,98
 115 120 115 120 90 120 c 256,99,100
 65 120 65 120 47.5 102.5 c 128,-1,101
 30 85 30 85 30 60 c 256,90,91
330 660 m 256,102,103
 330 635 330 635 347.5 617.5 c 128,-1,104
 365 600 365 600 390 600 c 256,105,106
 415 600 415 600 432.5 617.5 c 128,-1,107
 450 635 450 635 450 660 c 256,108,109
 450 685 450 685 432.5 702.5 c 128,-1,110
 415 720 415 720 390 720 c 256,111,112
 365 720 365 720 347.5 702.5 c 128,-1,113
 330 685 330 685 330 660 c 256,102,103
180 60 m 256,114,115
 180 35 180 35 197.5 17.5 c 128,-1,116
 215 0 215 0 240 0 c 256,117,118
 265 0 265 0 282.5 17.5 c 128,-1,119
 300 35 300 35 300 60 c 256,120,121
 300 85 300 85 282.5 102.5 c 128,-1,122
 265 120 265 120 240 120 c 256,123,124
 215 120 215 120 197.5 102.5 c 128,-1,125
 180 85 180 85 180 60 c 256,114,115
EndSplineSet
Validated: 9
EndChar

StartChar: three
Encoding: 51 51 22
Width: 931
Flags: W
LayerCount: 2
Fore
SplineSet
900 510 m 0,0,1
 900 594 900 594 778 655 c 128,-1,2
 656 716 656 716 480 720 c 1,3,-1
 480 600 l 1,4,5
 605 598 605 598 692.5 572 c 128,-1,6
 780 546 780 546 780 510 c 0,7,8
 780 473 780 473 694 447.5 c 128,-1,9
 608 422 608 422 480 420 c 1,10,-1
 480 300 l 1,11,12
 608 298 608 298 694 272.5 c 128,-1,13
 780 247 780 247 780 210 c 0,14,15
 780 174 780 174 692.5 148 c 128,-1,16
 605 122 605 122 480 120 c 1,17,-1
 480 0 l 1,18,19
 652 2 652 2 776 64 c 128,-1,20
 900 126 900 126 900 210 c 0,21,22
 900 297 900 297 770 360 c 1,23,24
 900 423 900 423 900 510 c 0,0,1
330 660 m 256,25,26
 330 635 330 635 347.5 617.5 c 128,-1,27
 365 600 365 600 390 600 c 256,28,29
 415 600 415 600 432.5 617.5 c 128,-1,30
 450 635 450 635 450 660 c 256,31,32
 450 685 450 685 432.5 702.5 c 128,-1,33
 415 720 415 720 390 720 c 256,34,35
 365 720 365 720 347.5 702.5 c 128,-1,36
 330 685 330 685 330 660 c 256,25,26
180 90 m 256,37,38
 180 65 180 65 197.5 47.5 c 128,-1,39
 215 30 215 30 240 30 c 256,40,41
 265 30 265 30 282.5 47.5 c 128,-1,42
 300 65 300 65 300 90 c 256,43,44
 300 115 300 115 282.5 132.5 c 128,-1,45
 265 150 265 150 240 150 c 256,46,47
 215 150 215 150 197.5 132.5 c 128,-1,48
 180 115 180 115 180 90 c 256,37,38
330 360 m 256,49,50
 330 335 330 335 347.5 317.5 c 128,-1,51
 365 300 365 300 390 300 c 256,52,53
 415 300 415 300 432.5 317.5 c 128,-1,54
 450 335 450 335 450 360 c 256,55,56
 450 385 450 385 432.5 402.5 c 128,-1,57
 415 420 415 420 390 420 c 256,58,59
 365 420 365 420 347.5 402.5 c 128,-1,60
 330 385 330 385 330 360 c 256,49,50
180 630 m 256,61,62
 180 605 180 605 197.5 587.5 c 128,-1,63
 215 570 215 570 240 570 c 256,64,65
 265 570 265 570 282.5 587.5 c 128,-1,66
 300 605 300 605 300 630 c 256,67,68
 300 655 300 655 282.5 672.5 c 128,-1,69
 265 690 265 690 240 690 c 256,70,71
 215 690 215 690 197.5 672.5 c 128,-1,72
 180 655 180 655 180 630 c 256,61,62
30 600 m 256,73,74
 30 575 30 575 47.5 557.5 c 128,-1,75
 65 540 65 540 90 540 c 256,76,77
 115 540 115 540 132.5 557.5 c 128,-1,78
 150 575 150 575 150 600 c 256,79,80
 150 625 150 625 132.5 642.5 c 128,-1,81
 115 660 115 660 90 660 c 256,82,83
 65 660 65 660 47.5 642.5 c 128,-1,84
 30 625 30 625 30 600 c 256,73,74
30 120 m 256,85,86
 30 95 30 95 47.5 77.5 c 128,-1,87
 65 60 65 60 90 60 c 256,88,89
 115 60 115 60 132.5 77.5 c 128,-1,90
 150 95 150 95 150 120 c 256,91,92
 150 145 150 145 132.5 162.5 c 128,-1,93
 115 180 115 180 90 180 c 256,94,95
 65 180 65 180 47.5 162.5 c 128,-1,96
 30 145 30 145 30 120 c 256,85,86
180 360 m 256,97,98
 180 335 180 335 197.5 317.5 c 128,-1,99
 215 300 215 300 240 300 c 256,100,101
 265 300 265 300 282.5 317.5 c 128,-1,102
 300 335 300 335 300 360 c 256,103,104
 300 385 300 385 282.5 402.5 c 128,-1,105
 265 420 265 420 240 420 c 256,106,107
 215 420 215 420 197.5 402.5 c 128,-1,108
 180 385 180 385 180 360 c 256,97,98
330 60 m 256,109,110
 330 35 330 35 347.5 17.5 c 128,-1,111
 365 0 365 0 390 0 c 256,112,113
 415 0 415 0 432.5 17.5 c 128,-1,114
 450 35 450 35 450 60 c 256,115,116
 450 85 450 85 432.5 102.5 c 128,-1,117
 415 120 415 120 390 120 c 256,118,119
 365 120 365 120 347.5 102.5 c 128,-1,120
 330 85 330 85 330 60 c 256,109,110
EndSplineSet
Validated: 9
EndChar

StartChar: four
Encoding: 52 52 23
Width: 931
Flags: W
LayerCount: 2
Fore
SplineSet
480 150 m 1,0,-1
 780 150 l 1,1,-1
 780 0 l 1,2,-1
 900 0 l 1,3,-1
 900 720 l 1,4,-1
 780 720 l 1,5,-1
 780 270 l 1,6,-1
 480 270 l 1,7,-1
 480 150 l 1,0,-1
330 210 m 256,8,9
 330 185 330 185 347.5 167.5 c 128,-1,10
 365 150 365 150 390 150 c 256,11,12
 415 150 415 150 432.5 167.5 c 128,-1,13
 450 185 450 185 450 210 c 256,14,15
 450 235 450 235 432.5 252.5 c 128,-1,16
 415 270 415 270 390 270 c 256,17,18
 365 270 365 270 347.5 252.5 c 128,-1,19
 330 235 330 235 330 210 c 256,8,9
30 210 m 256,20,21
 30 185 30 185 47.5 167.5 c 128,-1,22
 65 150 65 150 90 150 c 256,23,24
 115 150 115 150 132.5 167.5 c 128,-1,25
 150 185 150 185 150 210 c 256,26,27
 150 235 150 235 132.5 252.5 c 128,-1,28
 115 270 115 270 90 270 c 256,29,30
 65 270 65 270 47.5 252.5 c 128,-1,31
 30 235 30 235 30 210 c 256,20,21
90 510 m 256,32,33
 90 485 90 485 107.5 467.5 c 128,-1,34
 125 450 125 450 150 450 c 256,35,36
 175 450 175 450 192.5 467.5 c 128,-1,37
 210 485 210 485 210 510 c 256,38,39
 210 535 210 535 192.5 552.5 c 128,-1,40
 175 570 175 570 150 570 c 256,41,42
 125 570 125 570 107.5 552.5 c 128,-1,43
 90 535 90 535 90 510 c 256,32,33
120 660 m 256,44,45
 120 635 120 635 137.5 617.5 c 128,-1,46
 155 600 155 600 180 600 c 256,47,48
 205 600 205 600 222.5 617.5 c 128,-1,49
 240 635 240 635 240 660 c 256,50,51
 240 685 240 685 222.5 702.5 c 128,-1,52
 205 720 205 720 180 720 c 256,53,54
 155 720 155 720 137.5 702.5 c 128,-1,55
 120 685 120 685 120 660 c 256,44,45
180 210 m 256,56,57
 180 185 180 185 197.5 167.5 c 128,-1,58
 215 150 215 150 240 150 c 256,59,60
 265 150 265 150 282.5 167.5 c 128,-1,61
 300 185 300 185 300 210 c 256,62,63
 300 235 300 235 282.5 252.5 c 128,-1,64
 265 270 265 270 240 270 c 256,65,66
 215 270 215 270 197.5 252.5 c 128,-1,67
 180 235 180 235 180 210 c 256,56,57
60 360 m 256,68,69
 60 335 60 335 77.5 317.5 c 128,-1,70
 95 300 95 300 120 300 c 256,71,72
 145 300 145 300 162.5 317.5 c 128,-1,73
 180 335 180 335 180 360 c 256,74,75
 180 385 180 385 162.5 402.5 c 128,-1,76
 145 420 145 420 120 420 c 256,77,78
 95 420 95 420 77.5 402.5 c 128,-1,79
 60 385 60 385 60 360 c 256,68,69
EndSplineSet
Validated: 9
EndChar

StartChar: five
Encoding: 53 53 24
Width: 931
Flags: W
LayerCount: 2
Fore
SplineSet
480 0 m 1,0,-1
 900 0 l 1,1,-1
 900 60 l 2,2,3
 900 210 900 210 776.5 315 c 128,-1,4
 653 420 653 420 480 420 c 1,5,-1
 480 300 l 1,6,7
 642 294 642 294 730 189 c 0,8,9
 757 157 757 157 770 120 c 1,10,-1
 480 120 l 1,11,-1
 480 0 l 1,0,-1
480 600 m 1,12,-1
 900 600 l 1,13,-1
 900 720 l 1,14,-1
 480 720 l 1,15,-1
 480 600 l 1,12,-1
30 360 m 256,16,17
 30 335 30 335 47.5 317.5 c 128,-1,18
 65 300 65 300 90 300 c 256,19,20
 115 300 115 300 132.5 317.5 c 128,-1,21
 150 335 150 335 150 360 c 256,22,23
 150 385 150 385 132.5 402.5 c 128,-1,24
 115 420 115 420 90 420 c 256,25,26
 65 420 65 420 47.5 402.5 c 128,-1,27
 30 385 30 385 30 360 c 256,16,17
330 60 m 256,28,29
 330 35 330 35 347.5 17.5 c 128,-1,30
 365 0 365 0 390 0 c 256,31,32
 415 0 415 0 432.5 17.5 c 128,-1,33
 450 35 450 35 450 60 c 256,34,35
 450 85 450 85 432.5 102.5 c 128,-1,36
 415 120 415 120 390 120 c 256,37,38
 365 120 365 120 347.5 102.5 c 128,-1,39
 330 85 330 85 330 60 c 256,28,29
180 660 m 256,40,41
 180 635 180 635 197.5 617.5 c 128,-1,42
 215 600 215 600 240 600 c 256,43,44
 265 600 265 600 282.5 617.5 c 128,-1,45
 300 635 300 635 300 660 c 256,46,47
 300 685 300 685 282.5 702.5 c 128,-1,48
 265 720 265 720 240 720 c 256,49,50
 215 720 215 720 197.5 702.5 c 128,-1,51
 180 685 180 685 180 660 c 256,40,41
330 360 m 256,52,53
 330 335 330 335 347.5 317.5 c 128,-1,54
 365 300 365 300 390 300 c 256,55,56
 415 300 415 300 432.5 317.5 c 128,-1,57
 450 335 450 335 450 360 c 256,58,59
 450 385 450 385 432.5 402.5 c 128,-1,60
 415 420 415 420 390 420 c 256,61,62
 365 420 365 420 347.5 402.5 c 128,-1,63
 330 385 330 385 330 360 c 256,52,53
30 510 m 256,64,65
 30 485 30 485 47.5 467.5 c 128,-1,66
 65 450 65 450 90 450 c 256,67,68
 115 450 115 450 132.5 467.5 c 128,-1,69
 150 485 150 485 150 510 c 256,70,71
 150 535 150 535 132.5 552.5 c 128,-1,72
 115 570 115 570 90 570 c 256,73,74
 65 570 65 570 47.5 552.5 c 128,-1,75
 30 535 30 535 30 510 c 256,64,65
180 360 m 256,76,77
 180 335 180 335 197.5 317.5 c 128,-1,78
 215 300 215 300 240 300 c 256,79,80
 265 300 265 300 282.5 317.5 c 128,-1,81
 300 335 300 335 300 360 c 256,82,83
 300 385 300 385 282.5 402.5 c 128,-1,84
 265 420 265 420 240 420 c 256,85,86
 215 420 215 420 197.5 402.5 c 128,-1,87
 180 385 180 385 180 360 c 256,76,77
180 60 m 256,88,89
 180 35 180 35 197.5 17.5 c 128,-1,90
 215 0 215 0 240 0 c 256,91,92
 265 0 265 0 282.5 17.5 c 128,-1,93
 300 35 300 35 300 60 c 256,94,95
 300 85 300 85 282.5 102.5 c 128,-1,96
 265 120 265 120 240 120 c 256,97,98
 215 120 215 120 197.5 102.5 c 128,-1,99
 180 85 180 85 180 60 c 256,88,89
30 660 m 256,100,101
 30 635 30 635 47.5 617.5 c 128,-1,102
 65 600 65 600 90 600 c 256,103,104
 115 600 115 600 132.5 617.5 c 128,-1,105
 150 635 150 635 150 660 c 256,106,107
 150 685 150 685 132.5 702.5 c 128,-1,108
 115 720 115 720 90 720 c 256,109,110
 65 720 65 720 47.5 702.5 c 128,-1,111
 30 685 30 685 30 660 c 256,100,101
30 60 m 256,112,113
 30 35 30 35 47.5 17.5 c 128,-1,114
 65 0 65 0 90 0 c 256,115,116
 115 0 115 0 132.5 17.5 c 128,-1,117
 150 35 150 35 150 60 c 256,118,119
 150 85 150 85 132.5 102.5 c 128,-1,120
 115 120 115 120 90 120 c 256,121,122
 65 120 65 120 47.5 102.5 c 128,-1,123
 30 85 30 85 30 60 c 256,112,113
330 660 m 256,124,125
 330 635 330 635 347.5 617.5 c 128,-1,126
 365 600 365 600 390 600 c 256,127,128
 415 600 415 600 432.5 617.5 c 128,-1,129
 450 635 450 635 450 660 c 256,130,131
 450 685 450 685 432.5 702.5 c 128,-1,132
 415 720 415 720 390 720 c 256,133,134
 365 720 365 720 347.5 702.5 c 128,-1,135
 330 685 330 685 330 660 c 256,124,125
EndSplineSet
Validated: 9
EndChar

StartChar: six
Encoding: 54 54 25
Width: 931
Flags: W
LayerCount: 2
Fore
SplineSet
480 600 m 1,0,-1
 780 600 l 1,1,-1
 780 720 l 1,2,-1
 480 720 l 1,3,-1
 480 600 l 1,0,-1
30 150 m 256,4,5
 30 125 30 125 47.5 107.5 c 128,-1,6
 65 90 65 90 90 90 c 256,7,8
 115 90 115 90 132.5 107.5 c 128,-1,9
 150 125 150 125 150 150 c 256,10,11
 150 175 150 175 132.5 192.5 c 128,-1,12
 115 210 115 210 90 210 c 256,13,14
 65 210 65 210 47.5 192.5 c 128,-1,15
 30 175 30 175 30 150 c 256,4,5
330 660 m 256,16,17
 330 635 330 635 347.5 617.5 c 128,-1,18
 365 600 365 600 390 600 c 256,19,20
 415 600 415 600 432.5 617.5 c 128,-1,21
 450 635 450 635 450 660 c 256,22,23
 450 685 450 685 432.5 702.5 c 128,-1,24
 415 720 415 720 390 720 c 256,25,26
 365 720 365 720 347.5 702.5 c 128,-1,27
 330 685 330 685 330 660 c 256,16,17
180 360 m 256,28,29
 180 335 180 335 197.5 317.5 c 128,-1,30
 215 300 215 300 240 300 c 256,31,32
 265 300 265 300 282.5 317.5 c 128,-1,33
 300 335 300 335 300 360 c 256,34,35
 300 385 300 385 282.5 402.5 c 128,-1,36
 265 420 265 420 240 420 c 256,37,38
 215 420 215 420 197.5 402.5 c 128,-1,39
 180 385 180 385 180 360 c 256,28,29
180 600 m 256,40,41
 180 575 180 575 197.5 557.5 c 128,-1,42
 215 540 215 540 240 540 c 256,43,44
 265 540 265 540 282.5 557.5 c 128,-1,45
 300 575 300 575 300 600 c 256,46,47
 300 625 300 625 282.5 642.5 c 128,-1,48
 265 660 265 660 240 660 c 256,49,50
 215 660 215 660 197.5 642.5 c 128,-1,51
 180 625 180 625 180 600 c 256,40,41
330 360 m 256,52,53
 330 335 330 335 347.5 317.5 c 128,-1,54
 365 300 365 300 390 300 c 256,55,56
 415 300 415 300 432.5 317.5 c 128,-1,57
 450 335 450 335 450 360 c 256,58,59
 450 385 450 385 432.5 402.5 c 128,-1,60
 415 420 415 420 390 420 c 256,61,62
 365 420 365 420 347.5 402.5 c 128,-1,63
 330 385 330 385 330 360 c 256,52,53
60 480 m 256,64,65
 60 455 60 455 77.5 437.5 c 128,-1,66
 95 420 95 420 120 420 c 256,67,68
 145 420 145 420 162.5 437.5 c 128,-1,69
 180 455 180 455 180 480 c 256,70,71
 180 505 180 505 162.5 522.5 c 128,-1,72
 145 540 145 540 120 540 c 256,73,74
 95 540 95 540 77.5 522.5 c 128,-1,75
 60 505 60 505 60 480 c 256,64,65
330 60 m 256,76,77
 330 35 330 35 347.5 17.5 c 128,-1,78
 365 0 365 0 390 0 c 256,79,80
 415 0 415 0 432.5 17.5 c 128,-1,81
 450 35 450 35 450 60 c 256,82,83
 450 85 450 85 432.5 102.5 c 128,-1,84
 415 120 415 120 390 120 c 256,85,86
 365 120 365 120 347.5 102.5 c 128,-1,87
 330 85 330 85 330 60 c 256,76,77
180 90 m 256,88,89
 180 65 180 65 197.5 47.5 c 128,-1,90
 215 30 215 30 240 30 c 256,91,92
 265 30 265 30 282.5 47.5 c 128,-1,93
 300 65 300 65 300 90 c 256,94,95
 300 115 300 115 282.5 132.5 c 128,-1,96
 265 150 265 150 240 150 c 256,97,98
 215 150 215 150 197.5 132.5 c 128,-1,99
 180 115 180 115 180 90 c 256,88,89
900 210 m 0,100,101
 900 294 900 294 778 355 c 128,-1,102
 656 416 656 416 480 420 c 1,103,-1
 480 300 l 1,104,105
 605 298 605 298 692.5 272 c 128,-1,106
 780 246 780 246 780 210 c 0,107,108
 780 173 780 173 694 147.5 c 128,-1,109
 608 122 608 122 480 120 c 1,110,-1
 480 0 l 1,111,112
 654 2 654 2 777 63.5 c 128,-1,113
 900 125 900 125 900 210 c 0,100,101
30 300 m 256,114,115
 30 275 30 275 47.5 257.5 c 128,-1,116
 65 240 65 240 90 240 c 256,117,118
 115 240 115 240 132.5 257.5 c 128,-1,119
 150 275 150 275 150 300 c 256,120,121
 150 325 150 325 132.5 342.5 c 128,-1,122
 115 360 115 360 90 360 c 256,123,124
 65 360 65 360 47.5 342.5 c 128,-1,125
 30 325 30 325 30 300 c 256,114,115
EndSplineSet
Validated: 9
EndChar

StartChar: seven
Encoding: 55 55 26
Width: 931
Flags: W
LayerCount: 2
Fore
SplineSet
480 0 m 1,0,-1
 600 0 l 1,1,-1
 600 180 l 2,2,3
 600 275 600 275 687.5 345.5 c 128,-1,4
 775 416 775 416 900 420 c 1,5,-1
 900 720 l 1,6,-1
 480 720 l 1,7,-1
 480 600 l 1,8,-1
 780 600 l 1,9,-1
 780 525 l 1,10,11
 686 500 686 500 614 443 c 0,12,13
 537 382 537 382 503 297 c 0,14,15
 480 241 480 241 480 180 c 2,16,-1
 480 0 l 1,0,-1
330 660 m 256,17,18
 330 635 330 635 347.5 617.5 c 128,-1,19
 365 600 365 600 390 600 c 256,20,21
 415 600 415 600 432.5 617.5 c 128,-1,22
 450 635 450 635 450 660 c 256,23,24
 450 685 450 685 432.5 702.5 c 128,-1,25
 415 720 415 720 390 720 c 256,26,27
 365 720 365 720 347.5 702.5 c 128,-1,28
 330 685 330 685 330 660 c 256,17,18
30 660 m 256,29,30
 30 635 30 635 47.5 617.5 c 128,-1,31
 65 600 65 600 90 600 c 256,32,33
 115 600 115 600 132.5 617.5 c 128,-1,34
 150 635 150 635 150 660 c 256,35,36
 150 685 150 685 132.5 702.5 c 128,-1,37
 115 720 115 720 90 720 c 256,38,39
 65 720 65 720 47.5 702.5 c 128,-1,40
 30 685 30 685 30 660 c 256,29,30
180 660 m 256,41,42
 180 635 180 635 197.5 617.5 c 128,-1,43
 215 600 215 600 240 600 c 256,44,45
 265 600 265 600 282.5 617.5 c 128,-1,46
 300 635 300 635 300 660 c 256,47,48
 300 685 300 685 282.5 702.5 c 128,-1,49
 265 720 265 720 240 720 c 256,50,51
 215 720 215 720 197.5 702.5 c 128,-1,52
 180 685 180 685 180 660 c 256,41,42
30 510 m 256,53,54
 30 485 30 485 47.5 467.5 c 128,-1,55
 65 450 65 450 90 450 c 256,56,57
 115 450 115 450 132.5 467.5 c 128,-1,58
 150 485 150 485 150 510 c 256,59,60
 150 535 150 535 132.5 552.5 c 128,-1,61
 115 570 115 570 90 570 c 256,62,63
 65 570 65 570 47.5 552.5 c 128,-1,64
 30 535 30 535 30 510 c 256,53,54
EndSplineSet
Validated: 9
EndChar

StartChar: eight
Encoding: 56 56 27
Width: 931
Flags: W
LayerCount: 2
Fore
SplineSet
900 210 m 0,0,1
 900 298 900 298 769 360 c 1,2,3
 900 422 900 422 900 510 c 0,4,5
 900 595 900 595 777 657 c 0,6,7
 658 716 658 716 480 720 c 1,8,-1
 480 600 l 1,9,10
 608 598 608 598 694 572.5 c 128,-1,11
 780 547 780 547 780 510 c 0,12,13
 780 474 780 474 692.5 448 c 128,-1,14
 605 422 605 422 480 420 c 1,15,-1
 480 300 l 1,16,17
 605 298 605 298 692.5 272 c 128,-1,18
 780 246 780 246 780 210 c 0,19,20
 780 173 780 173 694 147.5 c 128,-1,21
 608 122 608 122 480 120 c 1,22,-1
 480 0 l 1,23,24
 654 2 654 2 777 63.5 c 128,-1,25
 900 125 900 125 900 210 c 0,0,1
60 270 m 256,26,27
 60 245 60 245 77.5 227.5 c 128,-1,28
 95 210 95 210 120 210 c 256,29,30
 145 210 145 210 162.5 227.5 c 128,-1,31
 180 245 180 245 180 270 c 256,32,33
 180 295 180 295 162.5 312.5 c 128,-1,34
 145 330 145 330 120 330 c 256,35,36
 95 330 95 330 77.5 312.5 c 128,-1,37
 60 295 60 295 60 270 c 256,26,27
30 600 m 256,38,39
 30 575 30 575 47.5 557.5 c 128,-1,40
 65 540 65 540 90 540 c 256,41,42
 115 540 115 540 132.5 557.5 c 128,-1,43
 150 575 150 575 150 600 c 256,44,45
 150 625 150 625 132.5 642.5 c 128,-1,46
 115 660 115 660 90 660 c 256,47,48
 65 660 65 660 47.5 642.5 c 128,-1,49
 30 625 30 625 30 600 c 256,38,39
180 90 m 256,50,51
 180 65 180 65 197.5 47.5 c 128,-1,52
 215 30 215 30 240 30 c 256,53,54
 265 30 265 30 282.5 47.5 c 128,-1,55
 300 65 300 65 300 90 c 256,56,57
 300 115 300 115 282.5 132.5 c 128,-1,58
 265 150 265 150 240 150 c 256,59,60
 215 150 215 150 197.5 132.5 c 128,-1,61
 180 115 180 115 180 90 c 256,50,51
330 60 m 256,62,63
 330 35 330 35 347.5 17.5 c 128,-1,64
 365 0 365 0 390 0 c 256,65,66
 415 0 415 0 432.5 17.5 c 128,-1,67
 450 35 450 35 450 60 c 256,68,69
 450 85 450 85 432.5 102.5 c 128,-1,70
 415 120 415 120 390 120 c 256,71,72
 365 120 365 120 347.5 102.5 c 128,-1,73
 330 85 330 85 330 60 c 256,62,63
60 450 m 256,74,75
 60 425 60 425 77.5 407.5 c 128,-1,76
 95 390 95 390 120 390 c 256,77,78
 145 390 145 390 162.5 407.5 c 128,-1,79
 180 425 180 425 180 450 c 256,80,81
 180 475 180 475 162.5 492.5 c 128,-1,82
 145 510 145 510 120 510 c 256,83,84
 95 510 95 510 77.5 492.5 c 128,-1,85
 60 475 60 475 60 450 c 256,74,75
330 660 m 256,86,87
 330 635 330 635 347.5 617.5 c 128,-1,88
 365 600 365 600 390 600 c 256,89,90
 415 600 415 600 432.5 617.5 c 128,-1,91
 450 635 450 635 450 660 c 256,92,93
 450 685 450 685 432.5 702.5 c 128,-1,94
 415 720 415 720 390 720 c 256,95,96
 365 720 365 720 347.5 702.5 c 128,-1,97
 330 685 330 685 330 660 c 256,86,87
30 120 m 256,98,99
 30 95 30 95 47.5 77.5 c 128,-1,100
 65 60 65 60 90 60 c 256,101,102
 115 60 115 60 132.5 77.5 c 128,-1,103
 150 95 150 95 150 120 c 256,104,105
 150 145 150 145 132.5 162.5 c 128,-1,106
 115 180 115 180 90 180 c 256,107,108
 65 180 65 180 47.5 162.5 c 128,-1,109
 30 145 30 145 30 120 c 256,98,99
180 360 m 256,110,111
 180 335 180 335 197.5 317.5 c 128,-1,112
 215 300 215 300 240 300 c 256,113,114
 265 300 265 300 282.5 317.5 c 128,-1,115
 300 335 300 335 300 360 c 256,116,117
 300 385 300 385 282.5 402.5 c 128,-1,118
 265 420 265 420 240 420 c 256,119,120
 215 420 215 420 197.5 402.5 c 128,-1,121
 180 385 180 385 180 360 c 256,110,111
330 360 m 256,122,123
 330 335 330 335 347.5 317.5 c 128,-1,124
 365 300 365 300 390 300 c 256,125,126
 415 300 415 300 432.5 317.5 c 128,-1,127
 450 335 450 335 450 360 c 256,128,129
 450 385 450 385 432.5 402.5 c 128,-1,130
 415 420 415 420 390 420 c 256,131,132
 365 420 365 420 347.5 402.5 c 128,-1,133
 330 385 330 385 330 360 c 256,122,123
180 630 m 256,134,135
 180 605 180 605 197.5 587.5 c 128,-1,136
 215 570 215 570 240 570 c 256,137,138
 265 570 265 570 282.5 587.5 c 128,-1,139
 300 605 300 605 300 630 c 256,140,141
 300 655 300 655 282.5 672.5 c 128,-1,142
 265 690 265 690 240 690 c 256,143,144
 215 690 215 690 197.5 672.5 c 128,-1,145
 180 655 180 655 180 630 c 256,134,135
EndSplineSet
Validated: 9
EndChar

StartChar: nine
Encoding: 57 57 28
Width: 931
Flags: W
LayerCount: 2
Fore
SplineSet
480 300 m 1,0,-1
 770 300 l 1,1,2
 744 224 744 224 665 174 c 128,-1,3
 586 124 586 124 480 120 c 1,4,-1
 480 0 l 1,5,6
 601 0 601 0 705 56 c 0,7,8
 815 116 815 116 867 220 c 0,9,10
 900 285 900 285 900 360 c 0,11,12
 900 510 900 510 776.5 615 c 128,-1,13
 653 720 653 720 480 720 c 1,14,-1
 480 600 l 1,15,16
 642 594 642 594 730 489 c 0,17,18
 757 457 757 457 770 420 c 1,19,-1
 480 420 l 1,20,-1
 480 300 l 1,0,-1
30 120 m 256,21,22
 30 95 30 95 47.5 77.5 c 128,-1,23
 65 60 65 60 90 60 c 256,24,25
 115 60 115 60 132.5 77.5 c 128,-1,26
 150 95 150 95 150 120 c 256,27,28
 150 145 150 145 132.5 162.5 c 128,-1,29
 115 180 115 180 90 180 c 256,30,31
 65 180 65 180 47.5 162.5 c 128,-1,32
 30 145 30 145 30 120 c 256,21,22
30 570 m 256,33,34
 30 545 30 545 47.5 527.5 c 128,-1,35
 65 510 65 510 90 510 c 256,36,37
 115 510 115 510 132.5 527.5 c 128,-1,38
 150 545 150 545 150 570 c 256,39,40
 150 595 150 595 132.5 612.5 c 128,-1,41
 115 630 115 630 90 630 c 256,42,43
 65 630 65 630 47.5 612.5 c 128,-1,44
 30 595 30 595 30 570 c 256,33,34
330 360 m 256,45,46
 330 335 330 335 347.5 317.5 c 128,-1,47
 365 300 365 300 390 300 c 256,48,49
 415 300 415 300 432.5 317.5 c 128,-1,50
 450 335 450 335 450 360 c 256,51,52
 450 385 450 385 432.5 402.5 c 128,-1,53
 415 420 415 420 390 420 c 256,54,55
 365 420 365 420 347.5 402.5 c 128,-1,56
 330 385 330 385 330 360 c 256,45,46
330 660 m 256,57,58
 330 635 330 635 347.5 617.5 c 128,-1,59
 365 600 365 600 390 600 c 256,60,61
 415 600 415 600 432.5 617.5 c 128,-1,62
 450 635 450 635 450 660 c 256,63,64
 450 685 450 685 432.5 702.5 c 128,-1,65
 415 720 415 720 390 720 c 256,66,67
 365 720 365 720 347.5 702.5 c 128,-1,68
 330 685 330 685 330 660 c 256,57,58
180 630 m 256,69,70
 180 605 180 605 197.5 587.5 c 128,-1,71
 215 570 215 570 240 570 c 256,72,73
 265 570 265 570 282.5 587.5 c 128,-1,74
 300 605 300 605 300 630 c 256,75,76
 300 655 300 655 282.5 672.5 c 128,-1,77
 265 690 265 690 240 690 c 256,78,79
 215 690 215 690 197.5 672.5 c 128,-1,80
 180 655 180 655 180 630 c 256,69,70
330 60 m 256,81,82
 330 35 330 35 347.5 17.5 c 128,-1,83
 365 0 365 0 390 0 c 256,84,85
 415 0 415 0 432.5 17.5 c 128,-1,86
 450 35 450 35 450 60 c 256,87,88
 450 85 450 85 432.5 102.5 c 128,-1,89
 415 120 415 120 390 120 c 256,90,91
 365 120 365 120 347.5 102.5 c 128,-1,92
 330 85 330 85 330 60 c 256,81,82
180 90 m 256,93,94
 180 65 180 65 197.5 47.5 c 128,-1,95
 215 30 215 30 240 30 c 256,96,97
 265 30 265 30 282.5 47.5 c 128,-1,98
 300 65 300 65 300 90 c 256,99,100
 300 115 300 115 282.5 132.5 c 128,-1,101
 265 150 265 150 240 150 c 256,102,103
 215 150 215 150 197.5 132.5 c 128,-1,104
 180 115 180 115 180 90 c 256,93,94
30 420 m 256,105,106
 30 395 30 395 47.5 377.5 c 128,-1,107
 65 360 65 360 90 360 c 256,108,109
 115 360 115 360 132.5 377.5 c 128,-1,110
 150 395 150 395 150 420 c 256,111,112
 150 445 150 445 132.5 462.5 c 128,-1,113
 115 480 115 480 90 480 c 256,114,115
 65 480 65 480 47.5 462.5 c 128,-1,116
 30 445 30 445 30 420 c 256,105,106
180 360 m 256,117,118
 180 335 180 335 197.5 317.5 c 128,-1,119
 215 300 215 300 240 300 c 256,120,121
 265 300 265 300 282.5 317.5 c 128,-1,122
 300 335 300 335 300 360 c 256,123,124
 300 385 300 385 282.5 402.5 c 128,-1,125
 265 420 265 420 240 420 c 256,126,127
 215 420 215 420 197.5 402.5 c 128,-1,128
 180 385 180 385 180 360 c 256,117,118
EndSplineSet
Validated: 9
EndChar

StartChar: colon
Encoding: 58 58 29
Width: 240
Flags: W
LayerCount: 2
Fore
SplineSet
30 510 m 256,0,1
 30 472 30 472 56 446 c 128,-1,2
 82 420 82 420 120 420 c 256,3,4
 158 420 158 420 184 446 c 128,-1,5
 210 472 210 472 210 510 c 256,6,7
 210 548 210 548 184 574 c 128,-1,8
 158 600 158 600 120 600 c 256,9,10
 82 600 82 600 56 574 c 128,-1,11
 30 548 30 548 30 510 c 256,0,1
30 210 m 256,12,13
 30 172 30 172 56 146 c 128,-1,14
 82 120 82 120 120 120 c 256,15,16
 158 120 158 120 184 146 c 128,-1,17
 210 172 210 172 210 210 c 256,18,19
 210 248 210 248 184 274 c 128,-1,20
 158 300 158 300 120 300 c 256,21,22
 82 300 82 300 56 274 c 128,-1,23
 30 248 30 248 30 210 c 256,12,13
EndSplineSet
Validated: 9
EndChar

StartChar: semicolon
Encoding: 59 59 30
Width: 240
Flags: W
LayerCount: 2
Fore
SplineSet
65 36 m 1,0,-1
 118 9 l 1,1,-1
 200 169 l 2,2,3
 217 201 217 201 205 238 c 0,4,5
 197 263 197 263 174.5 280.5 c 128,-1,6
 152 298 152 298 126 300 c 0,7,8
 66 303 66 303 39 251 c 0,9,10
 22 218 22 218 34 182 c 0,11,12
 45 148 45 148 79 130 c 0,13,14
 95 122 95 122 108 121 c 1,15,-1
 65 36 l 1,0,-1
30 510 m 256,16,17
 30 472 30 472 56 446 c 128,-1,18
 82 420 82 420 120 420 c 256,19,20
 158 420 158 420 184 446 c 128,-1,21
 210 472 210 472 210 510 c 256,22,23
 210 548 210 548 184 574 c 128,-1,24
 158 600 158 600 120 600 c 256,25,26
 82 600 82 600 56 574 c 128,-1,27
 30 548 30 548 30 510 c 256,16,17
EndSplineSet
Validated: 41
EndChar

StartChar: less
Encoding: 60 60 31
Width: 407
Flags: W
LayerCount: 2
Fore
SplineSet
373 118 m 1,0,-1
 182 360 l 1,1,-1
 373 602 l 1,2,-1
 279 676 l 1,3,-1
 30 360 l 1,4,-1
 279 44 l 1,5,-1
 373 118 l 1,0,-1
EndSplineSet
Validated: 9
EndChar

StartChar: equal
Encoding: 61 61 32
Width: 509
Flags: W
LayerCount: 2
Fore
SplineSet
30 180 m 1,0,-1
 480 180 l 1,1,-1
 480 300 l 1,2,-1
 30 300 l 1,3,-1
 30 180 l 1,0,-1
30 420 m 1,4,-1
 480 420 l 1,5,-1
 480 540 l 1,6,-1
 30 540 l 1,7,-1
 30 420 l 1,4,-1
EndSplineSet
Validated: 9
EndChar

StartChar: greater
Encoding: 62 62 33
Width: 407
Flags: W
LayerCount: 2
Fore
SplineSet
29 118 m 1,0,-1
 220 360 l 1,1,-1
 29 602 l 1,2,-1
 123 676 l 1,3,-1
 372 360 l 1,4,-1
 123 44 l 1,5,-1
 29 118 l 1,0,-1
EndSplineSet
Validated: 1
EndChar

StartChar: question
Encoding: 63 63 34
Width: 931
Flags: W
LayerCount: 2
Fore
SplineSet
900 510 m 0,0,1
 900 594 900 594 778 655 c 128,-1,2
 656 716 656 716 480 720 c 1,3,-1
 480 600 l 1,4,5
 605 598 605 598 692.5 572 c 128,-1,6
 780 546 780 546 780 510 c 0,7,8
 780 473 780 473 694 447.5 c 128,-1,9
 608 422 608 422 480 420 c 1,10,-1
 480 300 l 1,11,12
 654 302 654 302 777 363.5 c 128,-1,13
 900 425 900 425 900 510 c 0,0,1
134 105 m 0,14,15
 134 61 134 61 164.5 30.5 c 128,-1,16
 195 0 195 0 239 0 c 256,17,18
 283 0 283 0 313.5 31 c 128,-1,19
 344 62 344 62 344 105 c 0,20,21
 344 149 344 149 313.5 179.5 c 128,-1,22
 283 210 283 210 240 210 c 256,23,24
 197 210 197 210 165.5 179 c 128,-1,25
 134 148 134 148 134 105 c 0,14,15
180 630 m 256,26,27
 180 605 180 605 197.5 587.5 c 128,-1,28
 215 570 215 570 240 570 c 256,29,30
 265 570 265 570 282.5 587.5 c 128,-1,31
 300 605 300 605 300 630 c 256,32,33
 300 655 300 655 282.5 672.5 c 128,-1,34
 265 690 265 690 240 690 c 256,35,36
 215 690 215 690 197.5 672.5 c 128,-1,37
 180 655 180 655 180 630 c 256,26,27
30 600 m 256,38,39
 30 575 30 575 47.5 557.5 c 128,-1,40
 65 540 65 540 90 540 c 256,41,42
 115 540 115 540 132.5 557.5 c 128,-1,43
 150 575 150 575 150 600 c 256,44,45
 150 625 150 625 132.5 642.5 c 128,-1,46
 115 660 115 660 90 660 c 256,47,48
 65 660 65 660 47.5 642.5 c 128,-1,49
 30 625 30 625 30 600 c 256,38,39
330 360 m 256,50,51
 330 335 330 335 347.5 317.5 c 128,-1,52
 365 300 365 300 390 300 c 256,53,54
 415 300 415 300 432.5 317.5 c 128,-1,55
 450 335 450 335 450 360 c 256,56,57
 450 385 450 385 432.5 402.5 c 128,-1,58
 415 420 415 420 390 420 c 256,59,60
 365 420 365 420 347.5 402.5 c 128,-1,61
 330 385 330 385 330 360 c 256,50,51
330 660 m 256,62,63
 330 635 330 635 347.5 617.5 c 128,-1,64
 365 600 365 600 390 600 c 256,65,66
 415 600 415 600 432.5 617.5 c 128,-1,67
 450 635 450 635 450 660 c 256,68,69
 450 685 450 685 432.5 702.5 c 128,-1,70
 415 720 415 720 390 720 c 256,71,72
 365 720 365 720 347.5 702.5 c 128,-1,73
 330 685 330 685 330 660 c 256,62,63
187 300 m 256,74,75
 187 275 187 275 204.5 257.5 c 128,-1,76
 222 240 222 240 247 240 c 256,77,78
 272 240 272 240 289.5 257.5 c 128,-1,79
 307 275 307 275 307 300 c 256,80,81
 307 325 307 325 289.5 342.5 c 128,-1,82
 272 360 272 360 247 360 c 256,83,84
 222 360 222 360 204.5 342.5 c 128,-1,85
 187 325 187 325 187 300 c 256,74,75
EndSplineSet
Validated: 9
EndChar

StartChar: at
Encoding: 64 64 35
Width: 500
Flags: W
LayerCount: 2
Fore
SplineSet
478 362 m 1,0,-1
 463 432 l 1,1,-1
 270 359 l 1,2,-1
 428 494 l 1,3,-1
 375 543 l 1,4,-1
 261 369 l 1,5,-1
 309 572 l 1,6,-1
 238 580 l 1,7,-1
 248 373 l 1,8,-1
 168 565 l 1,9,-1
 106 530 l 1,10,-1
 235 368 l 1,11,-1
 57 477 l 1,12,-1
 28 411 l 1,13,-1
 228 357 l 1,14,-1
 20 340 l 1,15,-1
 35 270 l 1,16,-1
 228 343 l 1,17,-1
 70 208 l 1,18,-1
 123 159 l 1,19,-1
 237 333 l 1,20,-1
 189 130 l 1,21,-1
 260 122 l 1,22,-1
 250 329 l 1,23,-1
 330 137 l 1,24,-1
 392 172 l 1,25,-1
 263 334 l 1,26,-1
 441 225 l 1,27,-1
 470 291 l 1,28,-1
 270 345 l 1,29,-1
 478 362 l 1,0,-1
EndSplineSet
Validated: 9
EndChar

StartChar: A
Encoding: 65 65 36
Width: 931
Flags: W
LayerCount: 2
Fore
SplineSet
480 720 m 1,0,-1
 480 600 l 1,1,-1
 495 600 l 1,2,-1
 660 270 l 1,3,-1
 480 270 l 1,4,-1
 480 150 l 1,5,-1
 720 150 l 1,6,-1
 780 30 l 1,7,-1
 780 0 l 1,8,-1
 900 0 l 1,9,-1
 900 90 l 1,10,-1
 600 690 l 1,11,-1
 600 720 l 1,12,-1
 480 720 l 1,0,-1
30 60 m 256,13,14
 30 35 30 35 47.5 17.5 c 128,-1,15
 65 0 65 0 90 0 c 256,16,17
 115 0 115 0 132.5 17.5 c 128,-1,18
 150 35 150 35 150 60 c 256,19,20
 150 85 150 85 132.5 102.5 c 128,-1,21
 115 120 115 120 90 120 c 256,22,23
 65 120 65 120 47.5 102.5 c 128,-1,24
 30 85 30 85 30 60 c 256,13,14
120 510 m 256,25,26
 120 485 120 485 137.5 467.5 c 128,-1,27
 155 450 155 450 180 450 c 256,28,29
 205 450 205 450 222.5 467.5 c 128,-1,30
 240 485 240 485 240 510 c 256,31,32
 240 535 240 535 222.5 552.5 c 128,-1,33
 205 570 205 570 180 570 c 256,34,35
 155 570 155 570 137.5 552.5 c 128,-1,36
 120 535 120 535 120 510 c 256,25,26
60 360 m 256,37,38
 60 335 60 335 77.5 317.5 c 128,-1,39
 95 300 95 300 120 300 c 256,40,41
 145 300 145 300 162.5 317.5 c 128,-1,42
 180 335 180 335 180 360 c 256,43,44
 180 385 180 385 162.5 402.5 c 128,-1,45
 145 420 145 420 120 420 c 256,46,47
 95 420 95 420 77.5 402.5 c 128,-1,48
 60 385 60 385 60 360 c 256,37,38
30 210 m 256,49,50
 30 185 30 185 47.5 167.5 c 128,-1,51
 65 150 65 150 90 150 c 256,52,53
 115 150 115 150 132.5 167.5 c 128,-1,54
 150 185 150 185 150 210 c 256,55,56
 150 235 150 235 132.5 252.5 c 128,-1,57
 115 270 115 270 90 270 c 256,58,59
 65 270 65 270 47.5 252.5 c 128,-1,60
 30 235 30 235 30 210 c 256,49,50
330 660 m 256,61,62
 330 635 330 635 347.5 617.5 c 128,-1,63
 365 600 365 600 390 600 c 256,64,65
 415 600 415 600 432.5 617.5 c 128,-1,66
 450 635 450 635 450 660 c 256,67,68
 450 685 450 685 432.5 702.5 c 128,-1,69
 415 720 415 720 390 720 c 256,70,71
 365 720 365 720 347.5 702.5 c 128,-1,72
 330 685 330 685 330 660 c 256,61,62
330 210 m 256,73,74
 330 185 330 185 347.5 167.5 c 128,-1,75
 365 150 365 150 390 150 c 256,76,77
 415 150 415 150 432.5 167.5 c 128,-1,78
 450 185 450 185 450 210 c 256,79,80
 450 235 450 235 432.5 252.5 c 128,-1,81
 415 270 415 270 390 270 c 256,82,83
 365 270 365 270 347.5 252.5 c 128,-1,84
 330 235 330 235 330 210 c 256,73,74
180 210 m 256,85,86
 180 185 180 185 197.5 167.5 c 128,-1,87
 215 150 215 150 240 150 c 256,88,89
 265 150 265 150 282.5 167.5 c 128,-1,90
 300 185 300 185 300 210 c 256,91,92
 300 235 300 235 282.5 252.5 c 128,-1,93
 265 270 265 270 240 270 c 256,94,95
 215 270 215 270 197.5 252.5 c 128,-1,96
 180 235 180 235 180 210 c 256,85,86
180 660 m 256,97,98
 180 635 180 635 197.5 617.5 c 128,-1,99
 215 600 215 600 240 600 c 256,100,101
 265 600 265 600 282.5 617.5 c 128,-1,102
 300 635 300 635 300 660 c 256,103,104
 300 685 300 685 282.5 702.5 c 128,-1,105
 265 720 265 720 240 720 c 256,106,107
 215 720 215 720 197.5 702.5 c 128,-1,108
 180 685 180 685 180 660 c 256,97,98
EndSplineSet
Validated: 9
EndChar

StartChar: B
Encoding: 66 66 37
Width: 931
Flags: W
LayerCount: 2
Fore
SplineSet
900 210 m 0,0,1
 900 298 900 298 769 360 c 1,2,3
 900 422 900 422 900 510 c 0,4,5
 900 595 900 595 777 657 c 0,6,7
 658 716 658 716 480 720 c 1,8,-1
 480 600 l 1,9,10
 608 598 608 598 694 572.5 c 128,-1,11
 780 547 780 547 780 510 c 0,12,13
 780 474 780 474 692.5 448 c 128,-1,14
 605 422 605 422 480 420 c 1,15,-1
 480 300 l 1,16,17
 605 298 605 298 692.5 272 c 128,-1,18
 780 246 780 246 780 210 c 0,19,20
 780 173 780 173 694 147.5 c 128,-1,21
 608 122 608 122 480 120 c 1,22,-1
 480 0 l 1,23,24
 654 2 654 2 777 63.5 c 128,-1,25
 900 125 900 125 900 210 c 0,0,1
30 360 m 256,26,27
 30 335 30 335 47.5 317.5 c 128,-1,28
 65 300 65 300 90 300 c 256,29,30
 115 300 115 300 132.5 317.5 c 128,-1,31
 150 335 150 335 150 360 c 256,32,33
 150 385 150 385 132.5 402.5 c 128,-1,34
 115 420 115 420 90 420 c 256,35,36
 65 420 65 420 47.5 402.5 c 128,-1,37
 30 385 30 385 30 360 c 256,26,27
30 660 m 256,38,39
 30 635 30 635 47.5 617.5 c 128,-1,40
 65 600 65 600 90 600 c 256,41,42
 115 600 115 600 132.5 617.5 c 128,-1,43
 150 635 150 635 150 660 c 256,44,45
 150 685 150 685 132.5 702.5 c 128,-1,46
 115 720 115 720 90 720 c 256,47,48
 65 720 65 720 47.5 702.5 c 128,-1,49
 30 685 30 685 30 660 c 256,38,39
180 60 m 256,50,51
 180 35 180 35 197.5 17.5 c 128,-1,52
 215 0 215 0 240 0 c 256,53,54
 265 0 265 0 282.5 17.5 c 128,-1,55
 300 35 300 35 300 60 c 256,56,57
 300 85 300 85 282.5 102.5 c 128,-1,58
 265 120 265 120 240 120 c 256,59,60
 215 120 215 120 197.5 102.5 c 128,-1,61
 180 85 180 85 180 60 c 256,50,51
330 60 m 256,62,63
 330 35 330 35 347.5 17.5 c 128,-1,64
 365 0 365 0 390 0 c 256,65,66
 415 0 415 0 432.5 17.5 c 128,-1,67
 450 35 450 35 450 60 c 256,68,69
 450 85 450 85 432.5 102.5 c 128,-1,70
 415 120 415 120 390 120 c 256,71,72
 365 120 365 120 347.5 102.5 c 128,-1,73
 330 85 330 85 330 60 c 256,62,63
30 510 m 256,74,75
 30 485 30 485 47.5 467.5 c 128,-1,76
 65 450 65 450 90 450 c 256,77,78
 115 450 115 450 132.5 467.5 c 128,-1,79
 150 485 150 485 150 510 c 256,80,81
 150 535 150 535 132.5 552.5 c 128,-1,82
 115 570 115 570 90 570 c 256,83,84
 65 570 65 570 47.5 552.5 c 128,-1,85
 30 535 30 535 30 510 c 256,74,75
330 660 m 256,86,87
 330 635 330 635 347.5 617.5 c 128,-1,88
 365 600 365 600 390 600 c 256,89,90
 415 600 415 600 432.5 617.5 c 128,-1,91
 450 635 450 635 450 660 c 256,92,93
 450 685 450 685 432.5 702.5 c 128,-1,94
 415 720 415 720 390 720 c 256,95,96
 365 720 365 720 347.5 702.5 c 128,-1,97
 330 685 330 685 330 660 c 256,86,87
30 60 m 256,98,99
 30 35 30 35 47.5 17.5 c 128,-1,100
 65 0 65 0 90 0 c 256,101,102
 115 0 115 0 132.5 17.5 c 128,-1,103
 150 35 150 35 150 60 c 256,104,105
 150 85 150 85 132.5 102.5 c 128,-1,106
 115 120 115 120 90 120 c 256,107,108
 65 120 65 120 47.5 102.5 c 128,-1,109
 30 85 30 85 30 60 c 256,98,99
180 360 m 256,110,111
 180 335 180 335 197.5 317.5 c 128,-1,112
 215 300 215 300 240 300 c 256,113,114
 265 300 265 300 282.5 317.5 c 128,-1,115
 300 335 300 335 300 360 c 256,116,117
 300 385 300 385 282.5 402.5 c 128,-1,118
 265 420 265 420 240 420 c 256,119,120
 215 420 215 420 197.5 402.5 c 128,-1,121
 180 385 180 385 180 360 c 256,110,111
330 360 m 256,122,123
 330 335 330 335 347.5 317.5 c 128,-1,124
 365 300 365 300 390 300 c 256,125,126
 415 300 415 300 432.5 317.5 c 128,-1,127
 450 335 450 335 450 360 c 256,128,129
 450 385 450 385 432.5 402.5 c 128,-1,130
 415 420 415 420 390 420 c 256,131,132
 365 420 365 420 347.5 402.5 c 128,-1,133
 330 385 330 385 330 360 c 256,122,123
180 660 m 256,134,135
 180 635 180 635 197.5 617.5 c 128,-1,136
 215 600 215 600 240 600 c 256,137,138
 265 600 265 600 282.5 617.5 c 128,-1,139
 300 635 300 635 300 660 c 256,140,141
 300 685 300 685 282.5 702.5 c 128,-1,142
 265 720 265 720 240 720 c 256,143,144
 215 720 215 720 197.5 702.5 c 128,-1,145
 180 685 180 685 180 660 c 256,134,135
30 210 m 256,146,147
 30 185 30 185 47.5 167.5 c 128,-1,148
 65 150 65 150 90 150 c 256,149,150
 115 150 115 150 132.5 167.5 c 128,-1,151
 150 185 150 185 150 210 c 256,152,153
 150 235 150 235 132.5 252.5 c 128,-1,154
 115 270 115 270 90 270 c 256,155,156
 65 270 65 270 47.5 252.5 c 128,-1,157
 30 235 30 235 30 210 c 256,146,147
EndSplineSet
Validated: 9
EndChar

StartChar: C
Encoding: 67 67 38
Width: 931
Flags: W
LayerCount: 2
Fore
SplineSet
480 120 m 1,0,-1
 480 0 l 1,1,2
 589 0 589 0 685 46 c 0,3,4
 786 94 786 94 844 181 c 0,5,6
 881 236 881 236 894 300 c 1,7,-1
 770 300 l 1,8,9
 744 224 744 224 665 174 c 128,-1,10
 586 124 586 124 480 120 c 1,0,-1
480 720 m 1,11,-1
 480 600 l 1,12,13
 642 594 642 594 730 489 c 0,14,15
 757 457 757 457 770 420 c 1,16,-1
 894 420 l 1,17,18
 868 548 868 548 751.5 634 c 128,-1,19
 635 720 635 720 480 720 c 1,11,-1
180 90 m 256,20,21
 180 65 180 65 197.5 47.5 c 128,-1,22
 215 30 215 30 240 30 c 256,23,24
 265 30 265 30 282.5 47.5 c 128,-1,25
 300 65 300 65 300 90 c 256,26,27
 300 115 300 115 282.5 132.5 c 128,-1,28
 265 150 265 150 240 150 c 256,29,30
 215 150 215 150 197.5 132.5 c 128,-1,31
 180 115 180 115 180 90 c 256,20,21
330 660 m 256,32,33
 330 635 330 635 347.5 617.5 c 128,-1,34
 365 600 365 600 390 600 c 256,35,36
 415 600 415 600 432.5 617.5 c 128,-1,37
 450 635 450 635 450 660 c 256,38,39
 450 685 450 685 432.5 702.5 c 128,-1,40
 415 720 415 720 390 720 c 256,41,42
 365 720 365 720 347.5 702.5 c 128,-1,43
 330 685 330 685 330 660 c 256,32,33
330 60 m 256,44,45
 330 35 330 35 347.5 17.5 c 128,-1,46
 365 0 365 0 390 0 c 256,47,48
 415 0 415 0 432.5 17.5 c 128,-1,49
 450 35 450 35 450 60 c 256,50,51
 450 85 450 85 432.5 102.5 c 128,-1,52
 415 120 415 120 390 120 c 256,53,54
 365 120 365 120 347.5 102.5 c 128,-1,55
 330 85 330 85 330 60 c 256,44,45
180 630 m 256,56,57
 180 605 180 605 197.5 587.5 c 128,-1,58
 215 570 215 570 240 570 c 256,59,60
 265 570 265 570 282.5 587.5 c 128,-1,61
 300 605 300 605 300 630 c 256,62,63
 300 655 300 655 282.5 672.5 c 128,-1,64
 265 690 265 690 240 690 c 256,65,66
 215 690 215 690 197.5 672.5 c 128,-1,67
 180 655 180 655 180 630 c 256,56,57
60 210 m 256,68,69
 60 185 60 185 77.5 167.5 c 128,-1,70
 95 150 95 150 120 150 c 256,71,72
 145 150 145 150 162.5 167.5 c 128,-1,73
 180 185 180 185 180 210 c 256,74,75
 180 235 180 235 162.5 252.5 c 128,-1,76
 145 270 145 270 120 270 c 256,77,78
 95 270 95 270 77.5 252.5 c 128,-1,79
 60 235 60 235 60 210 c 256,68,69
60 510 m 256,80,81
 60 485 60 485 77.5 467.5 c 128,-1,82
 95 450 95 450 120 450 c 256,83,84
 145 450 145 450 162.5 467.5 c 128,-1,85
 180 485 180 485 180 510 c 256,86,87
 180 535 180 535 162.5 552.5 c 128,-1,88
 145 570 145 570 120 570 c 256,89,90
 95 570 95 570 77.5 552.5 c 128,-1,91
 60 535 60 535 60 510 c 256,80,81
30 360 m 256,92,93
 30 335 30 335 47.5 317.5 c 128,-1,94
 65 300 65 300 90 300 c 256,95,96
 115 300 115 300 132.5 317.5 c 128,-1,97
 150 335 150 335 150 360 c 256,98,99
 150 385 150 385 132.5 402.5 c 128,-1,100
 115 420 115 420 90 420 c 256,101,102
 65 420 65 420 47.5 402.5 c 128,-1,103
 30 385 30 385 30 360 c 256,92,93
EndSplineSet
Validated: 9
EndChar

StartChar: D
Encoding: 68 68 39
Width: 931
Flags: W
LayerCount: 2
Fore
SplineSet
30 60 m 256,0,1
 30 35 30 35 47.5 17.5 c 128,-1,2
 65 0 65 0 90 0 c 256,3,4
 115 0 115 0 132.5 17.5 c 128,-1,5
 150 35 150 35 150 60 c 256,6,7
 150 85 150 85 132.5 102.5 c 128,-1,8
 115 120 115 120 90 120 c 256,9,10
 65 120 65 120 47.5 102.5 c 128,-1,11
 30 85 30 85 30 60 c 256,0,1
30 210 m 256,12,13
 30 185 30 185 47.5 167.5 c 128,-1,14
 65 150 65 150 90 150 c 256,15,16
 115 150 115 150 132.5 167.5 c 128,-1,17
 150 185 150 185 150 210 c 256,18,19
 150 235 150 235 132.5 252.5 c 128,-1,20
 115 270 115 270 90 270 c 256,21,22
 65 270 65 270 47.5 252.5 c 128,-1,23
 30 235 30 235 30 210 c 256,12,13
30 360 m 256,24,25
 30 335 30 335 47.5 317.5 c 128,-1,26
 65 300 65 300 90 300 c 256,27,28
 115 300 115 300 132.5 317.5 c 128,-1,29
 150 335 150 335 150 360 c 256,30,31
 150 385 150 385 132.5 402.5 c 128,-1,32
 115 420 115 420 90 420 c 256,33,34
 65 420 65 420 47.5 402.5 c 128,-1,35
 30 385 30 385 30 360 c 256,24,25
30 510 m 256,36,37
 30 485 30 485 47.5 467.5 c 128,-1,38
 65 450 65 450 90 450 c 256,39,40
 115 450 115 450 132.5 467.5 c 128,-1,41
 150 485 150 485 150 510 c 256,42,43
 150 535 150 535 132.5 552.5 c 128,-1,44
 115 570 115 570 90 570 c 256,45,46
 65 570 65 570 47.5 552.5 c 128,-1,47
 30 535 30 535 30 510 c 256,36,37
30 660 m 256,48,49
 30 635 30 635 47.5 617.5 c 128,-1,50
 65 600 65 600 90 600 c 256,51,52
 115 600 115 600 132.5 617.5 c 128,-1,53
 150 635 150 635 150 660 c 256,54,55
 150 685 150 685 132.5 702.5 c 128,-1,56
 115 720 115 720 90 720 c 256,57,58
 65 720 65 720 47.5 702.5 c 128,-1,59
 30 685 30 685 30 660 c 256,48,49
180 60 m 256,60,61
 180 35 180 35 197.5 17.5 c 128,-1,62
 215 0 215 0 240 0 c 256,63,64
 265 0 265 0 282.5 17.5 c 128,-1,65
 300 35 300 35 300 60 c 256,66,67
 300 85 300 85 282.5 102.5 c 128,-1,68
 265 120 265 120 240 120 c 256,69,70
 215 120 215 120 197.5 102.5 c 128,-1,71
 180 85 180 85 180 60 c 256,60,61
180 660 m 256,72,73
 180 635 180 635 197.5 617.5 c 128,-1,74
 215 600 215 600 240 600 c 256,75,76
 265 600 265 600 282.5 617.5 c 128,-1,77
 300 635 300 635 300 660 c 256,78,79
 300 685 300 685 282.5 702.5 c 128,-1,80
 265 720 265 720 240 720 c 256,81,82
 215 720 215 720 197.5 702.5 c 128,-1,83
 180 685 180 685 180 660 c 256,72,73
330 60 m 256,84,85
 330 35 330 35 347.5 17.5 c 128,-1,86
 365 0 365 0 390 0 c 256,87,88
 415 0 415 0 432.5 17.5 c 128,-1,89
 450 35 450 35 450 60 c 256,90,91
 450 85 450 85 432.5 102.5 c 128,-1,92
 415 120 415 120 390 120 c 256,93,94
 365 120 365 120 347.5 102.5 c 128,-1,95
 330 85 330 85 330 60 c 256,84,85
330 660 m 256,96,97
 330 635 330 635 347.5 617.5 c 128,-1,98
 365 600 365 600 390 600 c 256,99,100
 415 600 415 600 432.5 617.5 c 128,-1,101
 450 635 450 635 450 660 c 256,102,103
 450 685 450 685 432.5 702.5 c 128,-1,104
 415 720 415 720 390 720 c 256,105,106
 365 720 365 720 347.5 702.5 c 128,-1,107
 330 685 330 685 330 660 c 256,96,97
900 360 m 0,108,109
 900 510 900 510 776.5 615 c 128,-1,110
 653 720 653 720 480 720 c 1,111,-1
 480 600 l 1,112,113
 565 597 565 597 638 560 c 0,114,115
 718 520 718 520 757 451 c 0,116,117
 780 408 780 408 780 360 c 0,118,119
 780 265 780 265 692.5 194.5 c 128,-1,120
 605 124 605 124 480 120 c 1,121,-1
 480 0 l 1,122,123
 601 0 601 0 705 56 c 0,124,125
 815 116 815 116 867 220 c 0,126,127
 900 285 900 285 900 360 c 0,108,109
EndSplineSet
Validated: 9
EndChar

StartChar: E
Encoding: 69 69 40
Width: 931
Flags: W
LayerCount: 2
Fore
SplineSet
480 600 m 1,0,-1
 900 600 l 1,1,-1
 900 720 l 1,2,-1
 480 720 l 1,3,-1
 480 600 l 1,0,-1
480 300 m 1,4,-1
 900 300 l 1,5,-1
 900 420 l 1,6,-1
 480 420 l 1,7,-1
 480 300 l 1,4,-1
480 0 m 1,8,-1
 900 0 l 1,9,-1
 900 120 l 1,10,-1
 480 120 l 1,11,-1
 480 0 l 1,8,-1
30 360 m 256,12,13
 30 335 30 335 47.5 317.5 c 128,-1,14
 65 300 65 300 90 300 c 256,15,16
 115 300 115 300 132.5 317.5 c 128,-1,17
 150 335 150 335 150 360 c 256,18,19
 150 385 150 385 132.5 402.5 c 128,-1,20
 115 420 115 420 90 420 c 256,21,22
 65 420 65 420 47.5 402.5 c 128,-1,23
 30 385 30 385 30 360 c 256,12,13
60 510 m 256,24,25
 60 485 60 485 77.5 467.5 c 128,-1,26
 95 450 95 450 120 450 c 256,27,28
 145 450 145 450 162.5 467.5 c 128,-1,29
 180 485 180 485 180 510 c 256,30,31
 180 535 180 535 162.5 552.5 c 128,-1,32
 145 570 145 570 120 570 c 256,33,34
 95 570 95 570 77.5 552.5 c 128,-1,35
 60 535 60 535 60 510 c 256,24,25
330 360 m 256,36,37
 330 335 330 335 347.5 317.5 c 128,-1,38
 365 300 365 300 390 300 c 256,39,40
 415 300 415 300 432.5 317.5 c 128,-1,41
 450 335 450 335 450 360 c 256,42,43
 450 385 450 385 432.5 402.5 c 128,-1,44
 415 420 415 420 390 420 c 256,45,46
 365 420 365 420 347.5 402.5 c 128,-1,47
 330 385 330 385 330 360 c 256,36,37
180 90 m 256,48,49
 180 65 180 65 197.5 47.5 c 128,-1,50
 215 30 215 30 240 30 c 256,51,52
 265 30 265 30 282.5 47.5 c 128,-1,53
 300 65 300 65 300 90 c 256,54,55
 300 115 300 115 282.5 132.5 c 128,-1,56
 265 150 265 150 240 150 c 256,57,58
 215 150 215 150 197.5 132.5 c 128,-1,59
 180 115 180 115 180 90 c 256,48,49
60 210 m 256,60,61
 60 185 60 185 77.5 167.5 c 128,-1,62
 95 150 95 150 120 150 c 256,63,64
 145 150 145 150 162.5 167.5 c 128,-1,65
 180 185 180 185 180 210 c 256,66,67
 180 235 180 235 162.5 252.5 c 128,-1,68
 145 270 145 270 120 270 c 256,69,70
 95 270 95 270 77.5 252.5 c 128,-1,71
 60 235 60 235 60 210 c 256,60,61
330 60 m 256,72,73
 330 35 330 35 347.5 17.5 c 128,-1,74
 365 0 365 0 390 0 c 256,75,76
 415 0 415 0 432.5 17.5 c 128,-1,77
 450 35 450 35 450 60 c 256,78,79
 450 85 450 85 432.5 102.5 c 128,-1,80
 415 120 415 120 390 120 c 256,81,82
 365 120 365 120 347.5 102.5 c 128,-1,83
 330 85 330 85 330 60 c 256,72,73
330 660 m 256,84,85
 330 635 330 635 347.5 617.5 c 128,-1,86
 365 600 365 600 390 600 c 256,87,88
 415 600 415 600 432.5 617.5 c 128,-1,89
 450 635 450 635 450 660 c 256,90,91
 450 685 450 685 432.5 702.5 c 128,-1,92
 415 720 415 720 390 720 c 256,93,94
 365 720 365 720 347.5 702.5 c 128,-1,95
 330 685 330 685 330 660 c 256,84,85
180 360 m 256,96,97
 180 335 180 335 197.5 317.5 c 128,-1,98
 215 300 215 300 240 300 c 256,99,100
 265 300 265 300 282.5 317.5 c 128,-1,101
 300 335 300 335 300 360 c 256,102,103
 300 385 300 385 282.5 402.5 c 128,-1,104
 265 420 265 420 240 420 c 256,105,106
 215 420 215 420 197.5 402.5 c 128,-1,107
 180 385 180 385 180 360 c 256,96,97
180 630 m 256,108,109
 180 605 180 605 197.5 587.5 c 128,-1,110
 215 570 215 570 240 570 c 256,111,112
 265 570 265 570 282.5 587.5 c 128,-1,113
 300 605 300 605 300 630 c 256,114,115
 300 655 300 655 282.5 672.5 c 128,-1,116
 265 690 265 690 240 690 c 256,117,118
 215 690 215 690 197.5 672.5 c 128,-1,119
 180 655 180 655 180 630 c 256,108,109
EndSplineSet
Validated: 9
EndChar

StartChar: F
Encoding: 70 70 41
Width: 931
Flags: W
LayerCount: 2
Fore
SplineSet
480 600 m 1,0,-1
 900 600 l 1,1,-1
 900 720 l 1,2,-1
 480 720 l 1,3,-1
 480 600 l 1,0,-1
480 300 m 1,4,-1
 900 300 l 1,5,-1
 900 420 l 1,6,-1
 480 420 l 1,7,-1
 480 300 l 1,4,-1
30 60 m 256,8,9
 30 35 30 35 47.5 17.5 c 128,-1,10
 65 0 65 0 90 0 c 256,11,12
 115 0 115 0 132.5 17.5 c 128,-1,13
 150 35 150 35 150 60 c 256,14,15
 150 85 150 85 132.5 102.5 c 128,-1,16
 115 120 115 120 90 120 c 256,17,18
 65 120 65 120 47.5 102.5 c 128,-1,19
 30 85 30 85 30 60 c 256,8,9
30 360 m 256,20,21
 30 335 30 335 47.5 317.5 c 128,-1,22
 65 300 65 300 90 300 c 256,23,24
 115 300 115 300 132.5 317.5 c 128,-1,25
 150 335 150 335 150 360 c 256,26,27
 150 385 150 385 132.5 402.5 c 128,-1,28
 115 420 115 420 90 420 c 256,29,30
 65 420 65 420 47.5 402.5 c 128,-1,31
 30 385 30 385 30 360 c 256,20,21
30 510 m 256,32,33
 30 485 30 485 47.5 467.5 c 128,-1,34
 65 450 65 450 90 450 c 256,35,36
 115 450 115 450 132.5 467.5 c 128,-1,37
 150 485 150 485 150 510 c 256,38,39
 150 535 150 535 132.5 552.5 c 128,-1,40
 115 570 115 570 90 570 c 256,41,42
 65 570 65 570 47.5 552.5 c 128,-1,43
 30 535 30 535 30 510 c 256,32,33
330 360 m 256,44,45
 330 335 330 335 347.5 317.5 c 128,-1,46
 365 300 365 300 390 300 c 256,47,48
 415 300 415 300 432.5 317.5 c 128,-1,49
 450 335 450 335 450 360 c 256,50,51
 450 385 450 385 432.5 402.5 c 128,-1,52
 415 420 415 420 390 420 c 256,53,54
 365 420 365 420 347.5 402.5 c 128,-1,55
 330 385 330 385 330 360 c 256,44,45
30 210 m 256,56,57
 30 185 30 185 47.5 167.5 c 128,-1,58
 65 150 65 150 90 150 c 256,59,60
 115 150 115 150 132.5 167.5 c 128,-1,61
 150 185 150 185 150 210 c 256,62,63
 150 235 150 235 132.5 252.5 c 128,-1,64
 115 270 115 270 90 270 c 256,65,66
 65 270 65 270 47.5 252.5 c 128,-1,67
 30 235 30 235 30 210 c 256,56,57
330 660 m 256,68,69
 330 635 330 635 347.5 617.5 c 128,-1,70
 365 600 365 600 390 600 c 256,71,72
 415 600 415 600 432.5 617.5 c 128,-1,73
 450 635 450 635 450 660 c 256,74,75
 450 685 450 685 432.5 702.5 c 128,-1,76
 415 720 415 720 390 720 c 256,77,78
 365 720 365 720 347.5 702.5 c 128,-1,79
 330 685 330 685 330 660 c 256,68,69
180 360 m 256,80,81
 180 335 180 335 197.5 317.5 c 128,-1,82
 215 300 215 300 240 300 c 256,83,84
 265 300 265 300 282.5 317.5 c 128,-1,85
 300 335 300 335 300 360 c 256,86,87
 300 385 300 385 282.5 402.5 c 128,-1,88
 265 420 265 420 240 420 c 256,89,90
 215 420 215 420 197.5 402.5 c 128,-1,91
 180 385 180 385 180 360 c 256,80,81
180 660 m 256,92,93
 180 635 180 635 197.5 617.5 c 128,-1,94
 215 600 215 600 240 600 c 256,95,96
 265 600 265 600 282.5 617.5 c 128,-1,97
 300 635 300 635 300 660 c 256,98,99
 300 685 300 685 282.5 702.5 c 128,-1,100
 265 720 265 720 240 720 c 256,101,102
 215 720 215 720 197.5 702.5 c 128,-1,103
 180 685 180 685 180 660 c 256,92,93
30 660 m 256,104,105
 30 635 30 635 47.5 617.5 c 128,-1,106
 65 600 65 600 90 600 c 256,107,108
 115 600 115 600 132.5 617.5 c 128,-1,109
 150 635 150 635 150 660 c 256,110,111
 150 685 150 685 132.5 702.5 c 128,-1,112
 115 720 115 720 90 720 c 256,113,114
 65 720 65 720 47.5 702.5 c 128,-1,115
 30 685 30 685 30 660 c 256,104,105
EndSplineSet
Validated: 9
EndChar

StartChar: G
Encoding: 71 71 42
Width: 931
Flags: W
LayerCount: 2
Fore
SplineSet
480 300 m 1,0,-1
 770 300 l 1,1,2
 744 224 744 224 665 174 c 128,-1,3
 586 124 586 124 480 120 c 1,4,-1
 480 0 l 1,5,6
 601 0 601 0 705 56 c 0,7,8
 815 116 815 116 867 220 c 0,9,10
 900 285 900 285 900 360 c 2,11,-1
 900 420 l 1,12,-1
 480 420 l 1,13,-1
 480 300 l 1,0,-1
480 600 m 1,14,-1
 780 600 l 1,15,-1
 780 720 l 1,16,-1
 480 720 l 1,17,-1
 480 600 l 1,14,-1
30 360 m 256,18,19
 30 335 30 335 47.5 317.5 c 128,-1,20
 65 300 65 300 90 300 c 256,21,22
 115 300 115 300 132.5 317.5 c 128,-1,23
 150 335 150 335 150 360 c 256,24,25
 150 385 150 385 132.5 402.5 c 128,-1,26
 115 420 115 420 90 420 c 256,27,28
 65 420 65 420 47.5 402.5 c 128,-1,29
 30 385 30 385 30 360 c 256,18,19
330 660 m 256,30,31
 330 635 330 635 347.5 617.5 c 128,-1,32
 365 600 365 600 390 600 c 256,33,34
 415 600 415 600 432.5 617.5 c 128,-1,35
 450 635 450 635 450 660 c 256,36,37
 450 685 450 685 432.5 702.5 c 128,-1,38
 415 720 415 720 390 720 c 256,39,40
 365 720 365 720 347.5 702.5 c 128,-1,41
 330 685 330 685 330 660 c 256,30,31
180 90 m 256,42,43
 180 65 180 65 197.5 47.5 c 128,-1,44
 215 30 215 30 240 30 c 256,45,46
 265 30 265 30 282.5 47.5 c 128,-1,47
 300 65 300 65 300 90 c 256,48,49
 300 115 300 115 282.5 132.5 c 128,-1,50
 265 150 265 150 240 150 c 256,51,52
 215 150 215 150 197.5 132.5 c 128,-1,53
 180 115 180 115 180 90 c 256,42,43
180 630 m 256,54,55
 180 605 180 605 197.5 587.5 c 128,-1,56
 215 570 215 570 240 570 c 256,57,58
 265 570 265 570 282.5 587.5 c 128,-1,59
 300 605 300 605 300 630 c 256,60,61
 300 655 300 655 282.5 672.5 c 128,-1,62
 265 690 265 690 240 690 c 256,63,64
 215 690 215 690 197.5 672.5 c 128,-1,65
 180 655 180 655 180 630 c 256,54,55
330 60 m 256,66,67
 330 35 330 35 347.5 17.5 c 128,-1,68
 365 0 365 0 390 0 c 256,69,70
 415 0 415 0 432.5 17.5 c 128,-1,71
 450 35 450 35 450 60 c 256,72,73
 450 85 450 85 432.5 102.5 c 128,-1,74
 415 120 415 120 390 120 c 256,75,76
 365 120 365 120 347.5 102.5 c 128,-1,77
 330 85 330 85 330 60 c 256,66,67
60 210 m 256,78,79
 60 185 60 185 77.5 167.5 c 128,-1,80
 95 150 95 150 120 150 c 256,81,82
 145 150 145 150 162.5 167.5 c 128,-1,83
 180 185 180 185 180 210 c 256,84,85
 180 235 180 235 162.5 252.5 c 128,-1,86
 145 270 145 270 120 270 c 256,87,88
 95 270 95 270 77.5 252.5 c 128,-1,89
 60 235 60 235 60 210 c 256,78,79
60 510 m 256,90,91
 60 485 60 485 77.5 467.5 c 128,-1,92
 95 450 95 450 120 450 c 256,93,94
 145 450 145 450 162.5 467.5 c 128,-1,95
 180 485 180 485 180 510 c 256,96,97
 180 535 180 535 162.5 552.5 c 128,-1,98
 145 570 145 570 120 570 c 256,99,100
 95 570 95 570 77.5 552.5 c 128,-1,101
 60 535 60 535 60 510 c 256,90,91
EndSplineSet
Validated: 9
EndChar

StartChar: H
Encoding: 72 72 43
Width: 931
Flags: W
LayerCount: 2
Fore
SplineSet
480 150 m 1,0,-1
 780 150 l 1,1,-1
 780 0 l 1,2,-1
 900 0 l 1,3,-1
 900 720 l 1,4,-1
 780 720 l 1,5,-1
 780 270 l 1,6,-1
 480 270 l 1,7,-1
 480 150 l 1,0,-1
330 210 m 256,8,9
 330 185 330 185 347.5 167.5 c 128,-1,10
 365 150 365 150 390 150 c 256,11,12
 415 150 415 150 432.5 167.5 c 128,-1,13
 450 185 450 185 450 210 c 256,14,15
 450 235 450 235 432.5 252.5 c 128,-1,16
 415 270 415 270 390 270 c 256,17,18
 365 270 365 270 347.5 252.5 c 128,-1,19
 330 235 330 235 330 210 c 256,8,9
30 210 m 256,20,21
 30 185 30 185 47.5 167.5 c 128,-1,22
 65 150 65 150 90 150 c 256,23,24
 115 150 115 150 132.5 167.5 c 128,-1,25
 150 185 150 185 150 210 c 256,26,27
 150 235 150 235 132.5 252.5 c 128,-1,28
 115 270 115 270 90 270 c 256,29,30
 65 270 65 270 47.5 252.5 c 128,-1,31
 30 235 30 235 30 210 c 256,20,21
30 510 m 256,32,33
 30 485 30 485 47.5 467.5 c 128,-1,34
 65 450 65 450 90 450 c 256,35,36
 115 450 115 450 132.5 467.5 c 128,-1,37
 150 485 150 485 150 510 c 256,38,39
 150 535 150 535 132.5 552.5 c 128,-1,40
 115 570 115 570 90 570 c 256,41,42
 65 570 65 570 47.5 552.5 c 128,-1,43
 30 535 30 535 30 510 c 256,32,33
30 660 m 256,44,45
 30 635 30 635 47.5 617.5 c 128,-1,46
 65 600 65 600 90 600 c 256,47,48
 115 600 115 600 132.5 617.5 c 128,-1,49
 150 635 150 635 150 660 c 256,50,51
 150 685 150 685 132.5 702.5 c 128,-1,52
 115 720 115 720 90 720 c 256,53,54
 65 720 65 720 47.5 702.5 c 128,-1,55
 30 685 30 685 30 660 c 256,44,45
30 60 m 256,56,57
 30 35 30 35 47.5 17.5 c 128,-1,58
 65 0 65 0 90 0 c 256,59,60
 115 0 115 0 132.5 17.5 c 128,-1,61
 150 35 150 35 150 60 c 256,62,63
 150 85 150 85 132.5 102.5 c 128,-1,64
 115 120 115 120 90 120 c 256,65,66
 65 120 65 120 47.5 102.5 c 128,-1,67
 30 85 30 85 30 60 c 256,56,57
180 210 m 256,68,69
 180 185 180 185 197.5 167.5 c 128,-1,70
 215 150 215 150 240 150 c 256,71,72
 265 150 265 150 282.5 167.5 c 128,-1,73
 300 185 300 185 300 210 c 256,74,75
 300 235 300 235 282.5 252.5 c 128,-1,76
 265 270 265 270 240 270 c 256,77,78
 215 270 215 270 197.5 252.5 c 128,-1,79
 180 235 180 235 180 210 c 256,68,69
30 360 m 256,80,81
 30 335 30 335 47.5 317.5 c 128,-1,82
 65 300 65 300 90 300 c 256,83,84
 115 300 115 300 132.5 317.5 c 128,-1,85
 150 335 150 335 150 360 c 256,86,87
 150 385 150 385 132.5 402.5 c 128,-1,88
 115 420 115 420 90 420 c 256,89,90
 65 420 65 420 47.5 402.5 c 128,-1,91
 30 385 30 385 30 360 c 256,80,81
EndSplineSet
Validated: 9
EndChar

StartChar: I
Encoding: 73 73 44
Width: 450
Flags: W
LayerCount: 2
Fore
SplineSet
180 0 m 1,0,-1
 420 0 l 1,1,-1
 420 120 l 1,2,-1
 300 120 l 1,3,-1
 300 600 l 1,4,-1
 420 600 l 1,5,-1
 420 720 l 1,6,-1
 180 720 l 1,7,-1
 180 0 l 1,0,-1
30 660 m 256,8,9
 30 635 30 635 47.5 617.5 c 128,-1,10
 65 600 65 600 90 600 c 256,11,12
 115 600 115 600 132.5 617.5 c 128,-1,13
 150 635 150 635 150 660 c 256,14,15
 150 685 150 685 132.5 702.5 c 128,-1,16
 115 720 115 720 90 720 c 256,17,18
 65 720 65 720 47.5 702.5 c 128,-1,19
 30 685 30 685 30 660 c 256,8,9
30 60 m 256,20,21
 30 35 30 35 47.5 17.5 c 128,-1,22
 65 0 65 0 90 0 c 256,23,24
 115 0 115 0 132.5 17.5 c 128,-1,25
 150 35 150 35 150 60 c 256,26,27
 150 85 150 85 132.5 102.5 c 128,-1,28
 115 120 115 120 90 120 c 256,29,30
 65 120 65 120 47.5 102.5 c 128,-1,31
 30 85 30 85 30 60 c 256,20,21
EndSplineSet
Validated: 9
EndChar

StartChar: J
Encoding: 74 74 45
Width: 931
Flags: W
LayerCount: 2
Fore
SplineSet
630 600 m 1,0,-1
 780 600 l 1,1,-1
 780 360 l 2,2,3
 780 265 780 265 692.5 194.5 c 128,-1,4
 605 124 605 124 480 120 c 1,5,-1
 480 0 l 1,6,7
 601 0 601 0 705 56 c 0,8,9
 815 116 815 116 867 220 c 0,10,11
 900 285 900 285 900 360 c 2,12,-1
 900 720 l 1,13,-1
 630 720 l 1,14,-1
 630 600 l 1,0,-1
330 60 m 256,15,16
 330 35 330 35 347.5 17.5 c 128,-1,17
 365 0 365 0 390 0 c 256,18,19
 415 0 415 0 432.5 17.5 c 128,-1,20
 450 35 450 35 450 60 c 256,21,22
 450 85 450 85 432.5 102.5 c 128,-1,23
 415 120 415 120 390 120 c 256,24,25
 365 120 365 120 347.5 102.5 c 128,-1,26
 330 85 330 85 330 60 c 256,15,16
90 210 m 256,27,28
 90 185 90 185 107.5 167.5 c 128,-1,29
 125 150 125 150 150 150 c 256,30,31
 175 150 175 150 192.5 167.5 c 128,-1,32
 210 185 210 185 210 210 c 256,33,34
 210 235 210 235 192.5 252.5 c 128,-1,35
 175 270 175 270 150 270 c 256,36,37
 125 270 125 270 107.5 252.5 c 128,-1,38
 90 235 90 235 90 210 c 256,27,28
180 90 m 256,39,40
 180 65 180 65 197.5 47.5 c 128,-1,41
 215 30 215 30 240 30 c 256,42,43
 265 30 265 30 282.5 47.5 c 128,-1,44
 300 65 300 65 300 90 c 256,45,46
 300 115 300 115 282.5 132.5 c 128,-1,47
 265 150 265 150 240 150 c 256,48,49
 215 150 215 150 197.5 132.5 c 128,-1,50
 180 115 180 115 180 90 c 256,39,40
EndSplineSet
Validated: 9
EndChar

StartChar: K
Encoding: 75 75 46
Width: 931
Flags: W
LayerCount: 2
Fore
SplineSet
600 343 m 1,0,-1
 600 377 l 1,1,-1
 900 640 l 1,2,-1
 900 720 l 1,3,-1
 808 720 l 1,4,-1
 480 432 l 1,5,-1
 480 288 l 1,6,-1
 808 0 l 1,7,-1
 900 0 l 1,8,-1
 900 80 l 1,9,-1
 600 343 l 1,0,-1
30 360 m 256,10,11
 30 335 30 335 47.5 317.5 c 128,-1,12
 65 300 65 300 90 300 c 256,13,14
 115 300 115 300 132.5 317.5 c 128,-1,15
 150 335 150 335 150 360 c 256,16,17
 150 385 150 385 132.5 402.5 c 128,-1,18
 115 420 115 420 90 420 c 256,19,20
 65 420 65 420 47.5 402.5 c 128,-1,21
 30 385 30 385 30 360 c 256,10,11
30 510 m 256,22,23
 30 485 30 485 47.5 467.5 c 128,-1,24
 65 450 65 450 90 450 c 256,25,26
 115 450 115 450 132.5 467.5 c 128,-1,27
 150 485 150 485 150 510 c 256,28,29
 150 535 150 535 132.5 552.5 c 128,-1,30
 115 570 115 570 90 570 c 256,31,32
 65 570 65 570 47.5 552.5 c 128,-1,33
 30 535 30 535 30 510 c 256,22,23
30 660 m 256,34,35
 30 635 30 635 47.5 617.5 c 128,-1,36
 65 600 65 600 90 600 c 256,37,38
 115 600 115 600 132.5 617.5 c 128,-1,39
 150 635 150 635 150 660 c 256,40,41
 150 685 150 685 132.5 702.5 c 128,-1,42
 115 720 115 720 90 720 c 256,43,44
 65 720 65 720 47.5 702.5 c 128,-1,45
 30 685 30 685 30 660 c 256,34,35
30 60 m 256,46,47
 30 35 30 35 47.5 17.5 c 128,-1,48
 65 0 65 0 90 0 c 256,49,50
 115 0 115 0 132.5 17.5 c 128,-1,51
 150 35 150 35 150 60 c 256,52,53
 150 85 150 85 132.5 102.5 c 128,-1,54
 115 120 115 120 90 120 c 256,55,56
 65 120 65 120 47.5 102.5 c 128,-1,57
 30 85 30 85 30 60 c 256,46,47
30 210 m 256,58,59
 30 185 30 185 47.5 167.5 c 128,-1,60
 65 150 65 150 90 150 c 256,61,62
 115 150 115 150 132.5 167.5 c 128,-1,63
 150 185 150 185 150 210 c 256,64,65
 150 235 150 235 132.5 252.5 c 128,-1,66
 115 270 115 270 90 270 c 256,67,68
 65 270 65 270 47.5 252.5 c 128,-1,69
 30 235 30 235 30 210 c 256,58,59
180 360 m 256,70,71
 180 335 180 335 197.5 317.5 c 128,-1,72
 215 300 215 300 240 300 c 256,73,74
 265 300 265 300 282.5 317.5 c 128,-1,75
 300 335 300 335 300 360 c 256,76,77
 300 385 300 385 282.5 402.5 c 128,-1,78
 265 420 265 420 240 420 c 256,79,80
 215 420 215 420 197.5 402.5 c 128,-1,81
 180 385 180 385 180 360 c 256,70,71
330 360 m 256,82,83
 330 335 330 335 347.5 317.5 c 128,-1,84
 365 300 365 300 390 300 c 256,85,86
 415 300 415 300 432.5 317.5 c 128,-1,87
 450 335 450 335 450 360 c 256,88,89
 450 385 450 385 432.5 402.5 c 128,-1,90
 415 420 415 420 390 420 c 256,91,92
 365 420 365 420 347.5 402.5 c 128,-1,93
 330 385 330 385 330 360 c 256,82,83
EndSplineSet
Validated: 9
EndChar

StartChar: L
Encoding: 76 76 47
Width: 931
Flags: W
LayerCount: 2
Fore
SplineSet
30 210 m 256,0,1
 30 185 30 185 47.5 167.5 c 128,-1,2
 65 150 65 150 90 150 c 256,3,4
 115 150 115 150 132.5 167.5 c 128,-1,5
 150 185 150 185 150 210 c 256,6,7
 150 235 150 235 132.5 252.5 c 128,-1,8
 115 270 115 270 90 270 c 256,9,10
 65 270 65 270 47.5 252.5 c 128,-1,11
 30 235 30 235 30 210 c 256,0,1
30 510 m 256,12,13
 30 485 30 485 47.5 467.5 c 128,-1,14
 65 450 65 450 90 450 c 256,15,16
 115 450 115 450 132.5 467.5 c 128,-1,17
 150 485 150 485 150 510 c 256,18,19
 150 535 150 535 132.5 552.5 c 128,-1,20
 115 570 115 570 90 570 c 256,21,22
 65 570 65 570 47.5 552.5 c 128,-1,23
 30 535 30 535 30 510 c 256,12,13
30 660 m 256,24,25
 30 635 30 635 47.5 617.5 c 128,-1,26
 65 600 65 600 90 600 c 256,27,28
 115 600 115 600 132.5 617.5 c 128,-1,29
 150 635 150 635 150 660 c 256,30,31
 150 685 150 685 132.5 702.5 c 128,-1,32
 115 720 115 720 90 720 c 256,33,34
 65 720 65 720 47.5 702.5 c 128,-1,35
 30 685 30 685 30 660 c 256,24,25
30 360 m 256,36,37
 30 335 30 335 47.5 317.5 c 128,-1,38
 65 300 65 300 90 300 c 256,39,40
 115 300 115 300 132.5 317.5 c 128,-1,41
 150 335 150 335 150 360 c 256,42,43
 150 385 150 385 132.5 402.5 c 128,-1,44
 115 420 115 420 90 420 c 256,45,46
 65 420 65 420 47.5 402.5 c 128,-1,47
 30 385 30 385 30 360 c 256,36,37
480 0 m 1,48,-1
 900 0 l 1,49,-1
 900 120 l 1,50,-1
 480 120 l 1,51,-1
 480 0 l 1,48,-1
330 60 m 256,52,53
 330 35 330 35 347.5 17.5 c 128,-1,54
 365 0 365 0 390 0 c 256,55,56
 415 0 415 0 432.5 17.5 c 128,-1,57
 450 35 450 35 450 60 c 256,58,59
 450 85 450 85 432.5 102.5 c 128,-1,60
 415 120 415 120 390 120 c 256,61,62
 365 120 365 120 347.5 102.5 c 128,-1,63
 330 85 330 85 330 60 c 256,52,53
30 60 m 256,64,65
 30 35 30 35 47.5 17.5 c 128,-1,66
 65 0 65 0 90 0 c 256,67,68
 115 0 115 0 132.5 17.5 c 128,-1,69
 150 35 150 35 150 60 c 256,70,71
 150 85 150 85 132.5 102.5 c 128,-1,72
 115 120 115 120 90 120 c 256,73,74
 65 120 65 120 47.5 102.5 c 128,-1,75
 30 85 30 85 30 60 c 256,64,65
180 60 m 256,76,77
 180 35 180 35 197.5 17.5 c 128,-1,78
 215 0 215 0 240 0 c 256,79,80
 265 0 265 0 282.5 17.5 c 128,-1,81
 300 35 300 35 300 60 c 256,82,83
 300 85 300 85 282.5 102.5 c 128,-1,84
 265 120 265 120 240 120 c 256,85,86
 215 120 215 120 197.5 102.5 c 128,-1,87
 180 85 180 85 180 60 c 256,76,77
EndSplineSet
Validated: 9
EndChar

StartChar: M
Encoding: 77 77 48
Width: 931
Flags: W
LayerCount: 2
Fore
SplineSet
780 0 m 1,0,-1
 900 0 l 1,1,-1
 900 720 l 1,2,-1
 808 720 l 1,3,-1
 480 432 l 1,4,-1
 480 300 l 1,5,-1
 600 300 l 1,6,-1
 600 377 l 1,7,-1
 780 535 l 1,8,-1
 780 0 l 1,0,-1
240 510 m 256,9,10
 240 485 240 485 257.5 467.5 c 128,-1,11
 275 450 275 450 300 450 c 256,12,13
 325 450 325 450 342.5 467.5 c 128,-1,14
 360 485 360 485 360 510 c 256,15,16
 360 535 360 535 342.5 552.5 c 128,-1,17
 325 570 325 570 300 570 c 256,18,19
 275 570 275 570 257.5 552.5 c 128,-1,20
 240 535 240 535 240 510 c 256,9,10
30 210 m 256,21,22
 30 185 30 185 47.5 167.5 c 128,-1,23
 65 150 65 150 90 150 c 256,24,25
 115 150 115 150 132.5 167.5 c 128,-1,26
 150 185 150 185 150 210 c 256,27,28
 150 235 150 235 132.5 252.5 c 128,-1,29
 115 270 115 270 90 270 c 256,30,31
 65 270 65 270 47.5 252.5 c 128,-1,32
 30 235 30 235 30 210 c 256,21,22
330 360 m 256,33,34
 330 335 330 335 347.5 317.5 c 128,-1,35
 365 300 365 300 390 300 c 256,36,37
 415 300 415 300 432.5 317.5 c 128,-1,38
 450 335 450 335 450 360 c 256,39,40
 450 385 450 385 432.5 402.5 c 128,-1,41
 415 420 415 420 390 420 c 256,42,43
 365 420 365 420 347.5 402.5 c 128,-1,44
 330 385 330 385 330 360 c 256,33,34
30 660 m 256,45,46
 30 635 30 635 47.5 617.5 c 128,-1,47
 65 600 65 600 90 600 c 256,48,49
 115 600 115 600 132.5 617.5 c 128,-1,50
 150 635 150 635 150 660 c 256,51,52
 150 685 150 685 132.5 702.5 c 128,-1,53
 115 720 115 720 90 720 c 256,54,55
 65 720 65 720 47.5 702.5 c 128,-1,56
 30 685 30 685 30 660 c 256,45,46
30 60 m 256,57,58
 30 35 30 35 47.5 17.5 c 128,-1,59
 65 0 65 0 90 0 c 256,60,61
 115 0 115 0 132.5 17.5 c 128,-1,62
 150 35 150 35 150 60 c 256,63,64
 150 85 150 85 132.5 102.5 c 128,-1,65
 115 120 115 120 90 120 c 256,66,67
 65 120 65 120 47.5 102.5 c 128,-1,68
 30 85 30 85 30 60 c 256,57,58
30 360 m 256,69,70
 30 335 30 335 47.5 317.5 c 128,-1,71
 65 300 65 300 90 300 c 256,72,73
 115 300 115 300 132.5 317.5 c 128,-1,74
 150 335 150 335 150 360 c 256,75,76
 150 385 150 385 132.5 402.5 c 128,-1,77
 115 420 115 420 90 420 c 256,78,79
 65 420 65 420 47.5 402.5 c 128,-1,80
 30 385 30 385 30 360 c 256,69,70
30 510 m 256,81,82
 30 485 30 485 47.5 467.5 c 128,-1,83
 65 450 65 450 90 450 c 256,84,85
 115 450 115 450 132.5 467.5 c 128,-1,86
 150 485 150 485 150 510 c 256,87,88
 150 535 150 535 132.5 552.5 c 128,-1,89
 115 570 115 570 90 570 c 256,90,91
 65 570 65 570 47.5 552.5 c 128,-1,92
 30 535 30 535 30 510 c 256,81,82
180 660 m 256,93,94
 180 635 180 635 197.5 617.5 c 128,-1,95
 215 600 215 600 240 600 c 256,96,97
 265 600 265 600 282.5 617.5 c 128,-1,98
 300 635 300 635 300 660 c 256,99,100
 300 685 300 685 282.5 702.5 c 128,-1,101
 265 720 265 720 240 720 c 256,102,103
 215 720 215 720 197.5 702.5 c 128,-1,104
 180 685 180 685 180 660 c 256,93,94
EndSplineSet
Validated: 9
EndChar

StartChar: N
Encoding: 78 78 49
Width: 931
Flags: W
LayerCount: 2
Fore
SplineSet
780 0 m 1,0,-1
 900 0 l 1,1,-1
 900 720 l 1,2,-1
 780 720 l 1,3,-1
 780 612 l 1,4,5
 657 720 657 720 480 720 c 1,6,-1
 480 600 l 1,7,8
 565 597 565 597 638 560 c 0,9,10
 718 520 718 520 757 451 c 0,11,12
 780 408 780 408 780 360 c 2,13,-1
 780 0 l 1,0,-1
180 630 m 256,14,15
 180 605 180 605 197.5 587.5 c 128,-1,16
 215 570 215 570 240 570 c 256,17,18
 265 570 265 570 282.5 587.5 c 128,-1,19
 300 605 300 605 300 630 c 256,20,21
 300 655 300 655 282.5 672.5 c 128,-1,22
 265 690 265 690 240 690 c 256,23,24
 215 690 215 690 197.5 672.5 c 128,-1,25
 180 655 180 655 180 630 c 256,14,15
330 660 m 256,26,27
 330 635 330 635 347.5 617.5 c 128,-1,28
 365 600 365 600 390 600 c 256,29,30
 415 600 415 600 432.5 617.5 c 128,-1,31
 450 635 450 635 450 660 c 256,32,33
 450 685 450 685 432.5 702.5 c 128,-1,34
 415 720 415 720 390 720 c 256,35,36
 365 720 365 720 347.5 702.5 c 128,-1,37
 330 685 330 685 330 660 c 256,26,27
30 210 m 256,38,39
 30 185 30 185 47.5 167.5 c 128,-1,40
 65 150 65 150 90 150 c 256,41,42
 115 150 115 150 132.5 167.5 c 128,-1,43
 150 185 150 185 150 210 c 256,44,45
 150 235 150 235 132.5 252.5 c 128,-1,46
 115 270 115 270 90 270 c 256,47,48
 65 270 65 270 47.5 252.5 c 128,-1,49
 30 235 30 235 30 210 c 256,38,39
60 510 m 256,50,51
 60 485 60 485 77.5 467.5 c 128,-1,52
 95 450 95 450 120 450 c 256,53,54
 145 450 145 450 162.5 467.5 c 128,-1,55
 180 485 180 485 180 510 c 256,56,57
 180 535 180 535 162.5 552.5 c 128,-1,58
 145 570 145 570 120 570 c 256,59,60
 95 570 95 570 77.5 552.5 c 128,-1,61
 60 535 60 535 60 510 c 256,50,51
30 360 m 256,62,63
 30 335 30 335 47.5 317.5 c 128,-1,64
 65 300 65 300 90 300 c 256,65,66
 115 300 115 300 132.5 317.5 c 128,-1,67
 150 335 150 335 150 360 c 256,68,69
 150 385 150 385 132.5 402.5 c 128,-1,70
 115 420 115 420 90 420 c 256,71,72
 65 420 65 420 47.5 402.5 c 128,-1,73
 30 385 30 385 30 360 c 256,62,63
30 60 m 256,74,75
 30 35 30 35 47.5 17.5 c 128,-1,76
 65 0 65 0 90 0 c 256,77,78
 115 0 115 0 132.5 17.5 c 128,-1,79
 150 35 150 35 150 60 c 256,80,81
 150 85 150 85 132.5 102.5 c 128,-1,82
 115 120 115 120 90 120 c 256,83,84
 65 120 65 120 47.5 102.5 c 128,-1,85
 30 85 30 85 30 60 c 256,74,75
EndSplineSet
Validated: 9
EndChar

StartChar: O
Encoding: 79 79 50
Width: 931
Flags: W
LayerCount: 2
Fore
SplineSet
60 210 m 256,0,1
 60 185 60 185 77.5 167.5 c 128,-1,2
 95 150 95 150 120 150 c 256,3,4
 145 150 145 150 162.5 167.5 c 128,-1,5
 180 185 180 185 180 210 c 256,6,7
 180 235 180 235 162.5 252.5 c 128,-1,8
 145 270 145 270 120 270 c 256,9,10
 95 270 95 270 77.5 252.5 c 128,-1,11
 60 235 60 235 60 210 c 256,0,1
30 360 m 256,12,13
 30 335 30 335 47.5 317.5 c 128,-1,14
 65 300 65 300 90 300 c 256,15,16
 115 300 115 300 132.5 317.5 c 128,-1,17
 150 335 150 335 150 360 c 256,18,19
 150 385 150 385 132.5 402.5 c 128,-1,20
 115 420 115 420 90 420 c 256,21,22
 65 420 65 420 47.5 402.5 c 128,-1,23
 30 385 30 385 30 360 c 256,12,13
60 510 m 256,24,25
 60 485 60 485 77.5 467.5 c 128,-1,26
 95 450 95 450 120 450 c 256,27,28
 145 450 145 450 162.5 467.5 c 128,-1,29
 180 485 180 485 180 510 c 256,30,31
 180 535 180 535 162.5 552.5 c 128,-1,32
 145 570 145 570 120 570 c 256,33,34
 95 570 95 570 77.5 552.5 c 128,-1,35
 60 535 60 535 60 510 c 256,24,25
180 90 m 256,36,37
 180 65 180 65 197.5 47.5 c 128,-1,38
 215 30 215 30 240 30 c 256,39,40
 265 30 265 30 282.5 47.5 c 128,-1,41
 300 65 300 65 300 90 c 256,42,43
 300 115 300 115 282.5 132.5 c 128,-1,44
 265 150 265 150 240 150 c 256,45,46
 215 150 215 150 197.5 132.5 c 128,-1,47
 180 115 180 115 180 90 c 256,36,37
180 630 m 256,48,49
 180 605 180 605 197.5 587.5 c 128,-1,50
 215 570 215 570 240 570 c 256,51,52
 265 570 265 570 282.5 587.5 c 128,-1,53
 300 605 300 605 300 630 c 256,54,55
 300 655 300 655 282.5 672.5 c 128,-1,56
 265 690 265 690 240 690 c 256,57,58
 215 690 215 690 197.5 672.5 c 128,-1,59
 180 655 180 655 180 630 c 256,48,49
330 60 m 256,60,61
 330 35 330 35 347.5 17.5 c 128,-1,62
 365 0 365 0 390 0 c 256,63,64
 415 0 415 0 432.5 17.5 c 128,-1,65
 450 35 450 35 450 60 c 256,66,67
 450 85 450 85 432.5 102.5 c 128,-1,68
 415 120 415 120 390 120 c 256,69,70
 365 120 365 120 347.5 102.5 c 128,-1,71
 330 85 330 85 330 60 c 256,60,61
330 660 m 256,72,73
 330 635 330 635 347.5 617.5 c 128,-1,74
 365 600 365 600 390 600 c 256,75,76
 415 600 415 600 432.5 617.5 c 128,-1,77
 450 635 450 635 450 660 c 256,78,79
 450 685 450 685 432.5 702.5 c 128,-1,80
 415 720 415 720 390 720 c 256,81,82
 365 720 365 720 347.5 702.5 c 128,-1,83
 330 685 330 685 330 660 c 256,72,73
900 360 m 0,84,85
 900 510 900 510 776.5 615 c 128,-1,86
 653 720 653 720 480 720 c 1,87,-1
 480 600 l 1,88,89
 565 597 565 597 638 560 c 0,90,91
 718 520 718 520 757 451 c 0,92,93
 780 408 780 408 780 360 c 0,94,95
 780 265 780 265 692.5 194.5 c 128,-1,96
 605 124 605 124 480 120 c 1,97,-1
 480 0 l 1,98,99
 601 0 601 0 705 56 c 0,100,101
 815 116 815 116 867 220 c 0,102,103
 900 285 900 285 900 360 c 0,84,85
EndSplineSet
Validated: 9
EndChar

StartChar: P
Encoding: 80 80 51
Width: 931
Flags: W
LayerCount: 2
Fore
SplineSet
30 60 m 256,0,1
 30 35 30 35 47.5 17.5 c 128,-1,2
 65 0 65 0 90 0 c 256,3,4
 115 0 115 0 132.5 17.5 c 128,-1,5
 150 35 150 35 150 60 c 256,6,7
 150 85 150 85 132.5 102.5 c 128,-1,8
 115 120 115 120 90 120 c 256,9,10
 65 120 65 120 47.5 102.5 c 128,-1,11
 30 85 30 85 30 60 c 256,0,1
30 210 m 256,12,13
 30 185 30 185 47.5 167.5 c 128,-1,14
 65 150 65 150 90 150 c 256,15,16
 115 150 115 150 132.5 167.5 c 128,-1,17
 150 185 150 185 150 210 c 256,18,19
 150 235 150 235 132.5 252.5 c 128,-1,20
 115 270 115 270 90 270 c 256,21,22
 65 270 65 270 47.5 252.5 c 128,-1,23
 30 235 30 235 30 210 c 256,12,13
30 360 m 256,24,25
 30 335 30 335 47.5 317.5 c 128,-1,26
 65 300 65 300 90 300 c 256,27,28
 115 300 115 300 132.5 317.5 c 128,-1,29
 150 335 150 335 150 360 c 256,30,31
 150 385 150 385 132.5 402.5 c 128,-1,32
 115 420 115 420 90 420 c 256,33,34
 65 420 65 420 47.5 402.5 c 128,-1,35
 30 385 30 385 30 360 c 256,24,25
30 510 m 256,36,37
 30 485 30 485 47.5 467.5 c 128,-1,38
 65 450 65 450 90 450 c 256,39,40
 115 450 115 450 132.5 467.5 c 128,-1,41
 150 485 150 485 150 510 c 256,42,43
 150 535 150 535 132.5 552.5 c 128,-1,44
 115 570 115 570 90 570 c 256,45,46
 65 570 65 570 47.5 552.5 c 128,-1,47
 30 535 30 535 30 510 c 256,36,37
30 660 m 256,48,49
 30 635 30 635 47.5 617.5 c 128,-1,50
 65 600 65 600 90 600 c 256,51,52
 115 600 115 600 132.5 617.5 c 128,-1,53
 150 635 150 635 150 660 c 256,54,55
 150 685 150 685 132.5 702.5 c 128,-1,56
 115 720 115 720 90 720 c 256,57,58
 65 720 65 720 47.5 702.5 c 128,-1,59
 30 685 30 685 30 660 c 256,48,49
180 210 m 256,60,61
 180 185 180 185 197.5 167.5 c 128,-1,62
 215 150 215 150 240 150 c 256,63,64
 265 150 265 150 282.5 167.5 c 128,-1,65
 300 185 300 185 300 210 c 256,66,67
 300 235 300 235 282.5 252.5 c 128,-1,68
 265 270 265 270 240 270 c 256,69,70
 215 270 215 270 197.5 252.5 c 128,-1,71
 180 235 180 235 180 210 c 256,60,61
180 660 m 256,72,73
 180 635 180 635 197.5 617.5 c 128,-1,74
 215 600 215 600 240 600 c 256,75,76
 265 600 265 600 282.5 617.5 c 128,-1,77
 300 635 300 635 300 660 c 256,78,79
 300 685 300 685 282.5 702.5 c 128,-1,80
 265 720 265 720 240 720 c 256,81,82
 215 720 215 720 197.5 702.5 c 128,-1,83
 180 685 180 685 180 660 c 256,72,73
330 210 m 256,84,85
 330 185 330 185 347.5 167.5 c 128,-1,86
 365 150 365 150 390 150 c 256,87,88
 415 150 415 150 432.5 167.5 c 128,-1,89
 450 185 450 185 450 210 c 256,90,91
 450 235 450 235 432.5 252.5 c 128,-1,92
 415 270 415 270 390 270 c 256,93,94
 365 270 365 270 347.5 252.5 c 128,-1,95
 330 235 330 235 330 210 c 256,84,85
330 660 m 256,96,97
 330 635 330 635 347.5 617.5 c 128,-1,98
 365 600 365 600 390 600 c 256,99,100
 415 600 415 600 432.5 617.5 c 128,-1,101
 450 635 450 635 450 660 c 256,102,103
 450 685 450 685 432.5 702.5 c 128,-1,104
 415 720 415 720 390 720 c 256,105,106
 365 720 365 720 347.5 702.5 c 128,-1,107
 330 685 330 685 330 660 c 256,96,97
900 435 m 0,108,109
 900 549 900 549 778 632.5 c 128,-1,110
 656 716 656 716 480 720 c 1,111,-1
 480 600 l 1,112,113
 606 596 606 596 693 548.5 c 128,-1,114
 780 501 780 501 780 435 c 256,115,116
 780 369 780 369 692.5 320.5 c 128,-1,117
 605 272 605 272 480 270 c 1,118,-1
 480 150 l 1,119,120
 655 154 655 154 777.5 237 c 128,-1,121
 900 320 900 320 900 435 c 0,108,109
EndSplineSet
Validated: 9
EndChar

StartChar: Q
Encoding: 81 81 52
Width: 931
Flags: W
LayerCount: 2
Fore
SplineSet
480 300 m 1,0,-1
 504 300 l 1,1,-1
 631 156 l 1,2,3
 565 124 565 124 480 120 c 1,4,-1
 480 0 l 1,5,6
 607 0 607 0 714 61 c 1,7,-1
 768 0 l 1,8,-1
 900 0 l 1,9,-1
 900 120 l 1,10,-1
 823 120 l 1,11,-1
 809 136 l 1,12,13
 900 233 900 233 900 360 c 0,14,15
 900 510 900 510 776.5 615 c 128,-1,16
 653 720 653 720 480 720 c 1,17,-1
 480 600 l 1,18,19
 565 597 565 597 638 560 c 0,20,21
 718 520 718 520 757 451 c 0,22,23
 780 408 780 408 780 360 c 0,24,25
 780 291 780 291 728 228 c 1,26,-1
 560 420 l 1,27,-1
 480 420 l 1,28,-1
 480 300 l 1,0,-1
60 210 m 256,29,30
 60 185 60 185 77.5 167.5 c 128,-1,31
 95 150 95 150 120 150 c 256,32,33
 145 150 145 150 162.5 167.5 c 128,-1,34
 180 185 180 185 180 210 c 256,35,36
 180 235 180 235 162.5 252.5 c 128,-1,37
 145 270 145 270 120 270 c 256,38,39
 95 270 95 270 77.5 252.5 c 128,-1,40
 60 235 60 235 60 210 c 256,29,30
30 360 m 256,41,42
 30 335 30 335 47.5 317.5 c 128,-1,43
 65 300 65 300 90 300 c 256,44,45
 115 300 115 300 132.5 317.5 c 128,-1,46
 150 335 150 335 150 360 c 256,47,48
 150 385 150 385 132.5 402.5 c 128,-1,49
 115 420 115 420 90 420 c 256,50,51
 65 420 65 420 47.5 402.5 c 128,-1,52
 30 385 30 385 30 360 c 256,41,42
330 660 m 256,53,54
 330 635 330 635 347.5 617.5 c 128,-1,55
 365 600 365 600 390 600 c 256,56,57
 415 600 415 600 432.5 617.5 c 128,-1,58
 450 635 450 635 450 660 c 256,59,60
 450 685 450 685 432.5 702.5 c 128,-1,61
 415 720 415 720 390 720 c 256,62,63
 365 720 365 720 347.5 702.5 c 128,-1,64
 330 685 330 685 330 660 c 256,53,54
330 60 m 256,65,66
 330 35 330 35 347.5 17.5 c 128,-1,67
 365 0 365 0 390 0 c 256,68,69
 415 0 415 0 432.5 17.5 c 128,-1,70
 450 35 450 35 450 60 c 256,71,72
 450 85 450 85 432.5 102.5 c 128,-1,73
 415 120 415 120 390 120 c 256,74,75
 365 120 365 120 347.5 102.5 c 128,-1,76
 330 85 330 85 330 60 c 256,65,66
180 630 m 256,77,78
 180 605 180 605 197.5 587.5 c 128,-1,79
 215 570 215 570 240 570 c 256,80,81
 265 570 265 570 282.5 587.5 c 128,-1,82
 300 605 300 605 300 630 c 256,83,84
 300 655 300 655 282.5 672.5 c 128,-1,85
 265 690 265 690 240 690 c 256,86,87
 215 690 215 690 197.5 672.5 c 128,-1,88
 180 655 180 655 180 630 c 256,77,78
180 90 m 256,89,90
 180 65 180 65 197.5 47.5 c 128,-1,91
 215 30 215 30 240 30 c 256,92,93
 265 30 265 30 282.5 47.5 c 128,-1,94
 300 65 300 65 300 90 c 256,95,96
 300 115 300 115 282.5 132.5 c 128,-1,97
 265 150 265 150 240 150 c 256,98,99
 215 150 215 150 197.5 132.5 c 128,-1,100
 180 115 180 115 180 90 c 256,89,90
60 510 m 256,101,102
 60 485 60 485 77.5 467.5 c 128,-1,103
 95 450 95 450 120 450 c 256,104,105
 145 450 145 450 162.5 467.5 c 128,-1,106
 180 485 180 485 180 510 c 256,107,108
 180 535 180 535 162.5 552.5 c 128,-1,109
 145 570 145 570 120 570 c 256,110,111
 95 570 95 570 77.5 552.5 c 128,-1,112
 60 535 60 535 60 510 c 256,101,102
330 360 m 256,113,114
 330 335 330 335 347.5 317.5 c 128,-1,115
 365 300 365 300 390 300 c 256,116,117
 415 300 415 300 432.5 317.5 c 128,-1,118
 450 335 450 335 450 360 c 256,119,120
 450 385 450 385 432.5 402.5 c 128,-1,121
 415 420 415 420 390 420 c 256,122,123
 365 420 365 420 347.5 402.5 c 128,-1,124
 330 385 330 385 330 360 c 256,113,114
EndSplineSet
Validated: 9
EndChar

StartChar: R
Encoding: 82 82 53
Width: 931
Flags: W
LayerCount: 2
Fore
SplineSet
780 0 m 1,0,-1
 900 0 l 1,1,-1
 900 60 l 2,2,3
 900 235 900 235 735 345 c 1,4,5
 900 409 900 409 900 510 c 0,6,7
 900 594 900 594 778 655 c 128,-1,8
 656 716 656 716 480 720 c 1,9,-1
 480 600 l 1,10,11
 605 598 605 598 692.5 572 c 128,-1,12
 780 546 780 546 780 510 c 0,13,14
 780 473 780 473 694 447.5 c 128,-1,15
 608 422 608 422 480 420 c 1,16,-1
 480 300 l 1,17,18
 565 297 565 297 638 260 c 0,19,20
 718 220 718 220 757 151 c 0,21,22
 780 108 780 108 780 60 c 2,23,-1
 780 0 l 1,0,-1
30 510 m 256,24,25
 30 485 30 485 47.5 467.5 c 128,-1,26
 65 450 65 450 90 450 c 256,27,28
 115 450 115 450 132.5 467.5 c 128,-1,29
 150 485 150 485 150 510 c 256,30,31
 150 535 150 535 132.5 552.5 c 128,-1,32
 115 570 115 570 90 570 c 256,33,34
 65 570 65 570 47.5 552.5 c 128,-1,35
 30 535 30 535 30 510 c 256,24,25
30 360 m 256,36,37
 30 335 30 335 47.5 317.5 c 128,-1,38
 65 300 65 300 90 300 c 256,39,40
 115 300 115 300 132.5 317.5 c 128,-1,41
 150 335 150 335 150 360 c 256,42,43
 150 385 150 385 132.5 402.5 c 128,-1,44
 115 420 115 420 90 420 c 256,45,46
 65 420 65 420 47.5 402.5 c 128,-1,47
 30 385 30 385 30 360 c 256,36,37
30 60 m 256,48,49
 30 35 30 35 47.5 17.5 c 128,-1,50
 65 0 65 0 90 0 c 256,51,52
 115 0 115 0 132.5 17.5 c 128,-1,53
 150 35 150 35 150 60 c 256,54,55
 150 85 150 85 132.5 102.5 c 128,-1,56
 115 120 115 120 90 120 c 256,57,58
 65 120 65 120 47.5 102.5 c 128,-1,59
 30 85 30 85 30 60 c 256,48,49
30 660 m 256,60,61
 30 635 30 635 47.5 617.5 c 128,-1,62
 65 600 65 600 90 600 c 256,63,64
 115 600 115 600 132.5 617.5 c 128,-1,65
 150 635 150 635 150 660 c 256,66,67
 150 685 150 685 132.5 702.5 c 128,-1,68
 115 720 115 720 90 720 c 256,69,70
 65 720 65 720 47.5 702.5 c 128,-1,71
 30 685 30 685 30 660 c 256,60,61
30 210 m 256,72,73
 30 185 30 185 47.5 167.5 c 128,-1,74
 65 150 65 150 90 150 c 256,75,76
 115 150 115 150 132.5 167.5 c 128,-1,77
 150 185 150 185 150 210 c 256,78,79
 150 235 150 235 132.5 252.5 c 128,-1,80
 115 270 115 270 90 270 c 256,81,82
 65 270 65 270 47.5 252.5 c 128,-1,83
 30 235 30 235 30 210 c 256,72,73
180 660 m 256,84,85
 180 635 180 635 197.5 617.5 c 128,-1,86
 215 600 215 600 240 600 c 256,87,88
 265 600 265 600 282.5 617.5 c 128,-1,89
 300 635 300 635 300 660 c 256,90,91
 300 685 300 685 282.5 702.5 c 128,-1,92
 265 720 265 720 240 720 c 256,93,94
 215 720 215 720 197.5 702.5 c 128,-1,95
 180 685 180 685 180 660 c 256,84,85
330 360 m 256,96,97
 330 335 330 335 347.5 317.5 c 128,-1,98
 365 300 365 300 390 300 c 256,99,100
 415 300 415 300 432.5 317.5 c 128,-1,101
 450 335 450 335 450 360 c 256,102,103
 450 385 450 385 432.5 402.5 c 128,-1,104
 415 420 415 420 390 420 c 256,105,106
 365 420 365 420 347.5 402.5 c 128,-1,107
 330 385 330 385 330 360 c 256,96,97
330 660 m 256,108,109
 330 635 330 635 347.5 617.5 c 128,-1,110
 365 600 365 600 390 600 c 256,111,112
 415 600 415 600 432.5 617.5 c 128,-1,113
 450 635 450 635 450 660 c 256,114,115
 450 685 450 685 432.5 702.5 c 128,-1,116
 415 720 415 720 390 720 c 256,117,118
 365 720 365 720 347.5 702.5 c 128,-1,119
 330 685 330 685 330 660 c 256,108,109
180 360 m 256,120,121
 180 335 180 335 197.5 317.5 c 128,-1,122
 215 300 215 300 240 300 c 256,123,124
 265 300 265 300 282.5 317.5 c 128,-1,125
 300 335 300 335 300 360 c 256,126,127
 300 385 300 385 282.5 402.5 c 128,-1,128
 265 420 265 420 240 420 c 256,129,130
 215 420 215 420 197.5 402.5 c 128,-1,131
 180 385 180 385 180 360 c 256,120,121
EndSplineSet
Validated: 9
EndChar

StartChar: S
Encoding: 83 83 54
Width: 931
Flags: W
LayerCount: 2
Fore
SplineSet
480 600 m 1,0,-1
 780 600 l 1,1,-1
 780 720 l 1,2,-1
 480 720 l 1,3,-1
 480 600 l 1,0,-1
30 120 m 256,4,5
 30 95 30 95 47.5 77.5 c 128,-1,6
 65 60 65 60 90 60 c 256,7,8
 115 60 115 60 132.5 77.5 c 128,-1,9
 150 95 150 95 150 120 c 256,10,11
 150 145 150 145 132.5 162.5 c 128,-1,12
 115 180 115 180 90 180 c 256,13,14
 65 180 65 180 47.5 162.5 c 128,-1,15
 30 145 30 145 30 120 c 256,4,5
330 660 m 256,16,17
 330 635 330 635 347.5 617.5 c 128,-1,18
 365 600 365 600 390 600 c 256,19,20
 415 600 415 600 432.5 617.5 c 128,-1,21
 450 635 450 635 450 660 c 256,22,23
 450 685 450 685 432.5 702.5 c 128,-1,24
 415 720 415 720 390 720 c 256,25,26
 365 720 365 720 347.5 702.5 c 128,-1,27
 330 685 330 685 330 660 c 256,16,17
180 390 m 256,28,29
 180 365 180 365 197.5 347.5 c 128,-1,30
 215 330 215 330 240 330 c 256,31,32
 265 330 265 330 282.5 347.5 c 128,-1,33
 300 365 300 365 300 390 c 256,34,35
 300 415 300 415 282.5 432.5 c 128,-1,36
 265 450 265 450 240 450 c 256,37,38
 215 450 215 450 197.5 432.5 c 128,-1,39
 180 415 180 415 180 390 c 256,28,29
180 630 m 256,40,41
 180 605 180 605 197.5 587.5 c 128,-1,42
 215 570 215 570 240 570 c 256,43,44
 265 570 265 570 282.5 587.5 c 128,-1,45
 300 605 300 605 300 630 c 256,46,47
 300 655 300 655 282.5 672.5 c 128,-1,48
 265 690 265 690 240 690 c 256,49,50
 215 690 215 690 197.5 672.5 c 128,-1,51
 180 655 180 655 180 630 c 256,40,41
330 360 m 256,52,53
 330 335 330 335 347.5 317.5 c 128,-1,54
 365 300 365 300 390 300 c 256,55,56
 415 300 415 300 432.5 317.5 c 128,-1,57
 450 335 450 335 450 360 c 256,58,59
 450 385 450 385 432.5 402.5 c 128,-1,60
 415 420 415 420 390 420 c 256,61,62
 365 420 365 420 347.5 402.5 c 128,-1,63
 330 385 330 385 330 360 c 256,52,53
30 450 m 256,64,65
 30 425 30 425 47.5 407.5 c 128,-1,66
 65 390 65 390 90 390 c 256,67,68
 115 390 115 390 132.5 407.5 c 128,-1,69
 150 425 150 425 150 450 c 256,70,71
 150 475 150 475 132.5 492.5 c 128,-1,72
 115 510 115 510 90 510 c 256,73,74
 65 510 65 510 47.5 492.5 c 128,-1,75
 30 475 30 475 30 450 c 256,64,65
330 60 m 256,76,77
 330 35 330 35 347.5 17.5 c 128,-1,78
 365 0 365 0 390 0 c 256,79,80
 415 0 415 0 432.5 17.5 c 128,-1,81
 450 35 450 35 450 60 c 256,82,83
 450 85 450 85 432.5 102.5 c 128,-1,84
 415 120 415 120 390 120 c 256,85,86
 365 120 365 120 347.5 102.5 c 128,-1,87
 330 85 330 85 330 60 c 256,76,77
180 90 m 256,88,89
 180 65 180 65 197.5 47.5 c 128,-1,90
 215 30 215 30 240 30 c 256,91,92
 265 30 265 30 282.5 47.5 c 128,-1,93
 300 65 300 65 300 90 c 256,94,95
 300 115 300 115 282.5 132.5 c 128,-1,96
 265 150 265 150 240 150 c 256,97,98
 215 150 215 150 197.5 132.5 c 128,-1,99
 180 115 180 115 180 90 c 256,88,89
30 600 m 256,100,101
 30 575 30 575 47.5 557.5 c 128,-1,102
 65 540 65 540 90 540 c 256,103,104
 115 540 115 540 132.5 557.5 c 128,-1,105
 150 575 150 575 150 600 c 256,106,107
 150 625 150 625 132.5 642.5 c 128,-1,108
 115 660 115 660 90 660 c 256,109,110
 65 660 65 660 47.5 642.5 c 128,-1,111
 30 625 30 625 30 600 c 256,100,101
900 210 m 0,112,113
 900 294 900 294 778 355 c 128,-1,114
 656 416 656 416 480 420 c 1,115,-1
 480 300 l 1,116,117
 605 298 605 298 692.5 272 c 128,-1,118
 780 246 780 246 780 210 c 0,119,120
 780 173 780 173 694 147.5 c 128,-1,121
 608 122 608 122 480 120 c 1,122,-1
 480 0 l 1,123,124
 654 2 654 2 777 63.5 c 128,-1,125
 900 125 900 125 900 210 c 0,112,113
EndSplineSet
Validated: 9
EndChar

StartChar: T
Encoding: 84 84 55
Width: 1232
Flags: WO
LayerCount: 2
Fore
SplineSet
526.5 680 m 256,0,1
 526.5 655 526.5 655 544 637.5 c 128,-1,2
 561.5 620 561.5 620 586.5 620 c 256,3,4
 611.5 620 611.5 620 629 637.5 c 128,-1,5
 646.5 655 646.5 655 646.5 680 c 256,6,7
 646.5 705 646.5 705 629 722.5 c 128,-1,8
 611.5 740 611.5 740 586.5 740 c 256,9,10
 561.5 740 561.5 740 544 722.5 c 128,-1,11
 526.5 705 526.5 705 526.5 680 c 256,0,1
376.5 680 m 256,12,13
 376.5 655 376.5 655 394 637.5 c 128,-1,14
 411.5 620 411.5 620 436.5 620 c 256,15,16
 461.5 620 461.5 620 479 637.5 c 128,-1,17
 496.5 655 496.5 655 496.5 680 c 256,18,19
 496.5 705 496.5 705 479 722.5 c 128,-1,20
 461.5 740 461.5 740 436.5 740 c 256,21,22
 411.5 740 411.5 740 394 722.5 c 128,-1,23
 376.5 705 376.5 705 376.5 680 c 256,12,13
1115 381.5 m 1,24,-1
 995 381.5 l 1,25,26
 995.5 286 995.5 286 907.5 216 c 128,-1,27
 819.5 146 819.5 146 695 141.5 c 1,28,-1
 695 21.5 l 1,29,30
 818.5 22 818.5 22 920 77.5 c 0,31,32
 1029.5 138 1029.5 138 1082 241.5 c 0,33,34
 1115.5 306 1115.5 306 1115 381.5 c 1,24,-1
826.5 620 m 1,35,-1
 1126.5 620 l 1,36,-1
 1126.5 740 l 1,37,-1
 826.5 740 l 1,38,-1
 826.5 620 l 1,35,-1
376.5 380 m 256,39,40
 376.5 355 376.5 355 394 337.5 c 128,-1,41
 411.5 320 411.5 320 436.5 320 c 256,42,43
 461.5 320 461.5 320 479 337.5 c 128,-1,44
 496.5 355 496.5 355 496.5 380 c 256,45,46
 496.5 405 496.5 405 479 422.5 c 128,-1,47
 461.5 440 461.5 440 436.5 440 c 256,48,49
 411.5 440 411.5 440 394 422.5 c 128,-1,50
 376.5 405 376.5 405 376.5 380 c 256,39,40
376.5 80 m 256,51,52
 376.5 55 376.5 55 394 37.5 c 128,-1,53
 411.5 20 411.5 20 436.5 20 c 256,54,55
 461.5 20 461.5 20 479 37.5 c 128,-1,56
 496.5 55 496.5 55 496.5 80 c 256,57,58
 496.5 105 496.5 105 479 122.5 c 128,-1,59
 461.5 140 461.5 140 436.5 140 c 256,60,61
 411.5 140 411.5 140 394 122.5 c 128,-1,62
 376.5 105 376.5 105 376.5 80 c 256,51,52
229.5 680 m 256,63,64
 229.5 655 229.5 655 247 637.5 c 128,-1,65
 264.5 620 264.5 620 289.5 620 c 256,66,67
 314.5 620 314.5 620 332 637.5 c 128,-1,68
 349.5 655 349.5 655 349.5 680 c 256,69,70
 349.5 705 349.5 705 332 722.5 c 128,-1,71
 314.5 740 314.5 740 289.5 740 c 256,72,73
 264.5 740 264.5 740 247 722.5 c 128,-1,74
 229.5 705 229.5 705 229.5 680 c 256,63,64
526.5 80 m 256,75,76
 526.5 55 526.5 55 544 37.5 c 128,-1,77
 561.5 20 561.5 20 586.5 20 c 256,78,79
 611.5 20 611.5 20 629 37.5 c 128,-1,80
 646.5 55 646.5 55 646.5 80 c 256,81,82
 646.5 105 646.5 105 629 122.5 c 128,-1,83
 611.5 140 611.5 140 586.5 140 c 256,84,85
 561.5 140 561.5 140 544 122.5 c 128,-1,86
 526.5 105 526.5 105 526.5 80 c 256,75,76
376.5 230 m 256,87,88
 376.5 205 376.5 205 394 187.5 c 128,-1,89
 411.5 170 411.5 170 436.5 170 c 256,90,91
 461.5 170 461.5 170 479 187.5 c 128,-1,92
 496.5 205 496.5 205 496.5 230 c 256,93,94
 496.5 255 496.5 255 479 272.5 c 128,-1,95
 461.5 290 461.5 290 436.5 290 c 256,96,97
 411.5 290 411.5 290 394 272.5 c 128,-1,98
 376.5 255 376.5 255 376.5 230 c 256,87,88
79.5 680 m 256,99,100
 79.5 655 79.5 655 97 637.5 c 128,-1,101
 114.5 620 114.5 620 139.5 620 c 256,102,103
 164.5 620 164.5 620 182 637.5 c 128,-1,104
 199.5 655 199.5 655 199.5 680 c 256,105,106
 199.5 705 199.5 705 182 722.5 c 128,-1,107
 164.5 740 164.5 740 139.5 740 c 256,108,109
 114.5 740 114.5 740 97 722.5 c 128,-1,110
 79.5 705 79.5 705 79.5 680 c 256,99,100
676.5 680 m 256,111,112
 676.5 655 676.5 655 694 637.5 c 128,-1,113
 711.5 620 711.5 620 736.5 620 c 256,114,115
 761.5 620 761.5 620 779 637.5 c 128,-1,116
 796.5 655 796.5 655 796.5 680 c 256,117,118
 796.5 705 796.5 705 779 722.5 c 128,-1,119
 761.5 740 761.5 740 736.5 740 c 256,120,121
 711.5 740 711.5 740 694 722.5 c 128,-1,122
 676.5 705 676.5 705 676.5 680 c 256,111,112
376.5 530 m 256,123,124
 376.5 505 376.5 505 394 487.5 c 128,-1,125
 411.5 470 411.5 470 436.5 470 c 256,126,127
 461.5 470 461.5 470 479 487.5 c 128,-1,128
 496.5 505 496.5 505 496.5 530 c 256,129,130
 496.5 555 496.5 555 479 572.5 c 128,-1,131
 461.5 590 461.5 590 436.5 590 c 256,132,133
 411.5 590 411.5 590 394 572.5 c 128,-1,134
 376.5 555 376.5 555 376.5 530 c 256,123,124
EndSplineSet
EndChar

StartChar: U
Encoding: 85 85 56
Width: 931
Flags: W
LayerCount: 2
Fore
SplineSet
780 720 m 1,0,-1
 900 720 l 1,1,-1
 900 0 l 1,2,-1
 780 0 l 1,3,-1
 780 108 l 1,4,5
 657 0 657 0 480 0 c 1,6,-1
 480 120 l 1,7,8
 565 123 565 123 638 160 c 0,9,10
 718 200 718 200 757 270 c 0,11,12
 780 312 780 312 780 360 c 2,13,-1
 780 720 l 1,0,-1
180 90 m 256,14,15
 180 115 180 115 197.5 132.5 c 128,-1,16
 215 150 215 150 240 150 c 256,17,18
 265 150 265 150 282.5 132.5 c 128,-1,19
 300 115 300 115 300 90 c 256,20,21
 300 65 300 65 282.5 47.5 c 128,-1,22
 265 30 265 30 240 30 c 256,23,24
 215 30 215 30 197.5 47.5 c 128,-1,25
 180 65 180 65 180 90 c 256,14,15
330 60 m 256,26,27
 330 85 330 85 347.5 102.5 c 128,-1,28
 365 120 365 120 390 120 c 256,29,30
 415 120 415 120 432.5 102.5 c 128,-1,31
 450 85 450 85 450 60 c 256,32,33
 450 35 450 35 432.5 17.5 c 128,-1,34
 415 0 415 0 390 0 c 256,35,36
 365 0 365 0 347.5 17.5 c 128,-1,37
 330 35 330 35 330 60 c 256,26,27
30 510 m 256,38,39
 30 535 30 535 47.5 552.5 c 128,-1,40
 65 570 65 570 90 570 c 256,41,42
 115 570 115 570 132.5 552.5 c 128,-1,43
 150 535 150 535 150 510 c 256,44,45
 150 485 150 485 132.5 467.5 c 128,-1,46
 115 450 115 450 90 450 c 256,47,48
 65 450 65 450 47.5 467.5 c 128,-1,49
 30 485 30 485 30 510 c 256,38,39
60 210 m 256,50,51
 60 235 60 235 77.5 252.5 c 128,-1,52
 95 270 95 270 120 270 c 256,53,54
 145 270 145 270 162.5 252.5 c 128,-1,55
 180 235 180 235 180 210 c 256,56,57
 180 185 180 185 162.5 167.5 c 128,-1,58
 145 150 145 150 120 150 c 256,59,60
 95 150 95 150 77.5 167.5 c 128,-1,61
 60 185 60 185 60 210 c 256,50,51
30 360 m 256,62,63
 30 385 30 385 47.5 402.5 c 128,-1,64
 65 420 65 420 90 420 c 256,65,66
 115 420 115 420 132.5 402.5 c 128,-1,67
 150 385 150 385 150 360 c 256,68,69
 150 335 150 335 132.5 317.5 c 128,-1,70
 115 300 115 300 90 300 c 256,71,72
 65 300 65 300 47.5 317.5 c 128,-1,73
 30 335 30 335 30 360 c 256,62,63
30 660 m 256,74,75
 30 685 30 685 47.5 702.5 c 128,-1,76
 65 720 65 720 90 720 c 256,77,78
 115 720 115 720 132.5 702.5 c 128,-1,79
 150 685 150 685 150 660 c 256,80,81
 150 635 150 635 132.5 617.5 c 128,-1,82
 115 600 115 600 90 600 c 256,83,84
 65 600 65 600 47.5 617.5 c 128,-1,85
 30 635 30 635 30 660 c 256,74,75
EndSplineSet
Validated: 1
EndChar

StartChar: V
Encoding: 86 86 57
Width: 931
Flags: W
LayerCount: 2
Fore
SplineSet
480 0 m 1,0,-1
 600 0 l 1,1,-1
 600 30 l 1,2,-1
 900 630 l 1,3,-1
 900 720 l 1,4,-1
 780 720 l 1,5,-1
 780 690 l 1,6,-1
 495 120 l 1,7,-1
 480 120 l 1,8,-1
 480 0 l 1,0,-1
330 60 m 256,9,10
 330 35 330 35 347.5 17.5 c 128,-1,11
 365 0 365 0 390 0 c 256,12,13
 415 0 415 0 432.5 17.5 c 128,-1,14
 450 35 450 35 450 60 c 256,15,16
 450 85 450 85 432.5 102.5 c 128,-1,17
 415 120 415 120 390 120 c 256,18,19
 365 120 365 120 347.5 102.5 c 128,-1,20
 330 85 330 85 330 60 c 256,9,10
60 510 m 256,21,22
 60 485 60 485 77.5 467.5 c 128,-1,23
 95 450 95 450 120 450 c 256,24,25
 145 450 145 450 162.5 467.5 c 128,-1,26
 180 485 180 485 180 510 c 256,27,28
 180 535 180 535 162.5 552.5 c 128,-1,29
 145 570 145 570 120 570 c 256,30,31
 95 570 95 570 77.5 552.5 c 128,-1,32
 60 535 60 535 60 510 c 256,21,22
120 360 m 256,33,34
 120 335 120 335 137.5 317.5 c 128,-1,35
 155 300 155 300 180 300 c 256,36,37
 205 300 205 300 222.5 317.5 c 128,-1,38
 240 335 240 335 240 360 c 256,39,40
 240 385 240 385 222.5 402.5 c 128,-1,41
 205 420 205 420 180 420 c 256,42,43
 155 420 155 420 137.5 402.5 c 128,-1,44
 120 385 120 385 120 360 c 256,33,34
210 210 m 256,45,46
 210 185 210 185 227.5 167.5 c 128,-1,47
 245 150 245 150 270 150 c 256,48,49
 295 150 295 150 312.5 167.5 c 128,-1,50
 330 185 330 185 330 210 c 256,51,52
 330 235 330 235 312.5 252.5 c 128,-1,53
 295 270 295 270 270 270 c 256,54,55
 245 270 245 270 227.5 252.5 c 128,-1,56
 210 235 210 235 210 210 c 256,45,46
30 660 m 256,57,58
 30 635 30 635 47.5 617.5 c 128,-1,59
 65 600 65 600 90 600 c 256,60,61
 115 600 115 600 132.5 617.5 c 128,-1,62
 150 635 150 635 150 660 c 256,63,64
 150 685 150 685 132.5 702.5 c 128,-1,65
 115 720 115 720 90 720 c 256,66,67
 65 720 65 720 47.5 702.5 c 128,-1,68
 30 685 30 685 30 660 c 256,57,58
EndSplineSet
Validated: 9
EndChar

StartChar: W
Encoding: 87 87 58
Width: 931
Flags: W
LayerCount: 2
Fore
SplineSet
780 720 m 1,0,-1
 900 720 l 1,1,-1
 900 0 l 1,2,-1
 808 0 l 1,3,-1
 480 288 l 1,4,-1
 480 420 l 1,5,-1
 600 420 l 1,6,-1
 600 343 l 1,7,-1
 780 185 l 1,8,-1
 780 720 l 1,0,-1
240 210 m 256,9,10
 240 235 240 235 257.5 252.5 c 128,-1,11
 275 270 275 270 300 270 c 256,12,13
 325 270 325 270 342.5 252.5 c 128,-1,14
 360 235 360 235 360 210 c 256,15,16
 360 185 360 185 342.5 167.5 c 128,-1,17
 325 150 325 150 300 150 c 256,18,19
 275 150 275 150 257.5 167.5 c 128,-1,20
 240 185 240 185 240 210 c 256,9,10
30 510 m 256,21,22
 30 535 30 535 47.5 552.5 c 128,-1,23
 65 570 65 570 90 570 c 256,24,25
 115 570 115 570 132.5 552.5 c 128,-1,26
 150 535 150 535 150 510 c 256,27,28
 150 485 150 485 132.5 467.5 c 128,-1,29
 115 450 115 450 90 450 c 256,30,31
 65 450 65 450 47.5 467.5 c 128,-1,32
 30 485 30 485 30 510 c 256,21,22
330 360 m 256,33,34
 330 385 330 385 347.5 402.5 c 128,-1,35
 365 420 365 420 390 420 c 256,36,37
 415 420 415 420 432.5 402.5 c 128,-1,38
 450 385 450 385 450 360 c 256,39,40
 450 335 450 335 432.5 317.5 c 128,-1,41
 415 300 415 300 390 300 c 256,42,43
 365 300 365 300 347.5 317.5 c 128,-1,44
 330 335 330 335 330 360 c 256,33,34
30 60 m 256,45,46
 30 85 30 85 47.5 102.5 c 128,-1,47
 65 120 65 120 90 120 c 256,48,49
 115 120 115 120 132.5 102.5 c 128,-1,50
 150 85 150 85 150 60 c 256,51,52
 150 35 150 35 132.5 17.5 c 128,-1,53
 115 0 115 0 90 0 c 256,54,55
 65 0 65 0 47.5 17.5 c 128,-1,56
 30 35 30 35 30 60 c 256,45,46
30 660 m 256,57,58
 30 685 30 685 47.5 702.5 c 128,-1,59
 65 720 65 720 90 720 c 256,60,61
 115 720 115 720 132.5 702.5 c 128,-1,62
 150 685 150 685 150 660 c 256,63,64
 150 635 150 635 132.5 617.5 c 128,-1,65
 115 600 115 600 90 600 c 256,66,67
 65 600 65 600 47.5 617.5 c 128,-1,68
 30 635 30 635 30 660 c 256,57,58
30 360 m 256,69,70
 30 385 30 385 47.5 402.5 c 128,-1,71
 65 420 65 420 90 420 c 256,72,73
 115 420 115 420 132.5 402.5 c 128,-1,74
 150 385 150 385 150 360 c 256,75,76
 150 335 150 335 132.5 317.5 c 128,-1,77
 115 300 115 300 90 300 c 256,78,79
 65 300 65 300 47.5 317.5 c 128,-1,80
 30 335 30 335 30 360 c 256,69,70
30 210 m 256,81,82
 30 235 30 235 47.5 252.5 c 128,-1,83
 65 270 65 270 90 270 c 256,84,85
 115 270 115 270 132.5 252.5 c 128,-1,86
 150 235 150 235 150 210 c 256,87,88
 150 185 150 185 132.5 167.5 c 128,-1,89
 115 150 115 150 90 150 c 256,90,91
 65 150 65 150 47.5 167.5 c 128,-1,92
 30 185 30 185 30 210 c 256,81,82
180 60 m 256,93,94
 180 85 180 85 197.5 102.5 c 128,-1,95
 215 120 215 120 240 120 c 256,96,97
 265 120 265 120 282.5 102.5 c 128,-1,98
 300 85 300 85 300 60 c 256,99,100
 300 35 300 35 282.5 17.5 c 128,-1,101
 265 0 265 0 240 0 c 256,102,103
 215 0 215 0 197.5 17.5 c 128,-1,104
 180 35 180 35 180 60 c 256,93,94
EndSplineSet
Validated: 1
EndChar

StartChar: X
Encoding: 88 88 59
Width: 931
Flags: W
LayerCount: 2
Fore
SplineSet
600 343 m 1,0,-1
 600 377 l 1,1,-1
 900 640 l 1,2,-1
 900 720 l 1,3,-1
 808 720 l 1,4,-1
 480 432 l 1,5,-1
 480 288 l 1,6,-1
 808 0 l 1,7,-1
 900 0 l 1,8,-1
 900 80 l 1,9,-1
 600 343 l 1,0,-1
330 360 m 256,10,11
 330 335 330 335 347.5 317.5 c 128,-1,12
 365 300 365 300 390 300 c 256,13,14
 415 300 415 300 432.5 317.5 c 128,-1,15
 450 335 450 335 450 360 c 256,16,17
 450 385 450 385 432.5 402.5 c 128,-1,18
 415 420 415 420 390 420 c 256,19,20
 365 420 365 420 347.5 402.5 c 128,-1,21
 330 385 330 385 330 360 c 256,10,11
240 480 m 256,22,23
 240 455 240 455 257.5 437.5 c 128,-1,24
 275 420 275 420 300 420 c 256,25,26
 325 420 325 420 342.5 437.5 c 128,-1,27
 360 455 360 455 360 480 c 256,28,29
 360 505 360 505 342.5 522.5 c 128,-1,30
 325 540 325 540 300 540 c 256,31,32
 275 540 275 540 257.5 522.5 c 128,-1,33
 240 505 240 505 240 480 c 256,22,23
150 600 m 256,34,35
 150 575 150 575 167.5 557.5 c 128,-1,36
 185 540 185 540 210 540 c 256,37,38
 235 540 235 540 252.5 557.5 c 128,-1,39
 270 575 270 575 270 600 c 256,40,41
 270 625 270 625 252.5 642.5 c 128,-1,42
 235 660 235 660 210 660 c 256,43,44
 185 660 185 660 167.5 642.5 c 128,-1,45
 150 625 150 625 150 600 c 256,34,35
30 60 m 256,46,47
 30 35 30 35 47.5 17.5 c 128,-1,48
 65 0 65 0 90 0 c 256,49,50
 115 0 115 0 132.5 17.5 c 128,-1,51
 150 35 150 35 150 60 c 256,52,53
 150 85 150 85 132.5 102.5 c 128,-1,54
 115 120 115 120 90 120 c 256,55,56
 65 120 65 120 47.5 102.5 c 128,-1,57
 30 85 30 85 30 60 c 256,46,47
150 120 m 256,58,59
 150 95 150 95 167.5 77.5 c 128,-1,60
 185 60 185 60 210 60 c 256,61,62
 235 60 235 60 252.5 77.5 c 128,-1,63
 270 95 270 95 270 120 c 256,64,65
 270 145 270 145 252.5 162.5 c 128,-1,66
 235 180 235 180 210 180 c 256,67,68
 185 180 185 180 167.5 162.5 c 128,-1,69
 150 145 150 145 150 120 c 256,58,59
239 240 m 256,70,71
 239 215 239 215 256.5 197.5 c 128,-1,72
 274 180 274 180 299 180 c 256,73,74
 324 180 324 180 341.5 197.5 c 128,-1,75
 359 215 359 215 359 240 c 256,76,77
 359 265 359 265 342 282.5 c 128,-1,78
 325 300 325 300 300 300 c 256,79,80
 275 300 275 300 257 282.5 c 128,-1,81
 239 265 239 265 239 240 c 256,70,71
30 660 m 256,82,83
 30 635 30 635 47.5 617.5 c 128,-1,84
 65 600 65 600 90 600 c 256,85,86
 115 600 115 600 132.5 617.5 c 128,-1,87
 150 635 150 635 150 660 c 256,88,89
 150 685 150 685 132.5 702.5 c 128,-1,90
 115 720 115 720 90 720 c 256,91,92
 65 720 65 720 47.5 702.5 c 128,-1,93
 30 685 30 685 30 660 c 256,82,83
EndSplineSet
Validated: 9
EndChar

StartChar: Y
Encoding: 89 89 60
Width: 931
Flags: W
LayerCount: 2
Fore
SplineSet
900 360 m 2,0,-1
 900 720 l 1,1,-1
 780 720 l 1,2,-1
 780 660 l 2,3,4
 780 565 780 565 692.5 494.5 c 128,-1,5
 605 424 605 424 480 420 c 1,6,-1
 480 300 l 1,7,8
 659 300 659 300 780 408 c 1,9,-1
 780 360 l 2,10,11
 780 265 780 265 692.5 194.5 c 128,-1,12
 605 124 605 124 480 120 c 1,13,-1
 480 0 l 1,14,15
 601 0 601 0 705 56 c 0,16,17
 815 116 815 116 867 220 c 0,18,19
 900 285 900 285 900 360 c 2,0,-1
60 510 m 256,20,21
 60 485 60 485 77.5 467.5 c 128,-1,22
 95 450 95 450 120 450 c 256,23,24
 145 450 145 450 162.5 467.5 c 128,-1,25
 180 485 180 485 180 510 c 256,26,27
 180 535 180 535 162.5 552.5 c 128,-1,28
 145 570 145 570 120 570 c 256,29,30
 95 570 95 570 77.5 552.5 c 128,-1,31
 60 535 60 535 60 510 c 256,20,21
330 360 m 256,32,33
 330 335 330 335 347.5 317.5 c 128,-1,34
 365 300 365 300 390 300 c 256,35,36
 415 300 415 300 432.5 317.5 c 128,-1,37
 450 335 450 335 450 360 c 256,38,39
 450 385 450 385 432.5 402.5 c 128,-1,40
 415 420 415 420 390 420 c 256,41,42
 365 420 365 420 347.5 402.5 c 128,-1,43
 330 385 330 385 330 360 c 256,32,33
180 420 m 256,44,45
 180 395 180 395 197.5 377.5 c 128,-1,46
 215 360 215 360 240 360 c 256,47,48
 265 360 265 360 282.5 377.5 c 128,-1,49
 300 395 300 395 300 420 c 256,50,51
 300 445 300 445 282.5 462.5 c 128,-1,52
 265 480 265 480 240 480 c 256,53,54
 215 480 215 480 197.5 462.5 c 128,-1,55
 180 445 180 445 180 420 c 256,44,45
180 90 m 256,56,57
 180 65 180 65 197.5 47.5 c 128,-1,58
 215 30 215 30 240 30 c 256,59,60
 265 30 265 30 282.5 47.5 c 128,-1,61
 300 65 300 65 300 90 c 256,62,63
 300 115 300 115 282.5 132.5 c 128,-1,64
 265 150 265 150 240 150 c 256,65,66
 215 150 215 150 197.5 132.5 c 128,-1,67
 180 115 180 115 180 90 c 256,56,57
330 60 m 256,68,69
 330 35 330 35 347.5 17.5 c 128,-1,70
 365 0 365 0 390 0 c 256,71,72
 415 0 415 0 432.5 17.5 c 128,-1,73
 450 35 450 35 450 60 c 256,74,75
 450 85 450 85 432.5 102.5 c 128,-1,76
 415 120 415 120 390 120 c 256,77,78
 365 120 365 120 347.5 102.5 c 128,-1,79
 330 85 330 85 330 60 c 256,68,69
30 660 m 256,80,81
 30 635 30 635 47.5 617.5 c 128,-1,82
 65 600 65 600 90 600 c 256,83,84
 115 600 115 600 132.5 617.5 c 128,-1,85
 150 635 150 635 150 660 c 256,86,87
 150 685 150 685 132.5 702.5 c 128,-1,88
 115 720 115 720 90 720 c 256,89,90
 65 720 65 720 47.5 702.5 c 128,-1,91
 30 685 30 685 30 660 c 256,80,81
30 120 m 256,92,93
 30 95 30 95 47.5 77.5 c 128,-1,94
 65 60 65 60 90 60 c 256,95,96
 115 60 115 60 132.5 77.5 c 128,-1,97
 150 95 150 95 150 120 c 256,98,99
 150 145 150 145 132.5 162.5 c 128,-1,100
 115 180 115 180 90 180 c 256,101,102
 65 180 65 180 47.5 162.5 c 128,-1,103
 30 145 30 145 30 120 c 256,92,93
EndSplineSet
Validated: 9
EndChar

StartChar: Z
Encoding: 90 90 61
Width: 931
Flags: W
LayerCount: 2
Fore
SplineSet
480 720 m 1,0,-1
 900 720 l 1,1,-1
 900 660 l 2,2,3
 900 510 900 510 776.5 405 c 128,-1,4
 653 300 653 300 480 300 c 1,5,-1
 480 420 l 1,6,7
 642 426 642 426 730 531 c 0,8,9
 757 563 757 563 770 600 c 1,10,-1
 480 600 l 1,11,-1
 480 720 l 1,0,-1
480 120 m 1,12,-1
 780 120 l 1,13,-1
 780 0 l 1,14,-1
 480 0 l 1,15,-1
 480 120 l 1,12,-1
30 660 m 256,16,17
 30 685 30 685 47.5 702.5 c 128,-1,18
 65 720 65 720 90 720 c 256,19,20
 115 720 115 720 132.5 702.5 c 128,-1,21
 150 685 150 685 150 660 c 256,22,23
 150 635 150 635 132.5 617.5 c 128,-1,24
 115 600 115 600 90 600 c 256,25,26
 65 600 65 600 47.5 617.5 c 128,-1,27
 30 635 30 635 30 660 c 256,16,17
330 60 m 256,28,29
 330 85 330 85 347.5 102.5 c 128,-1,30
 365 120 365 120 390 120 c 256,31,32
 415 120 415 120 432.5 102.5 c 128,-1,33
 450 85 450 85 450 60 c 256,34,35
 450 35 450 35 432.5 17.5 c 128,-1,36
 415 0 415 0 390 0 c 256,37,38
 365 0 365 0 347.5 17.5 c 128,-1,39
 330 35 330 35 330 60 c 256,28,29
180 300 m 256,40,41
 180 325 180 325 197.5 342.5 c 128,-1,42
 215 360 215 360 240 360 c 256,43,44
 265 360 265 360 282.5 342.5 c 128,-1,45
 300 325 300 325 300 300 c 256,46,47
 300 275 300 275 282.5 257.5 c 128,-1,48
 265 240 265 240 240 240 c 256,49,50
 215 240 215 240 197.5 257.5 c 128,-1,51
 180 275 180 275 180 300 c 256,40,41
180 60 m 256,52,53
 180 85 180 85 197.5 102.5 c 128,-1,54
 215 120 215 120 240 120 c 256,55,56
 265 120 265 120 282.5 102.5 c 128,-1,57
 300 85 300 85 300 60 c 256,58,59
 300 35 300 35 282.5 17.5 c 128,-1,60
 265 0 265 0 240 0 c 256,61,62
 215 0 215 0 197.5 17.5 c 128,-1,63
 180 35 180 35 180 60 c 256,52,53
330 360 m 256,64,65
 330 385 330 385 347.5 402.5 c 128,-1,66
 365 420 365 420 390 420 c 256,67,68
 415 420 415 420 432.5 402.5 c 128,-1,69
 450 385 450 385 450 360 c 256,70,71
 450 335 450 335 432.5 317.5 c 128,-1,72
 415 300 415 300 390 300 c 256,73,74
 365 300 365 300 347.5 317.5 c 128,-1,75
 330 335 330 335 330 360 c 256,64,65
30 210 m 256,76,77
 30 235 30 235 47.5 252.5 c 128,-1,78
 65 270 65 270 90 270 c 256,79,80
 115 270 115 270 132.5 252.5 c 128,-1,81
 150 235 150 235 150 210 c 256,82,83
 150 185 150 185 132.5 167.5 c 128,-1,84
 115 150 115 150 90 150 c 256,85,86
 65 150 65 150 47.5 167.5 c 128,-1,87
 30 185 30 185 30 210 c 256,76,77
330 660 m 256,88,89
 330 685 330 685 347.5 702.5 c 128,-1,90
 365 720 365 720 390 720 c 256,91,92
 415 720 415 720 432.5 702.5 c 128,-1,93
 450 685 450 685 450 660 c 256,94,95
 450 635 450 635 432.5 617.5 c 128,-1,96
 415 600 415 600 390 600 c 256,97,98
 365 600 365 600 347.5 617.5 c 128,-1,99
 330 635 330 635 330 660 c 256,88,89
180 660 m 256,100,101
 180 685 180 685 197.5 702.5 c 128,-1,102
 215 720 215 720 240 720 c 256,103,104
 265 720 265 720 282.5 702.5 c 128,-1,105
 300 685 300 685 300 660 c 256,106,107
 300 635 300 635 282.5 617.5 c 128,-1,108
 265 600 265 600 240 600 c 256,109,110
 215 600 215 600 197.5 617.5 c 128,-1,111
 180 635 180 635 180 660 c 256,100,101
30 60 m 256,112,113
 30 85 30 85 47.5 102.5 c 128,-1,114
 65 120 65 120 90 120 c 256,115,116
 115 120 115 120 132.5 102.5 c 128,-1,117
 150 85 150 85 150 60 c 256,118,119
 150 35 150 35 132.5 17.5 c 128,-1,120
 115 0 115 0 90 0 c 256,121,122
 65 0 65 0 47.5 17.5 c 128,-1,123
 30 35 30 35 30 60 c 256,112,113
EndSplineSet
Validated: 1
EndChar

StartChar: bracketleft
Encoding: 91 91 62
Width: 500
Flags: W
LayerCount: 2
Fore
SplineSet
478 362 m 1,0,-1
 463 432 l 1,1,-1
 270 359 l 1,2,-1
 428 494 l 1,3,-1
 375 543 l 1,4,-1
 261 369 l 1,5,-1
 309 572 l 1,6,-1
 238 580 l 1,7,-1
 248 373 l 1,8,-1
 168 565 l 1,9,-1
 106 530 l 1,10,-1
 235 368 l 1,11,-1
 57 477 l 1,12,-1
 28 411 l 1,13,-1
 228 357 l 1,14,-1
 20 340 l 1,15,-1
 35 270 l 1,16,-1
 228 343 l 1,17,-1
 70 208 l 1,18,-1
 123 159 l 1,19,-1
 237 333 l 1,20,-1
 189 130 l 1,21,-1
 260 122 l 1,22,-1
 250 329 l 1,23,-1
 330 137 l 1,24,-1
 392 172 l 1,25,-1
 263 334 l 1,26,-1
 441 225 l 1,27,-1
 470 291 l 1,28,-1
 270 345 l 1,29,-1
 478 362 l 1,0,-1
EndSplineSet
Validated: 9
EndChar

StartChar: backslash
Encoding: 92 92 63
Width: 500
Flags: W
LayerCount: 2
Fore
SplineSet
478 362 m 1,0,-1
 463 432 l 1,1,-1
 270 359 l 1,2,-1
 428 494 l 1,3,-1
 375 543 l 1,4,-1
 261 369 l 1,5,-1
 309 572 l 1,6,-1
 238 580 l 1,7,-1
 248 373 l 1,8,-1
 168 565 l 1,9,-1
 106 530 l 1,10,-1
 235 368 l 1,11,-1
 57 477 l 1,12,-1
 28 411 l 1,13,-1
 228 357 l 1,14,-1
 20 340 l 1,15,-1
 35 270 l 1,16,-1
 228 343 l 1,17,-1
 70 208 l 1,18,-1
 123 159 l 1,19,-1
 237 333 l 1,20,-1
 189 130 l 1,21,-1
 260 122 l 1,22,-1
 250 329 l 1,23,-1
 330 137 l 1,24,-1
 392 172 l 1,25,-1
 263 334 l 1,26,-1
 441 225 l 1,27,-1
 470 291 l 1,28,-1
 270 345 l 1,29,-1
 478 362 l 1,0,-1
EndSplineSet
Validated: 9
EndChar

StartChar: bracketright
Encoding: 93 93 64
Width: 500
Flags: W
LayerCount: 2
Fore
SplineSet
478 362 m 1,0,-1
 463 432 l 1,1,-1
 270 359 l 1,2,-1
 428 494 l 1,3,-1
 375 543 l 1,4,-1
 261 369 l 1,5,-1
 309 572 l 1,6,-1
 238 580 l 1,7,-1
 248 373 l 1,8,-1
 168 565 l 1,9,-1
 106 530 l 1,10,-1
 235 368 l 1,11,-1
 57 477 l 1,12,-1
 28 411 l 1,13,-1
 228 357 l 1,14,-1
 20 340 l 1,15,-1
 35 270 l 1,16,-1
 228 343 l 1,17,-1
 70 208 l 1,18,-1
 123 159 l 1,19,-1
 237 333 l 1,20,-1
 189 130 l 1,21,-1
 260 122 l 1,22,-1
 250 329 l 1,23,-1
 330 137 l 1,24,-1
 392 172 l 1,25,-1
 263 334 l 1,26,-1
 441 225 l 1,27,-1
 470 291 l 1,28,-1
 270 345 l 1,29,-1
 478 362 l 1,0,-1
EndSplineSet
Validated: 9
EndChar

StartChar: asciicircum
Encoding: 94 94 65
Width: 500
Flags: W
LayerCount: 2
Fore
SplineSet
478 362 m 1,0,-1
 463 432 l 1,1,-1
 270 359 l 1,2,-1
 428 494 l 1,3,-1
 375 543 l 1,4,-1
 261 369 l 1,5,-1
 309 572 l 1,6,-1
 238 580 l 1,7,-1
 248 373 l 1,8,-1
 168 565 l 1,9,-1
 106 530 l 1,10,-1
 235 368 l 1,11,-1
 57 477 l 1,12,-1
 28 411 l 1,13,-1
 228 357 l 1,14,-1
 20 340 l 1,15,-1
 35 270 l 1,16,-1
 228 343 l 1,17,-1
 70 208 l 1,18,-1
 123 159 l 1,19,-1
 237 333 l 1,20,-1
 189 130 l 1,21,-1
 260 122 l 1,22,-1
 250 329 l 1,23,-1
 330 137 l 1,24,-1
 392 172 l 1,25,-1
 263 334 l 1,26,-1
 441 225 l 1,27,-1
 470 291 l 1,28,-1
 270 345 l 1,29,-1
 478 362 l 1,0,-1
EndSplineSet
Validated: 9
EndChar

StartChar: underscore
Encoding: 95 95 66
Width: 500
Flags: W
LayerCount: 2
Fore
SplineSet
478 362 m 1,0,-1
 463 432 l 1,1,-1
 270 359 l 1,2,-1
 428 494 l 1,3,-1
 375 543 l 1,4,-1
 261 369 l 1,5,-1
 309 572 l 1,6,-1
 238 580 l 1,7,-1
 248 373 l 1,8,-1
 168 565 l 1,9,-1
 106 530 l 1,10,-1
 235 368 l 1,11,-1
 57 477 l 1,12,-1
 28 411 l 1,13,-1
 228 357 l 1,14,-1
 20 340 l 1,15,-1
 35 270 l 1,16,-1
 228 343 l 1,17,-1
 70 208 l 1,18,-1
 123 159 l 1,19,-1
 237 333 l 1,20,-1
 189 130 l 1,21,-1
 260 122 l 1,22,-1
 250 329 l 1,23,-1
 330 137 l 1,24,-1
 392 172 l 1,25,-1
 263 334 l 1,26,-1
 441 225 l 1,27,-1
 470 291 l 1,28,-1
 270 345 l 1,29,-1
 478 362 l 1,0,-1
EndSplineSet
Validated: 9
EndChar

StartChar: grave
Encoding: 96 96 67
Width: 500
Flags: W
LayerCount: 2
Fore
SplineSet
478 362 m 1,0,-1
 463 432 l 1,1,-1
 270 359 l 1,2,-1
 428 494 l 1,3,-1
 375 543 l 1,4,-1
 261 369 l 1,5,-1
 309 572 l 1,6,-1
 238 580 l 1,7,-1
 248 373 l 1,8,-1
 168 565 l 1,9,-1
 106 530 l 1,10,-1
 235 368 l 1,11,-1
 57 477 l 1,12,-1
 28 411 l 1,13,-1
 228 357 l 1,14,-1
 20 340 l 1,15,-1
 35 270 l 1,16,-1
 228 343 l 1,17,-1
 70 208 l 1,18,-1
 123 159 l 1,19,-1
 237 333 l 1,20,-1
 189 130 l 1,21,-1
 260 122 l 1,22,-1
 250 329 l 1,23,-1
 330 137 l 1,24,-1
 392 172 l 1,25,-1
 263 334 l 1,26,-1
 441 225 l 1,27,-1
 470 291 l 1,28,-1
 270 345 l 1,29,-1
 478 362 l 1,0,-1
EndSplineSet
Validated: 9
EndChar

StartChar: a
Encoding: 97 97 68
Width: 931
Flags: W
LayerCount: 2
Fore
SplineSet
480 150 m 1,0,-1
 780 150 l 1,1,-1
 780 0 l 1,2,-1
 900 0 l 1,3,-1
 900 360 l 2,4,5
 900 510 900 510 776.5 615 c 128,-1,6
 653 720 653 720 480 720 c 1,7,-1
 480 600 l 1,8,9
 565 597 565 597 638 560 c 0,10,11
 718 520 718 520 757 451 c 0,12,13
 780 408 780 408 780 360 c 2,14,-1
 780 270 l 1,15,-1
 480 270 l 1,16,-1
 480 150 l 1,0,-1
60 510 m 256,17,18
 60 485 60 485 77.5 467.5 c 128,-1,19
 95 450 95 450 120 450 c 256,20,21
 145 450 145 450 162.5 467.5 c 128,-1,22
 180 485 180 485 180 510 c 256,23,24
 180 535 180 535 162.5 552.5 c 128,-1,25
 145 570 145 570 120 570 c 256,26,27
 95 570 95 570 77.5 552.5 c 128,-1,28
 60 535 60 535 60 510 c 256,17,18
330 660 m 256,29,30
 330 635 330 635 347.5 617.5 c 128,-1,31
 365 600 365 600 390 600 c 256,32,33
 415 600 415 600 432.5 617.5 c 128,-1,34
 450 635 450 635 450 660 c 256,35,36
 450 685 450 685 432.5 702.5 c 128,-1,37
 415 720 415 720 390 720 c 256,38,39
 365 720 365 720 347.5 702.5 c 128,-1,40
 330 685 330 685 330 660 c 256,29,30
30 210 m 256,41,42
 30 185 30 185 47.5 167.5 c 128,-1,43
 65 150 65 150 90 150 c 256,44,45
 115 150 115 150 132.5 167.5 c 128,-1,46
 150 185 150 185 150 210 c 256,47,48
 150 235 150 235 132.5 252.5 c 128,-1,49
 115 270 115 270 90 270 c 256,50,51
 65 270 65 270 47.5 252.5 c 128,-1,52
 30 235 30 235 30 210 c 256,41,42
30 60 m 256,53,54
 30 35 30 35 47.5 17.5 c 128,-1,55
 65 0 65 0 90 0 c 256,56,57
 115 0 115 0 132.5 17.5 c 128,-1,58
 150 35 150 35 150 60 c 256,59,60
 150 85 150 85 132.5 102.5 c 128,-1,61
 115 120 115 120 90 120 c 256,62,63
 65 120 65 120 47.5 102.5 c 128,-1,64
 30 85 30 85 30 60 c 256,53,54
180 630 m 256,65,66
 180 605 180 605 197.5 587.5 c 128,-1,67
 215 570 215 570 240 570 c 0,68,69
 283 570 283 570 300 630 c 1,70,71
 300 655 300 655 282.5 672.5 c 128,-1,72
 265 690 265 690 240 690 c 256,73,74
 215 690 215 690 197.5 672.5 c 128,-1,75
 180 655 180 655 180 630 c 256,65,66
30 360 m 256,76,77
 30 335 30 335 47.5 317.5 c 128,-1,78
 65 300 65 300 90 300 c 256,79,80
 115 300 115 300 132.5 317.5 c 128,-1,81
 150 335 150 335 150 360 c 256,82,83
 150 385 150 385 132.5 402.5 c 128,-1,84
 115 420 115 420 90 420 c 256,85,86
 65 420 65 420 47.5 402.5 c 128,-1,87
 30 385 30 385 30 360 c 256,76,77
180 210 m 256,88,89
 180 185 180 185 197.5 167.5 c 128,-1,90
 215 150 215 150 240 150 c 256,91,92
 265 150 265 150 282.5 167.5 c 128,-1,93
 300 185 300 185 300 210 c 256,94,95
 300 235 300 235 282.5 252.5 c 128,-1,96
 265 270 265 270 240 270 c 256,97,98
 215 270 215 270 197.5 252.5 c 128,-1,99
 180 235 180 235 180 210 c 256,88,89
330 210 m 256,100,101
 330 185 330 185 347.5 167.5 c 128,-1,102
 365 150 365 150 390 150 c 256,103,104
 415 150 415 150 432.5 167.5 c 128,-1,105
 450 185 450 185 450 210 c 256,106,107
 450 235 450 235 432.5 252.5 c 128,-1,108
 415 270 415 270 390 270 c 256,109,110
 365 270 365 270 347.5 252.5 c 128,-1,111
 330 235 330 235 330 210 c 256,100,101
EndSplineSet
Validated: 9
EndChar

StartChar: b
Encoding: 98 98 69
Width: 931
Flags: W
LayerCount: 2
Fore
SplineSet
900 210 m 0,0,1
 900 298 900 298 769 360 c 1,2,3
 900 422 900 422 900 510 c 0,4,5
 900 595 900 595 777 657 c 0,6,7
 658 716 658 716 480 720 c 1,8,-1
 480 600 l 1,9,10
 608 598 608 598 694 572.5 c 128,-1,11
 780 547 780 547 780 510 c 0,12,13
 780 474 780 474 692.5 448 c 128,-1,14
 605 422 605 422 480 420 c 1,15,-1
 480 300 l 1,16,17
 605 298 605 298 692.5 272 c 128,-1,18
 780 246 780 246 780 210 c 0,19,20
 780 173 780 173 694 147.5 c 128,-1,21
 608 122 608 122 480 120 c 1,22,-1
 480 0 l 1,23,24
 654 2 654 2 777 63.5 c 128,-1,25
 900 125 900 125 900 210 c 0,0,1
30 360 m 256,26,27
 30 335 30 335 47.5 317.5 c 128,-1,28
 65 300 65 300 90 300 c 256,29,30
 115 300 115 300 132.5 317.5 c 128,-1,31
 150 335 150 335 150 360 c 256,32,33
 150 385 150 385 132.5 402.5 c 128,-1,34
 115 420 115 420 90 420 c 256,35,36
 65 420 65 420 47.5 402.5 c 128,-1,37
 30 385 30 385 30 360 c 256,26,27
30 660 m 256,38,39
 30 635 30 635 47.5 617.5 c 128,-1,40
 65 600 65 600 90 600 c 256,41,42
 115 600 115 600 132.5 617.5 c 128,-1,43
 150 635 150 635 150 660 c 256,44,45
 150 685 150 685 132.5 702.5 c 128,-1,46
 115 720 115 720 90 720 c 256,47,48
 65 720 65 720 47.5 702.5 c 128,-1,49
 30 685 30 685 30 660 c 256,38,39
180 60 m 256,50,51
 180 35 180 35 197.5 17.5 c 128,-1,52
 215 0 215 0 240 0 c 256,53,54
 265 0 265 0 282.5 17.5 c 128,-1,55
 300 35 300 35 300 60 c 256,56,57
 300 85 300 85 282.5 102.5 c 128,-1,58
 265 120 265 120 240 120 c 256,59,60
 215 120 215 120 197.5 102.5 c 128,-1,61
 180 85 180 85 180 60 c 256,50,51
330 60 m 256,62,63
 330 35 330 35 347.5 17.5 c 128,-1,64
 365 0 365 0 390 0 c 256,65,66
 415 0 415 0 432.5 17.5 c 128,-1,67
 450 35 450 35 450 60 c 256,68,69
 450 85 450 85 432.5 102.5 c 128,-1,70
 415 120 415 120 390 120 c 256,71,72
 365 120 365 120 347.5 102.5 c 128,-1,73
 330 85 330 85 330 60 c 256,62,63
30 510 m 256,74,75
 30 485 30 485 47.5 467.5 c 128,-1,76
 65 450 65 450 90 450 c 256,77,78
 115 450 115 450 132.5 467.5 c 128,-1,79
 150 485 150 485 150 510 c 256,80,81
 150 535 150 535 132.5 552.5 c 128,-1,82
 115 570 115 570 90 570 c 256,83,84
 65 570 65 570 47.5 552.5 c 128,-1,85
 30 535 30 535 30 510 c 256,74,75
330 660 m 256,86,87
 330 635 330 635 347.5 617.5 c 128,-1,88
 365 600 365 600 390 600 c 256,89,90
 415 600 415 600 432.5 617.5 c 128,-1,91
 450 635 450 635 450 660 c 256,92,93
 450 685 450 685 432.5 702.5 c 128,-1,94
 415 720 415 720 390 720 c 256,95,96
 365 720 365 720 347.5 702.5 c 128,-1,97
 330 685 330 685 330 660 c 256,86,87
30 60 m 256,98,99
 30 35 30 35 47.5 17.5 c 128,-1,100
 65 0 65 0 90 0 c 256,101,102
 115 0 115 0 132.5 17.5 c 128,-1,103
 150 35 150 35 150 60 c 256,104,105
 150 85 150 85 132.5 102.5 c 128,-1,106
 115 120 115 120 90 120 c 256,107,108
 65 120 65 120 47.5 102.5 c 128,-1,109
 30 85 30 85 30 60 c 256,98,99
180 360 m 256,110,111
 180 335 180 335 197.5 317.5 c 128,-1,112
 215 300 215 300 240 300 c 256,113,114
 265 300 265 300 282.5 317.5 c 128,-1,115
 300 335 300 335 300 360 c 256,116,117
 300 385 300 385 282.5 402.5 c 128,-1,118
 265 420 265 420 240 420 c 256,119,120
 215 420 215 420 197.5 402.5 c 128,-1,121
 180 385 180 385 180 360 c 256,110,111
330 360 m 256,122,123
 330 335 330 335 347.5 317.5 c 128,-1,124
 365 300 365 300 390 300 c 256,125,126
 415 300 415 300 432.5 317.5 c 128,-1,127
 450 335 450 335 450 360 c 256,128,129
 450 385 450 385 432.5 402.5 c 128,-1,130
 415 420 415 420 390 420 c 256,131,132
 365 420 365 420 347.5 402.5 c 128,-1,133
 330 385 330 385 330 360 c 256,122,123
180 660 m 256,134,135
 180 635 180 635 197.5 617.5 c 128,-1,136
 215 600 215 600 240 600 c 256,137,138
 265 600 265 600 282.5 617.5 c 128,-1,139
 300 635 300 635 300 660 c 256,140,141
 300 685 300 685 282.5 702.5 c 128,-1,142
 265 720 265 720 240 720 c 256,143,144
 215 720 215 720 197.5 702.5 c 128,-1,145
 180 685 180 685 180 660 c 256,134,135
30 210 m 256,146,147
 30 185 30 185 47.5 167.5 c 128,-1,148
 65 150 65 150 90 150 c 256,149,150
 115 150 115 150 132.5 167.5 c 128,-1,151
 150 185 150 185 150 210 c 256,152,153
 150 235 150 235 132.5 252.5 c 128,-1,154
 115 270 115 270 90 270 c 256,155,156
 65 270 65 270 47.5 252.5 c 128,-1,157
 30 235 30 235 30 210 c 256,146,147
EndSplineSet
Validated: 9
EndChar

StartChar: c
Encoding: 99 99 70
Width: 931
Flags: W
LayerCount: 2
Fore
SplineSet
480 120 m 1,0,-1
 480 0 l 1,1,2
 589 0 589 0 685 46 c 0,3,4
 786 94 786 94 844 181 c 0,5,6
 881 236 881 236 894 300 c 1,7,-1
 770 300 l 1,8,9
 744 224 744 224 665 174 c 128,-1,10
 586 124 586 124 480 120 c 1,0,-1
480 720 m 1,11,-1
 480 600 l 1,12,13
 642 594 642 594 730 489 c 0,14,15
 757 457 757 457 770 420 c 1,16,-1
 894 420 l 1,17,18
 868 548 868 548 751.5 634 c 128,-1,19
 635 720 635 720 480 720 c 1,11,-1
180 90 m 256,20,21
 180 65 180 65 197.5 47.5 c 128,-1,22
 215 30 215 30 240 30 c 256,23,24
 265 30 265 30 282.5 47.5 c 128,-1,25
 300 65 300 65 300 90 c 256,26,27
 300 115 300 115 282.5 132.5 c 128,-1,28
 265 150 265 150 240 150 c 256,29,30
 215 150 215 150 197.5 132.5 c 128,-1,31
 180 115 180 115 180 90 c 256,20,21
330 660 m 256,32,33
 330 635 330 635 347.5 617.5 c 128,-1,34
 365 600 365 600 390 600 c 256,35,36
 415 600 415 600 432.5 617.5 c 128,-1,37
 450 635 450 635 450 660 c 256,38,39
 450 685 450 685 432.5 702.5 c 128,-1,40
 415 720 415 720 390 720 c 256,41,42
 365 720 365 720 347.5 702.5 c 128,-1,43
 330 685 330 685 330 660 c 256,32,33
330 60 m 256,44,45
 330 35 330 35 347.5 17.5 c 128,-1,46
 365 0 365 0 390 0 c 256,47,48
 415 0 415 0 432.5 17.5 c 128,-1,49
 450 35 450 35 450 60 c 256,50,51
 450 85 450 85 432.5 102.5 c 128,-1,52
 415 120 415 120 390 120 c 256,53,54
 365 120 365 120 347.5 102.5 c 128,-1,55
 330 85 330 85 330 60 c 256,44,45
180 630 m 256,56,57
 180 605 180 605 197.5 587.5 c 128,-1,58
 215 570 215 570 240 570 c 256,59,60
 265 570 265 570 282.5 587.5 c 128,-1,61
 300 605 300 605 300 630 c 256,62,63
 300 655 300 655 282.5 672.5 c 128,-1,64
 265 690 265 690 240 690 c 256,65,66
 215 690 215 690 197.5 672.5 c 128,-1,67
 180 655 180 655 180 630 c 256,56,57
60 210 m 256,68,69
 60 185 60 185 77.5 167.5 c 128,-1,70
 95 150 95 150 120 150 c 256,71,72
 145 150 145 150 162.5 167.5 c 128,-1,73
 180 185 180 185 180 210 c 256,74,75
 180 235 180 235 162.5 252.5 c 128,-1,76
 145 270 145 270 120 270 c 256,77,78
 95 270 95 270 77.5 252.5 c 128,-1,79
 60 235 60 235 60 210 c 256,68,69
60 510 m 256,80,81
 60 485 60 485 77.5 467.5 c 128,-1,82
 95 450 95 450 120 450 c 256,83,84
 145 450 145 450 162.5 467.5 c 128,-1,85
 180 485 180 485 180 510 c 256,86,87
 180 535 180 535 162.5 552.5 c 128,-1,88
 145 570 145 570 120 570 c 256,89,90
 95 570 95 570 77.5 552.5 c 128,-1,91
 60 535 60 535 60 510 c 256,80,81
30 360 m 256,92,93
 30 335 30 335 47.5 317.5 c 128,-1,94
 65 300 65 300 90 300 c 256,95,96
 115 300 115 300 132.5 317.5 c 128,-1,97
 150 335 150 335 150 360 c 256,98,99
 150 385 150 385 132.5 402.5 c 128,-1,100
 115 420 115 420 90 420 c 256,101,102
 65 420 65 420 47.5 402.5 c 128,-1,103
 30 385 30 385 30 360 c 256,92,93
EndSplineSet
Validated: 9
EndChar

StartChar: d
Encoding: 100 100 71
Width: 931
Flags: W
LayerCount: 2
Fore
SplineSet
30 60 m 256,0,1
 30 35 30 35 47.5 17.5 c 128,-1,2
 65 0 65 0 90 0 c 256,3,4
 115 0 115 0 132.5 17.5 c 128,-1,5
 150 35 150 35 150 60 c 256,6,7
 150 85 150 85 132.5 102.5 c 128,-1,8
 115 120 115 120 90 120 c 256,9,10
 65 120 65 120 47.5 102.5 c 128,-1,11
 30 85 30 85 30 60 c 256,0,1
30 210 m 256,12,13
 30 185 30 185 47.5 167.5 c 128,-1,14
 65 150 65 150 90 150 c 256,15,16
 115 150 115 150 132.5 167.5 c 128,-1,17
 150 185 150 185 150 210 c 256,18,19
 150 235 150 235 132.5 252.5 c 128,-1,20
 115 270 115 270 90 270 c 256,21,22
 65 270 65 270 47.5 252.5 c 128,-1,23
 30 235 30 235 30 210 c 256,12,13
30 360 m 256,24,25
 30 335 30 335 47.5 317.5 c 128,-1,26
 65 300 65 300 90 300 c 256,27,28
 115 300 115 300 132.5 317.5 c 128,-1,29
 150 335 150 335 150 360 c 256,30,31
 150 385 150 385 132.5 402.5 c 128,-1,32
 115 420 115 420 90 420 c 256,33,34
 65 420 65 420 47.5 402.5 c 128,-1,35
 30 385 30 385 30 360 c 256,24,25
30 510 m 256,36,37
 30 485 30 485 47.5 467.5 c 128,-1,38
 65 450 65 450 90 450 c 256,39,40
 115 450 115 450 132.5 467.5 c 128,-1,41
 150 485 150 485 150 510 c 256,42,43
 150 535 150 535 132.5 552.5 c 128,-1,44
 115 570 115 570 90 570 c 256,45,46
 65 570 65 570 47.5 552.5 c 128,-1,47
 30 535 30 535 30 510 c 256,36,37
30 660 m 256,48,49
 30 635 30 635 47.5 617.5 c 128,-1,50
 65 600 65 600 90 600 c 256,51,52
 115 600 115 600 132.5 617.5 c 128,-1,53
 150 635 150 635 150 660 c 256,54,55
 150 685 150 685 132.5 702.5 c 128,-1,56
 115 720 115 720 90 720 c 256,57,58
 65 720 65 720 47.5 702.5 c 128,-1,59
 30 685 30 685 30 660 c 256,48,49
180 60 m 256,60,61
 180 35 180 35 197.5 17.5 c 128,-1,62
 215 0 215 0 240 0 c 256,63,64
 265 0 265 0 282.5 17.5 c 128,-1,65
 300 35 300 35 300 60 c 256,66,67
 300 85 300 85 282.5 102.5 c 128,-1,68
 265 120 265 120 240 120 c 256,69,70
 215 120 215 120 197.5 102.5 c 128,-1,71
 180 85 180 85 180 60 c 256,60,61
180 660 m 256,72,73
 180 635 180 635 197.5 617.5 c 128,-1,74
 215 600 215 600 240 600 c 256,75,76
 265 600 265 600 282.5 617.5 c 128,-1,77
 300 635 300 635 300 660 c 256,78,79
 300 685 300 685 282.5 702.5 c 128,-1,80
 265 720 265 720 240 720 c 256,81,82
 215 720 215 720 197.5 702.5 c 128,-1,83
 180 685 180 685 180 660 c 256,72,73
330 60 m 256,84,85
 330 35 330 35 347.5 17.5 c 128,-1,86
 365 0 365 0 390 0 c 256,87,88
 415 0 415 0 432.5 17.5 c 128,-1,89
 450 35 450 35 450 60 c 256,90,91
 450 85 450 85 432.5 102.5 c 128,-1,92
 415 120 415 120 390 120 c 256,93,94
 365 120 365 120 347.5 102.5 c 128,-1,95
 330 85 330 85 330 60 c 256,84,85
330 660 m 256,96,97
 330 635 330 635 347.5 617.5 c 128,-1,98
 365 600 365 600 390 600 c 256,99,100
 415 600 415 600 432.5 617.5 c 128,-1,101
 450 635 450 635 450 660 c 256,102,103
 450 685 450 685 432.5 702.5 c 128,-1,104
 415 720 415 720 390 720 c 256,105,106
 365 720 365 720 347.5 702.5 c 128,-1,107
 330 685 330 685 330 660 c 256,96,97
900 360 m 0,108,109
 900 510 900 510 776.5 615 c 128,-1,110
 653 720 653 720 480 720 c 1,111,-1
 480 600 l 1,112,113
 565 597 565 597 638 560 c 0,114,115
 718 520 718 520 757 451 c 0,116,117
 780 408 780 408 780 360 c 0,118,119
 780 265 780 265 692.5 194.5 c 128,-1,120
 605 124 605 124 480 120 c 1,121,-1
 480 0 l 1,122,123
 601 0 601 0 705 56 c 0,124,125
 815 116 815 116 867 220 c 0,126,127
 900 285 900 285 900 360 c 0,108,109
EndSplineSet
Validated: 9
EndChar

StartChar: e
Encoding: 101 101 72
Width: 931
Flags: W
LayerCount: 2
Fore
SplineSet
480 600 m 1,0,-1
 900 600 l 1,1,-1
 900 720 l 1,2,-1
 480 720 l 1,3,-1
 480 600 l 1,0,-1
480 300 m 1,4,-1
 900 300 l 1,5,-1
 900 420 l 1,6,-1
 480 420 l 1,7,-1
 480 300 l 1,4,-1
480 0 m 1,8,-1
 900 0 l 1,9,-1
 900 120 l 1,10,-1
 480 120 l 1,11,-1
 480 0 l 1,8,-1
30 360 m 256,12,13
 30 335 30 335 47.5 317.5 c 128,-1,14
 65 300 65 300 90 300 c 256,15,16
 115 300 115 300 132.5 317.5 c 128,-1,17
 150 335 150 335 150 360 c 256,18,19
 150 385 150 385 132.5 402.5 c 128,-1,20
 115 420 115 420 90 420 c 256,21,22
 65 420 65 420 47.5 402.5 c 128,-1,23
 30 385 30 385 30 360 c 256,12,13
60 510 m 256,24,25
 60 485 60 485 77.5 467.5 c 128,-1,26
 95 450 95 450 120 450 c 256,27,28
 145 450 145 450 162.5 467.5 c 128,-1,29
 180 485 180 485 180 510 c 256,30,31
 180 535 180 535 162.5 552.5 c 128,-1,32
 145 570 145 570 120 570 c 256,33,34
 95 570 95 570 77.5 552.5 c 128,-1,35
 60 535 60 535 60 510 c 256,24,25
330 360 m 256,36,37
 330 335 330 335 347.5 317.5 c 128,-1,38
 365 300 365 300 390 300 c 256,39,40
 415 300 415 300 432.5 317.5 c 128,-1,41
 450 335 450 335 450 360 c 256,42,43
 450 385 450 385 432.5 402.5 c 128,-1,44
 415 420 415 420 390 420 c 256,45,46
 365 420 365 420 347.5 402.5 c 128,-1,47
 330 385 330 385 330 360 c 256,36,37
180 90 m 256,48,49
 180 65 180 65 197.5 47.5 c 128,-1,50
 215 30 215 30 240 30 c 256,51,52
 265 30 265 30 282.5 47.5 c 128,-1,53
 300 65 300 65 300 90 c 256,54,55
 300 115 300 115 282.5 132.5 c 128,-1,56
 265 150 265 150 240 150 c 256,57,58
 215 150 215 150 197.5 132.5 c 128,-1,59
 180 115 180 115 180 90 c 256,48,49
60 210 m 256,60,61
 60 185 60 185 77.5 167.5 c 128,-1,62
 95 150 95 150 120 150 c 256,63,64
 145 150 145 150 162.5 167.5 c 128,-1,65
 180 185 180 185 180 210 c 256,66,67
 180 235 180 235 162.5 252.5 c 128,-1,68
 145 270 145 270 120 270 c 256,69,70
 95 270 95 270 77.5 252.5 c 128,-1,71
 60 235 60 235 60 210 c 256,60,61
330 60 m 256,72,73
 330 35 330 35 347.5 17.5 c 128,-1,74
 365 0 365 0 390 0 c 256,75,76
 415 0 415 0 432.5 17.5 c 128,-1,77
 450 35 450 35 450 60 c 256,78,79
 450 85 450 85 432.5 102.5 c 128,-1,80
 415 120 415 120 390 120 c 256,81,82
 365 120 365 120 347.5 102.5 c 128,-1,83
 330 85 330 85 330 60 c 256,72,73
330 660 m 256,84,85
 330 635 330 635 347.5 617.5 c 128,-1,86
 365 600 365 600 390 600 c 256,87,88
 415 600 415 600 432.5 617.5 c 128,-1,89
 450 635 450 635 450 660 c 256,90,91
 450 685 450 685 432.5 702.5 c 128,-1,92
 415 720 415 720 390 720 c 256,93,94
 365 720 365 720 347.5 702.5 c 128,-1,95
 330 685 330 685 330 660 c 256,84,85
180 360 m 256,96,97
 180 335 180 335 197.5 317.5 c 128,-1,98
 215 300 215 300 240 300 c 256,99,100
 265 300 265 300 282.5 317.5 c 128,-1,101
 300 335 300 335 300 360 c 256,102,103
 300 385 300 385 282.5 402.5 c 128,-1,104
 265 420 265 420 240 420 c 256,105,106
 215 420 215 420 197.5 402.5 c 128,-1,107
 180 385 180 385 180 360 c 256,96,97
180 630 m 256,108,109
 180 605 180 605 197.5 587.5 c 128,-1,110
 215 570 215 570 240 570 c 256,111,112
 265 570 265 570 282.5 587.5 c 128,-1,113
 300 605 300 605 300 630 c 256,114,115
 300 655 300 655 282.5 672.5 c 128,-1,116
 265 690 265 690 240 690 c 256,117,118
 215 690 215 690 197.5 672.5 c 128,-1,119
 180 655 180 655 180 630 c 256,108,109
EndSplineSet
Validated: 9
EndChar

StartChar: f
Encoding: 102 102 73
Width: 931
Flags: W
LayerCount: 2
Fore
SplineSet
480 600 m 1,0,-1
 900 600 l 1,1,-1
 900 720 l 1,2,-1
 480 720 l 1,3,-1
 480 600 l 1,0,-1
480 300 m 1,4,-1
 900 300 l 1,5,-1
 900 420 l 1,6,-1
 480 420 l 1,7,-1
 480 300 l 1,4,-1
30 60 m 256,8,9
 30 35 30 35 47.5 17.5 c 128,-1,10
 65 0 65 0 90 0 c 256,11,12
 115 0 115 0 132.5 17.5 c 128,-1,13
 150 35 150 35 150 60 c 256,14,15
 150 85 150 85 132.5 102.5 c 128,-1,16
 115 120 115 120 90 120 c 256,17,18
 65 120 65 120 47.5 102.5 c 128,-1,19
 30 85 30 85 30 60 c 256,8,9
30 360 m 256,20,21
 30 335 30 335 47.5 317.5 c 128,-1,22
 65 300 65 300 90 300 c 256,23,24
 115 300 115 300 132.5 317.5 c 128,-1,25
 150 335 150 335 150 360 c 256,26,27
 150 385 150 385 132.5 402.5 c 128,-1,28
 115 420 115 420 90 420 c 256,29,30
 65 420 65 420 47.5 402.5 c 128,-1,31
 30 385 30 385 30 360 c 256,20,21
30 510 m 256,32,33
 30 485 30 485 47.5 467.5 c 128,-1,34
 65 450 65 450 90 450 c 256,35,36
 115 450 115 450 132.5 467.5 c 128,-1,37
 150 485 150 485 150 510 c 256,38,39
 150 535 150 535 132.5 552.5 c 128,-1,40
 115 570 115 570 90 570 c 256,41,42
 65 570 65 570 47.5 552.5 c 128,-1,43
 30 535 30 535 30 510 c 256,32,33
330 360 m 256,44,45
 330 335 330 335 347.5 317.5 c 128,-1,46
 365 300 365 300 390 300 c 256,47,48
 415 300 415 300 432.5 317.5 c 128,-1,49
 450 335 450 335 450 360 c 256,50,51
 450 385 450 385 432.5 402.5 c 128,-1,52
 415 420 415 420 390 420 c 256,53,54
 365 420 365 420 347.5 402.5 c 128,-1,55
 330 385 330 385 330 360 c 256,44,45
30 210 m 256,56,57
 30 185 30 185 47.5 167.5 c 128,-1,58
 65 150 65 150 90 150 c 256,59,60
 115 150 115 150 132.5 167.5 c 128,-1,61
 150 185 150 185 150 210 c 256,62,63
 150 235 150 235 132.5 252.5 c 128,-1,64
 115 270 115 270 90 270 c 256,65,66
 65 270 65 270 47.5 252.5 c 128,-1,67
 30 235 30 235 30 210 c 256,56,57
330 660 m 256,68,69
 330 635 330 635 347.5 617.5 c 128,-1,70
 365 600 365 600 390 600 c 256,71,72
 415 600 415 600 432.5 617.5 c 128,-1,73
 450 635 450 635 450 660 c 256,74,75
 450 685 450 685 432.5 702.5 c 128,-1,76
 415 720 415 720 390 720 c 256,77,78
 365 720 365 720 347.5 702.5 c 128,-1,79
 330 685 330 685 330 660 c 256,68,69
180 360 m 256,80,81
 180 335 180 335 197.5 317.5 c 128,-1,82
 215 300 215 300 240 300 c 256,83,84
 265 300 265 300 282.5 317.5 c 128,-1,85
 300 335 300 335 300 360 c 256,86,87
 300 385 300 385 282.5 402.5 c 128,-1,88
 265 420 265 420 240 420 c 256,89,90
 215 420 215 420 197.5 402.5 c 128,-1,91
 180 385 180 385 180 360 c 256,80,81
180 660 m 256,92,93
 180 635 180 635 197.5 617.5 c 128,-1,94
 215 600 215 600 240 600 c 256,95,96
 265 600 265 600 282.5 617.5 c 128,-1,97
 300 635 300 635 300 660 c 256,98,99
 300 685 300 685 282.5 702.5 c 128,-1,100
 265 720 265 720 240 720 c 256,101,102
 215 720 215 720 197.5 702.5 c 128,-1,103
 180 685 180 685 180 660 c 256,92,93
30 660 m 256,104,105
 30 635 30 635 47.5 617.5 c 128,-1,106
 65 600 65 600 90 600 c 256,107,108
 115 600 115 600 132.5 617.5 c 128,-1,109
 150 635 150 635 150 660 c 256,110,111
 150 685 150 685 132.5 702.5 c 128,-1,112
 115 720 115 720 90 720 c 256,113,114
 65 720 65 720 47.5 702.5 c 128,-1,115
 30 685 30 685 30 660 c 256,104,105
EndSplineSet
Validated: 9
EndChar

StartChar: g
Encoding: 103 103 74
Width: 931
Flags: W
LayerCount: 2
Fore
SplineSet
480 300 m 1,0,-1
 770 300 l 1,1,2
 744 224 744 224 665 174 c 128,-1,3
 586 124 586 124 480 120 c 1,4,-1
 480 0 l 1,5,6
 601 0 601 0 705 56 c 0,7,8
 815 116 815 116 867 220 c 0,9,10
 900 285 900 285 900 360 c 2,11,-1
 900 420 l 1,12,-1
 480 420 l 1,13,-1
 480 300 l 1,0,-1
480 600 m 1,14,-1
 780 600 l 1,15,-1
 780 720 l 1,16,-1
 480 720 l 1,17,-1
 480 600 l 1,14,-1
30 360 m 256,18,19
 30 335 30 335 47.5 317.5 c 128,-1,20
 65 300 65 300 90 300 c 256,21,22
 115 300 115 300 132.5 317.5 c 128,-1,23
 150 335 150 335 150 360 c 256,24,25
 150 385 150 385 132.5 402.5 c 128,-1,26
 115 420 115 420 90 420 c 256,27,28
 65 420 65 420 47.5 402.5 c 128,-1,29
 30 385 30 385 30 360 c 256,18,19
330 660 m 256,30,31
 330 635 330 635 347.5 617.5 c 128,-1,32
 365 600 365 600 390 600 c 256,33,34
 415 600 415 600 432.5 617.5 c 128,-1,35
 450 635 450 635 450 660 c 256,36,37
 450 685 450 685 432.5 702.5 c 128,-1,38
 415 720 415 720 390 720 c 256,39,40
 365 720 365 720 347.5 702.5 c 128,-1,41
 330 685 330 685 330 660 c 256,30,31
180 90 m 256,42,43
 180 65 180 65 197.5 47.5 c 128,-1,44
 215 30 215 30 240 30 c 256,45,46
 265 30 265 30 282.5 47.5 c 128,-1,47
 300 65 300 65 300 90 c 256,48,49
 300 115 300 115 282.5 132.5 c 128,-1,50
 265 150 265 150 240 150 c 256,51,52
 215 150 215 150 197.5 132.5 c 128,-1,53
 180 115 180 115 180 90 c 256,42,43
180 630 m 256,54,55
 180 605 180 605 197.5 587.5 c 128,-1,56
 215 570 215 570 240 570 c 256,57,58
 265 570 265 570 282.5 587.5 c 128,-1,59
 300 605 300 605 300 630 c 256,60,61
 300 655 300 655 282.5 672.5 c 128,-1,62
 265 690 265 690 240 690 c 256,63,64
 215 690 215 690 197.5 672.5 c 128,-1,65
 180 655 180 655 180 630 c 256,54,55
330 60 m 256,66,67
 330 35 330 35 347.5 17.5 c 128,-1,68
 365 0 365 0 390 0 c 256,69,70
 415 0 415 0 432.5 17.5 c 128,-1,71
 450 35 450 35 450 60 c 256,72,73
 450 85 450 85 432.5 102.5 c 128,-1,74
 415 120 415 120 390 120 c 256,75,76
 365 120 365 120 347.5 102.5 c 128,-1,77
 330 85 330 85 330 60 c 256,66,67
60 210 m 256,78,79
 60 185 60 185 77.5 167.5 c 128,-1,80
 95 150 95 150 120 150 c 256,81,82
 145 150 145 150 162.5 167.5 c 128,-1,83
 180 185 180 185 180 210 c 256,84,85
 180 235 180 235 162.5 252.5 c 128,-1,86
 145 270 145 270 120 270 c 256,87,88
 95 270 95 270 77.5 252.5 c 128,-1,89
 60 235 60 235 60 210 c 256,78,79
60 510 m 256,90,91
 60 485 60 485 77.5 467.5 c 128,-1,92
 95 450 95 450 120 450 c 256,93,94
 145 450 145 450 162.5 467.5 c 128,-1,95
 180 485 180 485 180 510 c 256,96,97
 180 535 180 535 162.5 552.5 c 128,-1,98
 145 570 145 570 120 570 c 256,99,100
 95 570 95 570 77.5 552.5 c 128,-1,101
 60 535 60 535 60 510 c 256,90,91
EndSplineSet
Validated: 9
EndChar

StartChar: h
Encoding: 104 104 75
Width: 931
Flags: W
LayerCount: 2
Fore
SplineSet
480 150 m 1,0,-1
 780 150 l 1,1,-1
 780 0 l 1,2,-1
 900 0 l 1,3,-1
 900 720 l 1,4,-1
 780 720 l 1,5,-1
 780 270 l 1,6,-1
 480 270 l 1,7,-1
 480 150 l 1,0,-1
330 210 m 256,8,9
 330 185 330 185 347.5 167.5 c 128,-1,10
 365 150 365 150 390 150 c 256,11,12
 415 150 415 150 432.5 167.5 c 128,-1,13
 450 185 450 185 450 210 c 256,14,15
 450 235 450 235 432.5 252.5 c 128,-1,16
 415 270 415 270 390 270 c 256,17,18
 365 270 365 270 347.5 252.5 c 128,-1,19
 330 235 330 235 330 210 c 256,8,9
30 210 m 256,20,21
 30 185 30 185 47.5 167.5 c 128,-1,22
 65 150 65 150 90 150 c 256,23,24
 115 150 115 150 132.5 167.5 c 128,-1,25
 150 185 150 185 150 210 c 256,26,27
 150 235 150 235 132.5 252.5 c 128,-1,28
 115 270 115 270 90 270 c 256,29,30
 65 270 65 270 47.5 252.5 c 128,-1,31
 30 235 30 235 30 210 c 256,20,21
30 510 m 256,32,33
 30 485 30 485 47.5 467.5 c 128,-1,34
 65 450 65 450 90 450 c 256,35,36
 115 450 115 450 132.5 467.5 c 128,-1,37
 150 485 150 485 150 510 c 256,38,39
 150 535 150 535 132.5 552.5 c 128,-1,40
 115 570 115 570 90 570 c 256,41,42
 65 570 65 570 47.5 552.5 c 128,-1,43
 30 535 30 535 30 510 c 256,32,33
30 660 m 256,44,45
 30 635 30 635 47.5 617.5 c 128,-1,46
 65 600 65 600 90 600 c 256,47,48
 115 600 115 600 132.5 617.5 c 128,-1,49
 150 635 150 635 150 660 c 256,50,51
 150 685 150 685 132.5 702.5 c 128,-1,52
 115 720 115 720 90 720 c 256,53,54
 65 720 65 720 47.5 702.5 c 128,-1,55
 30 685 30 685 30 660 c 256,44,45
30 60 m 256,56,57
 30 35 30 35 47.5 17.5 c 128,-1,58
 65 0 65 0 90 0 c 256,59,60
 115 0 115 0 132.5 17.5 c 128,-1,61
 150 35 150 35 150 60 c 256,62,63
 150 85 150 85 132.5 102.5 c 128,-1,64
 115 120 115 120 90 120 c 256,65,66
 65 120 65 120 47.5 102.5 c 128,-1,67
 30 85 30 85 30 60 c 256,56,57
180 210 m 256,68,69
 180 185 180 185 197.5 167.5 c 128,-1,70
 215 150 215 150 240 150 c 256,71,72
 265 150 265 150 282.5 167.5 c 128,-1,73
 300 185 300 185 300 210 c 256,74,75
 300 235 300 235 282.5 252.5 c 128,-1,76
 265 270 265 270 240 270 c 256,77,78
 215 270 215 270 197.5 252.5 c 128,-1,79
 180 235 180 235 180 210 c 256,68,69
30 360 m 256,80,81
 30 335 30 335 47.5 317.5 c 128,-1,82
 65 300 65 300 90 300 c 256,83,84
 115 300 115 300 132.5 317.5 c 128,-1,85
 150 335 150 335 150 360 c 256,86,87
 150 385 150 385 132.5 402.5 c 128,-1,88
 115 420 115 420 90 420 c 256,89,90
 65 420 65 420 47.5 402.5 c 128,-1,91
 30 385 30 385 30 360 c 256,80,81
EndSplineSet
Validated: 9
EndChar

StartChar: i
Encoding: 105 105 76
Width: 450
Flags: W
LayerCount: 2
Fore
SplineSet
180 0 m 1,0,-1
 420 0 l 1,1,-1
 420 120 l 1,2,-1
 300 120 l 1,3,-1
 300 600 l 1,4,-1
 420 600 l 1,5,-1
 420 720 l 1,6,-1
 180 720 l 1,7,-1
 180 0 l 1,0,-1
30 660 m 256,8,9
 30 635 30 635 47.5 617.5 c 128,-1,10
 65 600 65 600 90 600 c 256,11,12
 115 600 115 600 132.5 617.5 c 128,-1,13
 150 635 150 635 150 660 c 256,14,15
 150 685 150 685 132.5 702.5 c 128,-1,16
 115 720 115 720 90 720 c 256,17,18
 65 720 65 720 47.5 702.5 c 128,-1,19
 30 685 30 685 30 660 c 256,8,9
30 60 m 256,20,21
 30 35 30 35 47.5 17.5 c 128,-1,22
 65 0 65 0 90 0 c 256,23,24
 115 0 115 0 132.5 17.5 c 128,-1,25
 150 35 150 35 150 60 c 256,26,27
 150 85 150 85 132.5 102.5 c 128,-1,28
 115 120 115 120 90 120 c 256,29,30
 65 120 65 120 47.5 102.5 c 128,-1,31
 30 85 30 85 30 60 c 256,20,21
EndSplineSet
Validated: 9
EndChar

StartChar: j
Encoding: 106 106 77
Width: 931
Flags: W
LayerCount: 2
Fore
SplineSet
630 600 m 1,0,-1
 780 600 l 1,1,-1
 780 360 l 2,2,3
 780 265 780 265 692.5 194.5 c 128,-1,4
 605 124 605 124 480 120 c 1,5,-1
 480 0 l 1,6,7
 601 0 601 0 705 56 c 0,8,9
 815 116 815 116 867 220 c 0,10,11
 900 285 900 285 900 360 c 2,12,-1
 900 720 l 1,13,-1
 630 720 l 1,14,-1
 630 600 l 1,0,-1
330 60 m 256,15,16
 330 35 330 35 347.5 17.5 c 128,-1,17
 365 0 365 0 390 0 c 256,18,19
 415 0 415 0 432.5 17.5 c 128,-1,20
 450 35 450 35 450 60 c 256,21,22
 450 85 450 85 432.5 102.5 c 128,-1,23
 415 120 415 120 390 120 c 256,24,25
 365 120 365 120 347.5 102.5 c 128,-1,26
 330 85 330 85 330 60 c 256,15,16
90 210 m 256,27,28
 90 185 90 185 107.5 167.5 c 128,-1,29
 125 150 125 150 150 150 c 256,30,31
 175 150 175 150 192.5 167.5 c 128,-1,32
 210 185 210 185 210 210 c 256,33,34
 210 235 210 235 192.5 252.5 c 128,-1,35
 175 270 175 270 150 270 c 256,36,37
 125 270 125 270 107.5 252.5 c 128,-1,38
 90 235 90 235 90 210 c 256,27,28
180 90 m 256,39,40
 180 65 180 65 197.5 47.5 c 128,-1,41
 215 30 215 30 240 30 c 256,42,43
 265 30 265 30 282.5 47.5 c 128,-1,44
 300 65 300 65 300 90 c 256,45,46
 300 115 300 115 282.5 132.5 c 128,-1,47
 265 150 265 150 240 150 c 256,48,49
 215 150 215 150 197.5 132.5 c 128,-1,50
 180 115 180 115 180 90 c 256,39,40
EndSplineSet
Validated: 9
EndChar

StartChar: k
Encoding: 107 107 78
Width: 931
Flags: W
LayerCount: 2
Fore
SplineSet
780 0 m 1,0,-1
 900 0 l 1,1,-1
 900 60 l 2,2,3
 900 154 900 154 847 235 c 0,4,5
 797 312 797 312 712 360 c 1,6,7
 797 409 797 409 847 485 c 0,8,9
 900 567 900 567 900 660 c 2,10,-1
 900 720 l 1,11,-1
 780 720 l 1,12,-1
 780 660 l 2,13,14
 780 565 780 565 692.5 494.5 c 128,-1,15
 605 424 605 424 480 420 c 1,16,-1
 480 300 l 1,17,18
 565 297 565 297 638 260 c 0,19,20
 718 220 718 220 757 151 c 0,21,22
 780 108 780 108 780 60 c 2,23,-1
 780 0 l 1,0,-1
30 360 m 256,24,25
 30 335 30 335 47.5 317.5 c 128,-1,26
 65 300 65 300 90 300 c 256,27,28
 115 300 115 300 132.5 317.5 c 128,-1,29
 150 335 150 335 150 360 c 256,30,31
 150 385 150 385 132.5 402.5 c 128,-1,32
 115 420 115 420 90 420 c 256,33,34
 65 420 65 420 47.5 402.5 c 128,-1,35
 30 385 30 385 30 360 c 256,24,25
180 360 m 256,36,37
 180 335 180 335 197.5 317.5 c 128,-1,38
 215 300 215 300 240 300 c 256,39,40
 265 300 265 300 282.5 317.5 c 128,-1,41
 300 335 300 335 300 360 c 256,42,43
 300 385 300 385 282.5 402.5 c 128,-1,44
 265 420 265 420 240 420 c 256,45,46
 215 420 215 420 197.5 402.5 c 128,-1,47
 180 385 180 385 180 360 c 256,36,37
30 660 m 256,48,49
 30 635 30 635 47.5 617.5 c 128,-1,50
 65 600 65 600 90 600 c 256,51,52
 115 600 115 600 132.5 617.5 c 128,-1,53
 150 635 150 635 150 660 c 256,54,55
 150 685 150 685 132.5 702.5 c 128,-1,56
 115 720 115 720 90 720 c 256,57,58
 65 720 65 720 47.5 702.5 c 128,-1,59
 30 685 30 685 30 660 c 256,48,49
30 210 m 256,60,61
 30 185 30 185 47.5 167.5 c 128,-1,62
 65 150 65 150 90 150 c 256,63,64
 115 150 115 150 132.5 167.5 c 128,-1,65
 150 185 150 185 150 210 c 256,66,67
 150 235 150 235 132.5 252.5 c 128,-1,68
 115 270 115 270 90 270 c 256,69,70
 65 270 65 270 47.5 252.5 c 128,-1,71
 30 235 30 235 30 210 c 256,60,61
330 360 m 256,72,73
 330 335 330 335 347.5 317.5 c 128,-1,74
 365 300 365 300 390 300 c 256,75,76
 415 300 415 300 432.5 317.5 c 128,-1,77
 450 335 450 335 450 360 c 256,78,79
 450 385 450 385 432.5 402.5 c 128,-1,80
 415 420 415 420 390 420 c 256,81,82
 365 420 365 420 347.5 402.5 c 128,-1,83
 330 385 330 385 330 360 c 256,72,73
30 60 m 256,84,85
 30 35 30 35 47.5 17.5 c 128,-1,86
 65 0 65 0 90 0 c 256,87,88
 115 0 115 0 132.5 17.5 c 128,-1,89
 150 35 150 35 150 60 c 256,90,91
 150 85 150 85 132.5 102.5 c 128,-1,92
 115 120 115 120 90 120 c 256,93,94
 65 120 65 120 47.5 102.5 c 128,-1,95
 30 85 30 85 30 60 c 256,84,85
30 510 m 256,96,97
 30 485 30 485 47.5 467.5 c 128,-1,98
 65 450 65 450 90 450 c 256,99,100
 115 450 115 450 132.5 467.5 c 128,-1,101
 150 485 150 485 150 510 c 256,102,103
 150 535 150 535 132.5 552.5 c 128,-1,104
 115 570 115 570 90 570 c 256,105,106
 65 570 65 570 47.5 552.5 c 128,-1,107
 30 535 30 535 30 510 c 256,96,97
EndSplineSet
Validated: 9
EndChar

StartChar: l
Encoding: 108 108 79
Width: 931
Flags: W
LayerCount: 2
Fore
SplineSet
30 210 m 256,0,1
 30 185 30 185 47.5 167.5 c 128,-1,2
 65 150 65 150 90 150 c 256,3,4
 115 150 115 150 132.5 167.5 c 128,-1,5
 150 185 150 185 150 210 c 256,6,7
 150 235 150 235 132.5 252.5 c 128,-1,8
 115 270 115 270 90 270 c 256,9,10
 65 270 65 270 47.5 252.5 c 128,-1,11
 30 235 30 235 30 210 c 256,0,1
30 510 m 256,12,13
 30 485 30 485 47.5 467.5 c 128,-1,14
 65 450 65 450 90 450 c 256,15,16
 115 450 115 450 132.5 467.5 c 128,-1,17
 150 485 150 485 150 510 c 256,18,19
 150 535 150 535 132.5 552.5 c 128,-1,20
 115 570 115 570 90 570 c 256,21,22
 65 570 65 570 47.5 552.5 c 128,-1,23
 30 535 30 535 30 510 c 256,12,13
30 660 m 256,24,25
 30 635 30 635 47.5 617.5 c 128,-1,26
 65 600 65 600 90 600 c 256,27,28
 115 600 115 600 132.5 617.5 c 128,-1,29
 150 635 150 635 150 660 c 256,30,31
 150 685 150 685 132.5 702.5 c 128,-1,32
 115 720 115 720 90 720 c 256,33,34
 65 720 65 720 47.5 702.5 c 128,-1,35
 30 685 30 685 30 660 c 256,24,25
30 360 m 256,36,37
 30 335 30 335 47.5 317.5 c 128,-1,38
 65 300 65 300 90 300 c 256,39,40
 115 300 115 300 132.5 317.5 c 128,-1,41
 150 335 150 335 150 360 c 256,42,43
 150 385 150 385 132.5 402.5 c 128,-1,44
 115 420 115 420 90 420 c 256,45,46
 65 420 65 420 47.5 402.5 c 128,-1,47
 30 385 30 385 30 360 c 256,36,37
480 0 m 1,48,-1
 900 0 l 1,49,-1
 900 120 l 1,50,-1
 480 120 l 1,51,-1
 480 0 l 1,48,-1
330 60 m 256,52,53
 330 35 330 35 347.5 17.5 c 128,-1,54
 365 0 365 0 390 0 c 256,55,56
 415 0 415 0 432.5 17.5 c 128,-1,57
 450 35 450 35 450 60 c 256,58,59
 450 85 450 85 432.5 102.5 c 128,-1,60
 415 120 415 120 390 120 c 256,61,62
 365 120 365 120 347.5 102.5 c 128,-1,63
 330 85 330 85 330 60 c 256,52,53
30 60 m 256,64,65
 30 35 30 35 47.5 17.5 c 128,-1,66
 65 0 65 0 90 0 c 256,67,68
 115 0 115 0 132.5 17.5 c 128,-1,69
 150 35 150 35 150 60 c 256,70,71
 150 85 150 85 132.5 102.5 c 128,-1,72
 115 120 115 120 90 120 c 256,73,74
 65 120 65 120 47.5 102.5 c 128,-1,75
 30 85 30 85 30 60 c 256,64,65
180 60 m 256,76,77
 180 35 180 35 197.5 17.5 c 128,-1,78
 215 0 215 0 240 0 c 256,79,80
 265 0 265 0 282.5 17.5 c 128,-1,81
 300 35 300 35 300 60 c 256,82,83
 300 85 300 85 282.5 102.5 c 128,-1,84
 265 120 265 120 240 120 c 256,85,86
 215 120 215 120 197.5 102.5 c 128,-1,87
 180 85 180 85 180 60 c 256,76,77
EndSplineSet
Validated: 9
EndChar

StartChar: m
Encoding: 109 109 80
Width: 931
Flags: W
LayerCount: 2
Fore
SplineSet
780 0 m 1,0,-1
 900 0 l 1,1,-1
 900 720 l 1,2,-1
 808 720 l 1,3,-1
 480 432 l 1,4,-1
 480 300 l 1,5,-1
 600 300 l 1,6,-1
 600 377 l 1,7,-1
 780 535 l 1,8,-1
 780 0 l 1,0,-1
240 510 m 256,9,10
 240 485 240 485 257.5 467.5 c 128,-1,11
 275 450 275 450 300 450 c 256,12,13
 325 450 325 450 342.5 467.5 c 128,-1,14
 360 485 360 485 360 510 c 256,15,16
 360 535 360 535 342.5 552.5 c 128,-1,17
 325 570 325 570 300 570 c 256,18,19
 275 570 275 570 257.5 552.5 c 128,-1,20
 240 535 240 535 240 510 c 256,9,10
30 210 m 256,21,22
 30 185 30 185 47.5 167.5 c 128,-1,23
 65 150 65 150 90 150 c 256,24,25
 115 150 115 150 132.5 167.5 c 128,-1,26
 150 185 150 185 150 210 c 256,27,28
 150 235 150 235 132.5 252.5 c 128,-1,29
 115 270 115 270 90 270 c 256,30,31
 65 270 65 270 47.5 252.5 c 128,-1,32
 30 235 30 235 30 210 c 256,21,22
330 360 m 256,33,34
 330 335 330 335 347.5 317.5 c 128,-1,35
 365 300 365 300 390 300 c 256,36,37
 415 300 415 300 432.5 317.5 c 128,-1,38
 450 335 450 335 450 360 c 256,39,40
 450 385 450 385 432.5 402.5 c 128,-1,41
 415 420 415 420 390 420 c 256,42,43
 365 420 365 420 347.5 402.5 c 128,-1,44
 330 385 330 385 330 360 c 256,33,34
30 660 m 256,45,46
 30 635 30 635 47.5 617.5 c 128,-1,47
 65 600 65 600 90 600 c 256,48,49
 115 600 115 600 132.5 617.5 c 128,-1,50
 150 635 150 635 150 660 c 256,51,52
 150 685 150 685 132.5 702.5 c 128,-1,53
 115 720 115 720 90 720 c 256,54,55
 65 720 65 720 47.5 702.5 c 128,-1,56
 30 685 30 685 30 660 c 256,45,46
30 60 m 256,57,58
 30 35 30 35 47.5 17.5 c 128,-1,59
 65 0 65 0 90 0 c 256,60,61
 115 0 115 0 132.5 17.5 c 128,-1,62
 150 35 150 35 150 60 c 256,63,64
 150 85 150 85 132.5 102.5 c 128,-1,65
 115 120 115 120 90 120 c 256,66,67
 65 120 65 120 47.5 102.5 c 128,-1,68
 30 85 30 85 30 60 c 256,57,58
30 360 m 256,69,70
 30 335 30 335 47.5 317.5 c 128,-1,71
 65 300 65 300 90 300 c 256,72,73
 115 300 115 300 132.5 317.5 c 128,-1,74
 150 335 150 335 150 360 c 256,75,76
 150 385 150 385 132.5 402.5 c 128,-1,77
 115 420 115 420 90 420 c 256,78,79
 65 420 65 420 47.5 402.5 c 128,-1,80
 30 385 30 385 30 360 c 256,69,70
30 510 m 256,81,82
 30 485 30 485 47.5 467.5 c 128,-1,83
 65 450 65 450 90 450 c 256,84,85
 115 450 115 450 132.5 467.5 c 128,-1,86
 150 485 150 485 150 510 c 256,87,88
 150 535 150 535 132.5 552.5 c 128,-1,89
 115 570 115 570 90 570 c 256,90,91
 65 570 65 570 47.5 552.5 c 128,-1,92
 30 535 30 535 30 510 c 256,81,82
180 660 m 256,93,94
 180 635 180 635 197.5 617.5 c 128,-1,95
 215 600 215 600 240 600 c 256,96,97
 265 600 265 600 282.5 617.5 c 128,-1,98
 300 635 300 635 300 660 c 256,99,100
 300 685 300 685 282.5 702.5 c 128,-1,101
 265 720 265 720 240 720 c 256,102,103
 215 720 215 720 197.5 702.5 c 128,-1,104
 180 685 180 685 180 660 c 256,93,94
EndSplineSet
Validated: 9
EndChar

StartChar: n
Encoding: 110 110 81
Width: 931
Flags: W
LayerCount: 2
Fore
SplineSet
780 0 m 1,0,-1
 900 0 l 1,1,-1
 900 720 l 1,2,-1
 780 720 l 1,3,-1
 780 204 l 1,4,-1
 564 420 l 1,5,-1
 480 420 l 1,6,-1
 480 336 l 1,7,-1
 780 36 l 1,8,-1
 780 0 l 1,0,-1
180 570 m 256,9,10
 180 545 180 545 197.5 527.5 c 128,-1,11
 215 510 215 510 240 510 c 256,12,13
 265 510 265 510 282.5 527.5 c 128,-1,14
 300 545 300 545 300 570 c 256,15,16
 300 595 300 595 282.5 612.5 c 128,-1,17
 265 630 265 630 240 630 c 256,18,19
 215 630 215 630 197.5 612.5 c 128,-1,20
 180 595 180 595 180 570 c 256,9,10
30 360 m 256,21,22
 30 335 30 335 47.5 317.5 c 128,-1,23
 65 300 65 300 90 300 c 256,24,25
 115 300 115 300 132.5 317.5 c 128,-1,26
 150 335 150 335 150 360 c 256,27,28
 150 385 150 385 132.5 402.5 c 128,-1,29
 115 420 115 420 90 420 c 256,30,31
 65 420 65 420 47.5 402.5 c 128,-1,32
 30 385 30 385 30 360 c 256,21,22
30 60 m 256,33,34
 30 35 30 35 47.5 17.5 c 128,-1,35
 65 0 65 0 90 0 c 256,36,37
 115 0 115 0 132.5 17.5 c 128,-1,38
 150 35 150 35 150 60 c 256,39,40
 150 85 150 85 132.5 102.5 c 128,-1,41
 115 120 115 120 90 120 c 256,42,43
 65 120 65 120 47.5 102.5 c 128,-1,44
 30 85 30 85 30 60 c 256,33,34
30 660 m 256,45,46
 30 635 30 635 47.5 617.5 c 128,-1,47
 65 600 65 600 90 600 c 256,48,49
 115 600 115 600 132.5 617.5 c 128,-1,50
 150 635 150 635 150 660 c 256,51,52
 150 685 150 685 132.5 702.5 c 128,-1,53
 115 720 115 720 90 720 c 256,54,55
 65 720 65 720 47.5 702.5 c 128,-1,56
 30 685 30 685 30 660 c 256,45,46
30 210 m 256,57,58
 30 185 30 185 47.5 167.5 c 128,-1,59
 65 150 65 150 90 150 c 256,60,61
 115 150 115 150 132.5 167.5 c 128,-1,62
 150 185 150 185 150 210 c 256,63,64
 150 235 150 235 132.5 252.5 c 128,-1,65
 115 270 115 270 90 270 c 256,66,67
 65 270 65 270 47.5 252.5 c 128,-1,68
 30 235 30 235 30 210 c 256,57,58
330 480 m 256,69,70
 330 455 330 455 347.5 437.5 c 128,-1,71
 365 420 365 420 390 420 c 256,72,73
 415 420 415 420 432.5 437.5 c 128,-1,74
 450 455 450 455 450 480 c 256,75,76
 450 505 450 505 432.5 522.5 c 128,-1,77
 415 540 415 540 390 540 c 256,78,79
 365 540 365 540 347.5 522.5 c 128,-1,80
 330 505 330 505 330 480 c 256,69,70
30 510 m 256,81,82
 30 485 30 485 47.5 467.5 c 128,-1,83
 65 450 65 450 90 450 c 256,84,85
 115 450 115 450 132.5 467.5 c 128,-1,86
 150 485 150 485 150 510 c 256,87,88
 150 535 150 535 132.5 552.5 c 128,-1,89
 115 570 115 570 90 570 c 256,90,91
 65 570 65 570 47.5 552.5 c 128,-1,92
 30 535 30 535 30 510 c 256,81,82
EndSplineSet
Validated: 9
EndChar

StartChar: o
Encoding: 111 111 82
Width: 931
Flags: W
LayerCount: 2
Fore
SplineSet
60 210 m 256,0,1
 60 185 60 185 77.5 167.5 c 128,-1,2
 95 150 95 150 120 150 c 256,3,4
 145 150 145 150 162.5 167.5 c 128,-1,5
 180 185 180 185 180 210 c 256,6,7
 180 235 180 235 162.5 252.5 c 128,-1,8
 145 270 145 270 120 270 c 256,9,10
 95 270 95 270 77.5 252.5 c 128,-1,11
 60 235 60 235 60 210 c 256,0,1
30 360 m 256,12,13
 30 335 30 335 47.5 317.5 c 128,-1,14
 65 300 65 300 90 300 c 256,15,16
 115 300 115 300 132.5 317.5 c 128,-1,17
 150 335 150 335 150 360 c 256,18,19
 150 385 150 385 132.5 402.5 c 128,-1,20
 115 420 115 420 90 420 c 256,21,22
 65 420 65 420 47.5 402.5 c 128,-1,23
 30 385 30 385 30 360 c 256,12,13
60 510 m 256,24,25
 60 485 60 485 77.5 467.5 c 128,-1,26
 95 450 95 450 120 450 c 256,27,28
 145 450 145 450 162.5 467.5 c 128,-1,29
 180 485 180 485 180 510 c 256,30,31
 180 535 180 535 162.5 552.5 c 128,-1,32
 145 570 145 570 120 570 c 256,33,34
 95 570 95 570 77.5 552.5 c 128,-1,35
 60 535 60 535 60 510 c 256,24,25
180 90 m 256,36,37
 180 65 180 65 197.5 47.5 c 128,-1,38
 215 30 215 30 240 30 c 256,39,40
 265 30 265 30 282.5 47.5 c 128,-1,41
 300 65 300 65 300 90 c 256,42,43
 300 115 300 115 282.5 132.5 c 128,-1,44
 265 150 265 150 240 150 c 256,45,46
 215 150 215 150 197.5 132.5 c 128,-1,47
 180 115 180 115 180 90 c 256,36,37
180 630 m 256,48,49
 180 605 180 605 197.5 587.5 c 128,-1,50
 215 570 215 570 240 570 c 256,51,52
 265 570 265 570 282.5 587.5 c 128,-1,53
 300 605 300 605 300 630 c 256,54,55
 300 655 300 655 282.5 672.5 c 128,-1,56
 265 690 265 690 240 690 c 256,57,58
 215 690 215 690 197.5 672.5 c 128,-1,59
 180 655 180 655 180 630 c 256,48,49
330 60 m 256,60,61
 330 35 330 35 347.5 17.5 c 128,-1,62
 365 0 365 0 390 0 c 256,63,64
 415 0 415 0 432.5 17.5 c 128,-1,65
 450 35 450 35 450 60 c 256,66,67
 450 85 450 85 432.5 102.5 c 128,-1,68
 415 120 415 120 390 120 c 256,69,70
 365 120 365 120 347.5 102.5 c 128,-1,71
 330 85 330 85 330 60 c 256,60,61
330 660 m 256,72,73
 330 635 330 635 347.5 617.5 c 128,-1,74
 365 600 365 600 390 600 c 256,75,76
 415 600 415 600 432.5 617.5 c 128,-1,77
 450 635 450 635 450 660 c 256,78,79
 450 685 450 685 432.5 702.5 c 128,-1,80
 415 720 415 720 390 720 c 256,81,82
 365 720 365 720 347.5 702.5 c 128,-1,83
 330 685 330 685 330 660 c 256,72,73
900 360 m 0,84,85
 900 510 900 510 776.5 615 c 128,-1,86
 653 720 653 720 480 720 c 1,87,-1
 480 600 l 1,88,89
 565 597 565 597 638 560 c 0,90,91
 718 520 718 520 757 451 c 0,92,93
 780 408 780 408 780 360 c 0,94,95
 780 265 780 265 692.5 194.5 c 128,-1,96
 605 124 605 124 480 120 c 1,97,-1
 480 0 l 1,98,99
 601 0 601 0 705 56 c 0,100,101
 815 116 815 116 867 220 c 0,102,103
 900 285 900 285 900 360 c 0,84,85
EndSplineSet
Validated: 9
EndChar

StartChar: p
Encoding: 112 112 83
Width: 931
Flags: W
LayerCount: 2
Fore
SplineSet
30 60 m 256,0,1
 30 35 30 35 47.5 17.5 c 128,-1,2
 65 0 65 0 90 0 c 256,3,4
 115 0 115 0 132.5 17.5 c 128,-1,5
 150 35 150 35 150 60 c 256,6,7
 150 85 150 85 132.5 102.5 c 128,-1,8
 115 120 115 120 90 120 c 256,9,10
 65 120 65 120 47.5 102.5 c 128,-1,11
 30 85 30 85 30 60 c 256,0,1
30 210 m 256,12,13
 30 185 30 185 47.5 167.5 c 128,-1,14
 65 150 65 150 90 150 c 256,15,16
 115 150 115 150 132.5 167.5 c 128,-1,17
 150 185 150 185 150 210 c 256,18,19
 150 235 150 235 132.5 252.5 c 128,-1,20
 115 270 115 270 90 270 c 256,21,22
 65 270 65 270 47.5 252.5 c 128,-1,23
 30 235 30 235 30 210 c 256,12,13
30 360 m 256,24,25
 30 335 30 335 47.5 317.5 c 128,-1,26
 65 300 65 300 90 300 c 256,27,28
 115 300 115 300 132.5 317.5 c 128,-1,29
 150 335 150 335 150 360 c 256,30,31
 150 385 150 385 132.5 402.5 c 128,-1,32
 115 420 115 420 90 420 c 256,33,34
 65 420 65 420 47.5 402.5 c 128,-1,35
 30 385 30 385 30 360 c 256,24,25
30 510 m 256,36,37
 30 485 30 485 47.5 467.5 c 128,-1,38
 65 450 65 450 90 450 c 256,39,40
 115 450 115 450 132.5 467.5 c 128,-1,41
 150 485 150 485 150 510 c 256,42,43
 150 535 150 535 132.5 552.5 c 128,-1,44
 115 570 115 570 90 570 c 256,45,46
 65 570 65 570 47.5 552.5 c 128,-1,47
 30 535 30 535 30 510 c 256,36,37
30 660 m 256,48,49
 30 635 30 635 47.5 617.5 c 128,-1,50
 65 600 65 600 90 600 c 256,51,52
 115 600 115 600 132.5 617.5 c 128,-1,53
 150 635 150 635 150 660 c 256,54,55
 150 685 150 685 132.5 702.5 c 128,-1,56
 115 720 115 720 90 720 c 256,57,58
 65 720 65 720 47.5 702.5 c 128,-1,59
 30 685 30 685 30 660 c 256,48,49
180 210 m 256,60,61
 180 185 180 185 197.5 167.5 c 128,-1,62
 215 150 215 150 240 150 c 256,63,64
 265 150 265 150 282.5 167.5 c 128,-1,65
 300 185 300 185 300 210 c 256,66,67
 300 235 300 235 282.5 252.5 c 128,-1,68
 265 270 265 270 240 270 c 256,69,70
 215 270 215 270 197.5 252.5 c 128,-1,71
 180 235 180 235 180 210 c 256,60,61
180 660 m 256,72,73
 180 635 180 635 197.5 617.5 c 128,-1,74
 215 600 215 600 240 600 c 256,75,76
 265 600 265 600 282.5 617.5 c 128,-1,77
 300 635 300 635 300 660 c 256,78,79
 300 685 300 685 282.5 702.5 c 128,-1,80
 265 720 265 720 240 720 c 256,81,82
 215 720 215 720 197.5 702.5 c 128,-1,83
 180 685 180 685 180 660 c 256,72,73
330 210 m 256,84,85
 330 185 330 185 347.5 167.5 c 128,-1,86
 365 150 365 150 390 150 c 256,87,88
 415 150 415 150 432.5 167.5 c 128,-1,89
 450 185 450 185 450 210 c 256,90,91
 450 235 450 235 432.5 252.5 c 128,-1,92
 415 270 415 270 390 270 c 256,93,94
 365 270 365 270 347.5 252.5 c 128,-1,95
 330 235 330 235 330 210 c 256,84,85
330 660 m 256,96,97
 330 635 330 635 347.5 617.5 c 128,-1,98
 365 600 365 600 390 600 c 256,99,100
 415 600 415 600 432.5 617.5 c 128,-1,101
 450 635 450 635 450 660 c 256,102,103
 450 685 450 685 432.5 702.5 c 128,-1,104
 415 720 415 720 390 720 c 256,105,106
 365 720 365 720 347.5 702.5 c 128,-1,107
 330 685 330 685 330 660 c 256,96,97
900 435 m 0,108,109
 900 549 900 549 778 632.5 c 128,-1,110
 656 716 656 716 480 720 c 1,111,-1
 480 600 l 1,112,113
 606 596 606 596 693 548.5 c 128,-1,114
 780 501 780 501 780 435 c 256,115,116
 780 369 780 369 692.5 320.5 c 128,-1,117
 605 272 605 272 480 270 c 1,118,-1
 480 150 l 1,119,120
 655 154 655 154 777.5 237 c 128,-1,121
 900 320 900 320 900 435 c 0,108,109
EndSplineSet
Validated: 9
EndChar

StartChar: q
Encoding: 113 113 84
Width: 931
Flags: W
LayerCount: 2
Fore
SplineSet
480 300 m 1,0,-1
 504 300 l 1,1,-1
 631 156 l 1,2,3
 565 124 565 124 480 120 c 1,4,-1
 480 0 l 1,5,6
 607 0 607 0 714 61 c 1,7,-1
 768 0 l 1,8,-1
 900 0 l 1,9,-1
 900 120 l 1,10,-1
 823 120 l 1,11,-1
 809 136 l 1,12,13
 900 233 900 233 900 360 c 0,14,15
 900 510 900 510 776.5 615 c 128,-1,16
 653 720 653 720 480 720 c 1,17,-1
 480 600 l 1,18,19
 565 597 565 597 638 560 c 0,20,21
 718 520 718 520 757 451 c 0,22,23
 780 408 780 408 780 360 c 0,24,25
 780 291 780 291 728 228 c 1,26,-1
 560 420 l 1,27,-1
 480 420 l 1,28,-1
 480 300 l 1,0,-1
60 210 m 256,29,30
 60 185 60 185 77.5 167.5 c 128,-1,31
 95 150 95 150 120 150 c 256,32,33
 145 150 145 150 162.5 167.5 c 128,-1,34
 180 185 180 185 180 210 c 256,35,36
 180 235 180 235 162.5 252.5 c 128,-1,37
 145 270 145 270 120 270 c 256,38,39
 95 270 95 270 77.5 252.5 c 128,-1,40
 60 235 60 235 60 210 c 256,29,30
30 360 m 256,41,42
 30 335 30 335 47.5 317.5 c 128,-1,43
 65 300 65 300 90 300 c 256,44,45
 115 300 115 300 132.5 317.5 c 128,-1,46
 150 335 150 335 150 360 c 256,47,48
 150 385 150 385 132.5 402.5 c 128,-1,49
 115 420 115 420 90 420 c 256,50,51
 65 420 65 420 47.5 402.5 c 128,-1,52
 30 385 30 385 30 360 c 256,41,42
330 660 m 256,53,54
 330 635 330 635 347.5 617.5 c 128,-1,55
 365 600 365 600 390 600 c 256,56,57
 415 600 415 600 432.5 617.5 c 128,-1,58
 450 635 450 635 450 660 c 256,59,60
 450 685 450 685 432.5 702.5 c 128,-1,61
 415 720 415 720 390 720 c 256,62,63
 365 720 365 720 347.5 702.5 c 128,-1,64
 330 685 330 685 330 660 c 256,53,54
330 60 m 256,65,66
 330 35 330 35 347.5 17.5 c 128,-1,67
 365 0 365 0 390 0 c 256,68,69
 415 0 415 0 432.5 17.5 c 128,-1,70
 450 35 450 35 450 60 c 256,71,72
 450 85 450 85 432.5 102.5 c 128,-1,73
 415 120 415 120 390 120 c 256,74,75
 365 120 365 120 347.5 102.5 c 128,-1,76
 330 85 330 85 330 60 c 256,65,66
180 630 m 256,77,78
 180 605 180 605 197.5 587.5 c 128,-1,79
 215 570 215 570 240 570 c 256,80,81
 265 570 265 570 282.5 587.5 c 128,-1,82
 300 605 300 605 300 630 c 256,83,84
 300 655 300 655 282.5 672.5 c 128,-1,85
 265 690 265 690 240 690 c 256,86,87
 215 690 215 690 197.5 672.5 c 128,-1,88
 180 655 180 655 180 630 c 256,77,78
180 90 m 256,89,90
 180 65 180 65 197.5 47.5 c 128,-1,91
 215 30 215 30 240 30 c 256,92,93
 265 30 265 30 282.5 47.5 c 128,-1,94
 300 65 300 65 300 90 c 256,95,96
 300 115 300 115 282.5 132.5 c 128,-1,97
 265 150 265 150 240 150 c 256,98,99
 215 150 215 150 197.5 132.5 c 128,-1,100
 180 115 180 115 180 90 c 256,89,90
60 510 m 256,101,102
 60 485 60 485 77.5 467.5 c 128,-1,103
 95 450 95 450 120 450 c 256,104,105
 145 450 145 450 162.5 467.5 c 128,-1,106
 180 485 180 485 180 510 c 256,107,108
 180 535 180 535 162.5 552.5 c 128,-1,109
 145 570 145 570 120 570 c 256,110,111
 95 570 95 570 77.5 552.5 c 128,-1,112
 60 535 60 535 60 510 c 256,101,102
330 360 m 256,113,114
 330 335 330 335 347.5 317.5 c 128,-1,115
 365 300 365 300 390 300 c 256,116,117
 415 300 415 300 432.5 317.5 c 128,-1,118
 450 335 450 335 450 360 c 256,119,120
 450 385 450 385 432.5 402.5 c 128,-1,121
 415 420 415 420 390 420 c 256,122,123
 365 420 365 420 347.5 402.5 c 128,-1,124
 330 385 330 385 330 360 c 256,113,114
EndSplineSet
Validated: 9
EndChar

StartChar: r
Encoding: 114 114 85
Width: 931
Flags: W
LayerCount: 2
Fore
SplineSet
480 600 m 1,0,-1
 770 600 l 1,1,2
 744 524 744 524 665 474 c 128,-1,3
 586 424 586 424 480 420 c 1,4,-1
 480 300 l 1,5,6
 565 297 565 297 638 260 c 0,7,8
 718 220 718 220 757 151 c 0,9,10
 780 108 780 108 780 60 c 2,11,-1
 780 0 l 1,12,-1
 900 0 l 1,13,-1
 900 60 l 2,14,15
 900 154 900 154 847 235 c 0,16,17
 797 312 797 312 712 360 c 1,18,19
 797 409 797 409 847 485 c 0,20,21
 900 567 900 567 900 660 c 2,22,-1
 900 720 l 1,23,-1
 480 720 l 1,24,-1
 480 600 l 1,0,-1
30 510 m 256,25,26
 30 485 30 485 47.5 467.5 c 128,-1,27
 65 450 65 450 90 450 c 256,28,29
 115 450 115 450 132.5 467.5 c 128,-1,30
 150 485 150 485 150 510 c 256,31,32
 150 535 150 535 132.5 552.5 c 128,-1,33
 115 570 115 570 90 570 c 256,34,35
 65 570 65 570 47.5 552.5 c 128,-1,36
 30 535 30 535 30 510 c 256,25,26
180 360 m 256,37,38
 180 335 180 335 197.5 317.5 c 128,-1,39
 215 300 215 300 240 300 c 256,40,41
 265 300 265 300 282.5 317.5 c 128,-1,42
 300 335 300 335 300 360 c 256,43,44
 300 385 300 385 282.5 402.5 c 128,-1,45
 265 420 265 420 240 420 c 256,46,47
 215 420 215 420 197.5 402.5 c 128,-1,48
 180 385 180 385 180 360 c 256,37,38
330 360 m 256,49,50
 330 335 330 335 347.5 317.5 c 128,-1,51
 365 300 365 300 390 300 c 256,52,53
 415 300 415 300 432.5 317.5 c 128,-1,54
 450 335 450 335 450 360 c 256,55,56
 450 385 450 385 432.5 402.5 c 128,-1,57
 415 420 415 420 390 420 c 256,58,59
 365 420 365 420 347.5 402.5 c 128,-1,60
 330 385 330 385 330 360 c 256,49,50
30 210 m 256,61,62
 30 185 30 185 47.5 167.5 c 128,-1,63
 65 150 65 150 90 150 c 256,64,65
 115 150 115 150 132.5 167.5 c 128,-1,66
 150 185 150 185 150 210 c 256,67,68
 150 235 150 235 132.5 252.5 c 128,-1,69
 115 270 115 270 90 270 c 256,70,71
 65 270 65 270 47.5 252.5 c 128,-1,72
 30 235 30 235 30 210 c 256,61,62
30 660 m 256,73,74
 30 635 30 635 47.5 617.5 c 128,-1,75
 65 600 65 600 90 600 c 256,76,77
 115 600 115 600 132.5 617.5 c 128,-1,78
 150 635 150 635 150 660 c 256,79,80
 150 685 150 685 132.5 702.5 c 128,-1,81
 115 720 115 720 90 720 c 256,82,83
 65 720 65 720 47.5 702.5 c 128,-1,84
 30 685 30 685 30 660 c 256,73,74
30 60 m 256,85,86
 30 35 30 35 47.5 17.5 c 128,-1,87
 65 0 65 0 90 0 c 256,88,89
 115 0 115 0 132.5 17.5 c 128,-1,90
 150 35 150 35 150 60 c 256,91,92
 150 85 150 85 132.5 102.5 c 128,-1,93
 115 120 115 120 90 120 c 256,94,95
 65 120 65 120 47.5 102.5 c 128,-1,96
 30 85 30 85 30 60 c 256,85,86
30 360 m 256,97,98
 30 335 30 335 47.5 317.5 c 128,-1,99
 65 300 65 300 90 300 c 256,100,101
 115 300 115 300 132.5 317.5 c 128,-1,102
 150 335 150 335 150 360 c 256,103,104
 150 385 150 385 132.5 402.5 c 128,-1,105
 115 420 115 420 90 420 c 256,106,107
 65 420 65 420 47.5 402.5 c 128,-1,108
 30 385 30 385 30 360 c 256,97,98
180 660 m 256,109,110
 180 635 180 635 197.5 617.5 c 128,-1,111
 215 600 215 600 240 600 c 256,112,113
 265 600 265 600 282.5 617.5 c 128,-1,114
 300 635 300 635 300 660 c 256,115,116
 300 685 300 685 282.5 702.5 c 128,-1,117
 265 720 265 720 240 720 c 256,118,119
 215 720 215 720 197.5 702.5 c 128,-1,120
 180 685 180 685 180 660 c 256,109,110
330 660 m 256,121,122
 330 635 330 635 347.5 617.5 c 128,-1,123
 365 600 365 600 390 600 c 256,124,125
 415 600 415 600 432.5 617.5 c 128,-1,126
 450 635 450 635 450 660 c 256,127,128
 450 685 450 685 432.5 702.5 c 128,-1,129
 415 720 415 720 390 720 c 256,130,131
 365 720 365 720 347.5 702.5 c 128,-1,132
 330 685 330 685 330 660 c 256,121,122
EndSplineSet
Validated: 9
EndChar

StartChar: s
Encoding: 115 115 86
Width: 931
Flags: W
LayerCount: 2
Fore
SplineSet
480 600 m 1,0,-1
 780 600 l 1,1,-1
 780 720 l 1,2,-1
 480 720 l 1,3,-1
 480 600 l 1,0,-1
30 120 m 256,4,5
 30 95 30 95 47.5 77.5 c 128,-1,6
 65 60 65 60 90 60 c 256,7,8
 115 60 115 60 132.5 77.5 c 128,-1,9
 150 95 150 95 150 120 c 256,10,11
 150 145 150 145 132.5 162.5 c 128,-1,12
 115 180 115 180 90 180 c 256,13,14
 65 180 65 180 47.5 162.5 c 128,-1,15
 30 145 30 145 30 120 c 256,4,5
330 660 m 256,16,17
 330 635 330 635 347.5 617.5 c 128,-1,18
 365 600 365 600 390 600 c 256,19,20
 415 600 415 600 432.5 617.5 c 128,-1,21
 450 635 450 635 450 660 c 256,22,23
 450 685 450 685 432.5 702.5 c 128,-1,24
 415 720 415 720 390 720 c 256,25,26
 365 720 365 720 347.5 702.5 c 128,-1,27
 330 685 330 685 330 660 c 256,16,17
180 390 m 256,28,29
 180 365 180 365 197.5 347.5 c 128,-1,30
 215 330 215 330 240 330 c 256,31,32
 265 330 265 330 282.5 347.5 c 128,-1,33
 300 365 300 365 300 390 c 256,34,35
 300 415 300 415 282.5 432.5 c 128,-1,36
 265 450 265 450 240 450 c 256,37,38
 215 450 215 450 197.5 432.5 c 128,-1,39
 180 415 180 415 180 390 c 256,28,29
180 630 m 256,40,41
 180 605 180 605 197.5 587.5 c 128,-1,42
 215 570 215 570 240 570 c 256,43,44
 265 570 265 570 282.5 587.5 c 128,-1,45
 300 605 300 605 300 630 c 256,46,47
 300 655 300 655 282.5 672.5 c 128,-1,48
 265 690 265 690 240 690 c 256,49,50
 215 690 215 690 197.5 672.5 c 128,-1,51
 180 655 180 655 180 630 c 256,40,41
330 360 m 256,52,53
 330 335 330 335 347.5 317.5 c 128,-1,54
 365 300 365 300 390 300 c 256,55,56
 415 300 415 300 432.5 317.5 c 128,-1,57
 450 335 450 335 450 360 c 256,58,59
 450 385 450 385 432.5 402.5 c 128,-1,60
 415 420 415 420 390 420 c 256,61,62
 365 420 365 420 347.5 402.5 c 128,-1,63
 330 385 330 385 330 360 c 256,52,53
30 450 m 256,64,65
 30 425 30 425 47.5 407.5 c 128,-1,66
 65 390 65 390 90 390 c 256,67,68
 115 390 115 390 132.5 407.5 c 128,-1,69
 150 425 150 425 150 450 c 256,70,71
 150 475 150 475 132.5 492.5 c 128,-1,72
 115 510 115 510 90 510 c 256,73,74
 65 510 65 510 47.5 492.5 c 128,-1,75
 30 475 30 475 30 450 c 256,64,65
330 60 m 256,76,77
 330 35 330 35 347.5 17.5 c 128,-1,78
 365 0 365 0 390 0 c 256,79,80
 415 0 415 0 432.5 17.5 c 128,-1,81
 450 35 450 35 450 60 c 256,82,83
 450 85 450 85 432.5 102.5 c 128,-1,84
 415 120 415 120 390 120 c 256,85,86
 365 120 365 120 347.5 102.5 c 128,-1,87
 330 85 330 85 330 60 c 256,76,77
180 90 m 256,88,89
 180 65 180 65 197.5 47.5 c 128,-1,90
 215 30 215 30 240 30 c 256,91,92
 265 30 265 30 282.5 47.5 c 128,-1,93
 300 65 300 65 300 90 c 256,94,95
 300 115 300 115 282.5 132.5 c 128,-1,96
 265 150 265 150 240 150 c 256,97,98
 215 150 215 150 197.5 132.5 c 128,-1,99
 180 115 180 115 180 90 c 256,88,89
30 600 m 256,100,101
 30 575 30 575 47.5 557.5 c 128,-1,102
 65 540 65 540 90 540 c 256,103,104
 115 540 115 540 132.5 557.5 c 128,-1,105
 150 575 150 575 150 600 c 256,106,107
 150 625 150 625 132.5 642.5 c 128,-1,108
 115 660 115 660 90 660 c 256,109,110
 65 660 65 660 47.5 642.5 c 128,-1,111
 30 625 30 625 30 600 c 256,100,101
900 210 m 0,112,113
 900 294 900 294 778 355 c 128,-1,114
 656 416 656 416 480 420 c 1,115,-1
 480 300 l 1,116,117
 605 298 605 298 692.5 272 c 128,-1,118
 780 246 780 246 780 210 c 0,119,120
 780 173 780 173 694 147.5 c 128,-1,121
 608 122 608 122 480 120 c 1,122,-1
 480 0 l 1,123,124
 654 2 654 2 777 63.5 c 128,-1,125
 900 125 900 125 900 210 c 0,112,113
EndSplineSet
Validated: 9
EndChar

StartChar: t
Encoding: 116 116 87
Width: 931
Flags: W
LayerCount: 2
Fore
SplineSet
900 360 m 1,0,-1
 780 360 l 1,1,2
 780 265 780 265 692.5 194.5 c 128,-1,3
 605 124 605 124 480 120 c 1,4,-1
 480 0 l 1,5,6
 601 0 601 0 705 56 c 0,7,8
 815 116 815 116 867 220 c 0,9,10
 900 285 900 285 900 360 c 1,0,-1
480 600 m 1,11,-1
 780 600 l 1,12,-1
 780 720 l 1,13,-1
 480 720 l 1,14,-1
 480 600 l 1,11,-1
30 360 m 256,15,16
 30 335 30 335 47.5 317.5 c 128,-1,17
 65 300 65 300 90 300 c 256,18,19
 115 300 115 300 132.5 317.5 c 128,-1,20
 150 335 150 335 150 360 c 256,21,22
 150 385 150 385 132.5 402.5 c 128,-1,23
 115 420 115 420 90 420 c 256,24,25
 65 420 65 420 47.5 402.5 c 128,-1,26
 30 385 30 385 30 360 c 256,15,16
30 60 m 256,27,28
 30 35 30 35 47.5 17.5 c 128,-1,29
 65 0 65 0 90 0 c 256,30,31
 115 0 115 0 132.5 17.5 c 128,-1,32
 150 35 150 35 150 60 c 256,33,34
 150 85 150 85 132.5 102.5 c 128,-1,35
 115 120 115 120 90 120 c 256,36,37
 65 120 65 120 47.5 102.5 c 128,-1,38
 30 85 30 85 30 60 c 256,27,28
180 660 m 256,39,40
 180 635 180 635 197.5 617.5 c 128,-1,41
 215 600 215 600 240 600 c 256,42,43
 265 600 265 600 282.5 617.5 c 128,-1,44
 300 635 300 635 300 660 c 256,45,46
 300 685 300 685 282.5 702.5 c 128,-1,47
 265 720 265 720 240 720 c 256,48,49
 215 720 215 720 197.5 702.5 c 128,-1,50
 180 685 180 685 180 660 c 256,39,40
330 60 m 256,51,52
 330 35 330 35 347.5 17.5 c 128,-1,53
 365 0 365 0 390 0 c 256,54,55
 415 0 415 0 432.5 17.5 c 128,-1,56
 450 35 450 35 450 60 c 256,57,58
 450 85 450 85 432.5 102.5 c 128,-1,59
 415 120 415 120 390 120 c 256,60,61
 365 120 365 120 347.5 102.5 c 128,-1,62
 330 85 330 85 330 60 c 256,51,52
180 60 m 256,63,64
 180 35 180 35 197.5 17.5 c 128,-1,65
 215 0 215 0 240 0 c 256,66,67
 265 0 265 0 282.5 17.5 c 128,-1,68
 300 35 300 35 300 60 c 256,69,70
 300 85 300 85 282.5 102.5 c 128,-1,71
 265 120 265 120 240 120 c 256,72,73
 215 120 215 120 197.5 102.5 c 128,-1,74
 180 85 180 85 180 60 c 256,63,64
30 210 m 256,75,76
 30 185 30 185 47.5 167.5 c 128,-1,77
 65 150 65 150 90 150 c 256,78,79
 115 150 115 150 132.5 167.5 c 128,-1,80
 150 185 150 185 150 210 c 256,81,82
 150 235 150 235 132.5 252.5 c 128,-1,83
 115 270 115 270 90 270 c 256,84,85
 65 270 65 270 47.5 252.5 c 128,-1,86
 30 235 30 235 30 210 c 256,75,76
30 660 m 256,87,88
 30 635 30 635 47.5 617.5 c 128,-1,89
 65 600 65 600 90 600 c 256,90,91
 115 600 115 600 132.5 617.5 c 128,-1,92
 150 635 150 635 150 660 c 256,93,94
 150 685 150 685 132.5 702.5 c 128,-1,95
 115 720 115 720 90 720 c 256,96,97
 65 720 65 720 47.5 702.5 c 128,-1,98
 30 685 30 685 30 660 c 256,87,88
330 660 m 256,99,100
 330 635 330 635 347.5 617.5 c 128,-1,101
 365 600 365 600 390 600 c 256,102,103
 415 600 415 600 432.5 617.5 c 128,-1,104
 450 635 450 635 450 660 c 256,105,106
 450 685 450 685 432.5 702.5 c 128,-1,107
 415 720 415 720 390 720 c 256,108,109
 365 720 365 720 347.5 702.5 c 128,-1,110
 330 685 330 685 330 660 c 256,99,100
30 510 m 256,111,112
 30 485 30 485 47.5 467.5 c 128,-1,113
 65 450 65 450 90 450 c 256,114,115
 115 450 115 450 132.5 467.5 c 128,-1,116
 150 485 150 485 150 510 c 256,117,118
 150 535 150 535 132.5 552.5 c 128,-1,119
 115 570 115 570 90 570 c 256,120,121
 65 570 65 570 47.5 552.5 c 128,-1,122
 30 535 30 535 30 510 c 256,111,112
EndSplineSet
Validated: 9
EndChar

StartChar: u
Encoding: 117 117 88
Width: 931
Flags: W
LayerCount: 2
Fore
SplineSet
780 720 m 1,0,-1
 900 720 l 1,1,-1
 900 0 l 1,2,-1
 780 0 l 1,3,-1
 780 108 l 1,4,5
 657 0 657 0 480 0 c 1,6,-1
 480 120 l 1,7,8
 565 123 565 123 638 160 c 0,9,10
 718 200 718 200 757 270 c 0,11,12
 780 312 780 312 780 360 c 2,13,-1
 780 720 l 1,0,-1
180 90 m 256,14,15
 180 115 180 115 197.5 132.5 c 128,-1,16
 215 150 215 150 240 150 c 256,17,18
 265 150 265 150 282.5 132.5 c 128,-1,19
 300 115 300 115 300 90 c 256,20,21
 300 65 300 65 282.5 47.5 c 128,-1,22
 265 30 265 30 240 30 c 256,23,24
 215 30 215 30 197.5 47.5 c 128,-1,25
 180 65 180 65 180 90 c 256,14,15
330 60 m 256,26,27
 330 85 330 85 347.5 102.5 c 128,-1,28
 365 120 365 120 390 120 c 256,29,30
 415 120 415 120 432.5 102.5 c 128,-1,31
 450 85 450 85 450 60 c 256,32,33
 450 35 450 35 432.5 17.5 c 128,-1,34
 415 0 415 0 390 0 c 256,35,36
 365 0 365 0 347.5 17.5 c 128,-1,37
 330 35 330 35 330 60 c 256,26,27
30 510 m 256,38,39
 30 535 30 535 47.5 552.5 c 128,-1,40
 65 570 65 570 90 570 c 256,41,42
 115 570 115 570 132.5 552.5 c 128,-1,43
 150 535 150 535 150 510 c 256,44,45
 150 485 150 485 132.5 467.5 c 128,-1,46
 115 450 115 450 90 450 c 256,47,48
 65 450 65 450 47.5 467.5 c 128,-1,49
 30 485 30 485 30 510 c 256,38,39
60 210 m 256,50,51
 60 235 60 235 77.5 252.5 c 128,-1,52
 95 270 95 270 120 270 c 256,53,54
 145 270 145 270 162.5 252.5 c 128,-1,55
 180 235 180 235 180 210 c 256,56,57
 180 185 180 185 162.5 167.5 c 128,-1,58
 145 150 145 150 120 150 c 256,59,60
 95 150 95 150 77.5 167.5 c 128,-1,61
 60 185 60 185 60 210 c 256,50,51
30 360 m 256,62,63
 30 385 30 385 47.5 402.5 c 128,-1,64
 65 420 65 420 90 420 c 256,65,66
 115 420 115 420 132.5 402.5 c 128,-1,67
 150 385 150 385 150 360 c 256,68,69
 150 335 150 335 132.5 317.5 c 128,-1,70
 115 300 115 300 90 300 c 256,71,72
 65 300 65 300 47.5 317.5 c 128,-1,73
 30 335 30 335 30 360 c 256,62,63
30 660 m 256,74,75
 30 685 30 685 47.5 702.5 c 128,-1,76
 65 720 65 720 90 720 c 256,77,78
 115 720 115 720 132.5 702.5 c 128,-1,79
 150 685 150 685 150 660 c 256,80,81
 150 635 150 635 132.5 617.5 c 128,-1,82
 115 600 115 600 90 600 c 256,83,84
 65 600 65 600 47.5 617.5 c 128,-1,85
 30 635 30 635 30 660 c 256,74,75
EndSplineSet
Validated: 1
EndChar

StartChar: v
Encoding: 118 118 89
Width: 931
Flags: W
LayerCount: 2
Fore
SplineSet
480 0 m 1,0,-1
 600 0 l 1,1,-1
 600 30 l 1,2,-1
 900 630 l 1,3,-1
 900 720 l 1,4,-1
 780 720 l 1,5,-1
 780 690 l 1,6,-1
 495 120 l 1,7,-1
 480 120 l 1,8,-1
 480 0 l 1,0,-1
330 60 m 256,9,10
 330 35 330 35 347.5 17.5 c 128,-1,11
 365 0 365 0 390 0 c 256,12,13
 415 0 415 0 432.5 17.5 c 128,-1,14
 450 35 450 35 450 60 c 256,15,16
 450 85 450 85 432.5 102.5 c 128,-1,17
 415 120 415 120 390 120 c 256,18,19
 365 120 365 120 347.5 102.5 c 128,-1,20
 330 85 330 85 330 60 c 256,9,10
60 510 m 256,21,22
 60 485 60 485 77.5 467.5 c 128,-1,23
 95 450 95 450 120 450 c 256,24,25
 145 450 145 450 162.5 467.5 c 128,-1,26
 180 485 180 485 180 510 c 256,27,28
 180 535 180 535 162.5 552.5 c 128,-1,29
 145 570 145 570 120 570 c 256,30,31
 95 570 95 570 77.5 552.5 c 128,-1,32
 60 535 60 535 60 510 c 256,21,22
120 360 m 256,33,34
 120 335 120 335 137.5 317.5 c 128,-1,35
 155 300 155 300 180 300 c 256,36,37
 205 300 205 300 222.5 317.5 c 128,-1,38
 240 335 240 335 240 360 c 256,39,40
 240 385 240 385 222.5 402.5 c 128,-1,41
 205 420 205 420 180 420 c 256,42,43
 155 420 155 420 137.5 402.5 c 128,-1,44
 120 385 120 385 120 360 c 256,33,34
210 210 m 256,45,46
 210 185 210 185 227.5 167.5 c 128,-1,47
 245 150 245 150 270 150 c 256,48,49
 295 150 295 150 312.5 167.5 c 128,-1,50
 330 185 330 185 330 210 c 256,51,52
 330 235 330 235 312.5 252.5 c 128,-1,53
 295 270 295 270 270 270 c 256,54,55
 245 270 245 270 227.5 252.5 c 128,-1,56
 210 235 210 235 210 210 c 256,45,46
30 660 m 256,57,58
 30 635 30 635 47.5 617.5 c 128,-1,59
 65 600 65 600 90 600 c 256,60,61
 115 600 115 600 132.5 617.5 c 128,-1,62
 150 635 150 635 150 660 c 256,63,64
 150 685 150 685 132.5 702.5 c 128,-1,65
 115 720 115 720 90 720 c 256,66,67
 65 720 65 720 47.5 702.5 c 128,-1,68
 30 685 30 685 30 660 c 256,57,58
EndSplineSet
Validated: 9
EndChar

StartChar: w
Encoding: 119 119 90
Width: 931
Flags: W
LayerCount: 2
Fore
SplineSet
780 720 m 1,0,-1
 900 720 l 1,1,-1
 900 0 l 1,2,-1
 808 0 l 1,3,-1
 480 288 l 1,4,-1
 480 420 l 1,5,-1
 600 420 l 1,6,-1
 600 343 l 1,7,-1
 780 185 l 1,8,-1
 780 720 l 1,0,-1
240 210 m 256,9,10
 240 235 240 235 257.5 252.5 c 128,-1,11
 275 270 275 270 300 270 c 256,12,13
 325 270 325 270 342.5 252.5 c 128,-1,14
 360 235 360 235 360 210 c 256,15,16
 360 185 360 185 342.5 167.5 c 128,-1,17
 325 150 325 150 300 150 c 256,18,19
 275 150 275 150 257.5 167.5 c 128,-1,20
 240 185 240 185 240 210 c 256,9,10
30 510 m 256,21,22
 30 535 30 535 47.5 552.5 c 128,-1,23
 65 570 65 570 90 570 c 256,24,25
 115 570 115 570 132.5 552.5 c 128,-1,26
 150 535 150 535 150 510 c 256,27,28
 150 485 150 485 132.5 467.5 c 128,-1,29
 115 450 115 450 90 450 c 256,30,31
 65 450 65 450 47.5 467.5 c 128,-1,32
 30 485 30 485 30 510 c 256,21,22
330 360 m 256,33,34
 330 385 330 385 347.5 402.5 c 128,-1,35
 365 420 365 420 390 420 c 256,36,37
 415 420 415 420 432.5 402.5 c 128,-1,38
 450 385 450 385 450 360 c 256,39,40
 450 335 450 335 432.5 317.5 c 128,-1,41
 415 300 415 300 390 300 c 256,42,43
 365 300 365 300 347.5 317.5 c 128,-1,44
 330 335 330 335 330 360 c 256,33,34
30 60 m 256,45,46
 30 85 30 85 47.5 102.5 c 128,-1,47
 65 120 65 120 90 120 c 256,48,49
 115 120 115 120 132.5 102.5 c 128,-1,50
 150 85 150 85 150 60 c 256,51,52
 150 35 150 35 132.5 17.5 c 128,-1,53
 115 0 115 0 90 0 c 256,54,55
 65 0 65 0 47.5 17.5 c 128,-1,56
 30 35 30 35 30 60 c 256,45,46
30 660 m 256,57,58
 30 685 30 685 47.5 702.5 c 128,-1,59
 65 720 65 720 90 720 c 256,60,61
 115 720 115 720 132.5 702.5 c 128,-1,62
 150 685 150 685 150 660 c 256,63,64
 150 635 150 635 132.5 617.5 c 128,-1,65
 115 600 115 600 90 600 c 256,66,67
 65 600 65 600 47.5 617.5 c 128,-1,68
 30 635 30 635 30 660 c 256,57,58
30 360 m 256,69,70
 30 385 30 385 47.5 402.5 c 128,-1,71
 65 420 65 420 90 420 c 256,72,73
 115 420 115 420 132.5 402.5 c 128,-1,74
 150 385 150 385 150 360 c 256,75,76
 150 335 150 335 132.5 317.5 c 128,-1,77
 115 300 115 300 90 300 c 256,78,79
 65 300 65 300 47.5 317.5 c 128,-1,80
 30 335 30 335 30 360 c 256,69,70
30 210 m 256,81,82
 30 235 30 235 47.5 252.5 c 128,-1,83
 65 270 65 270 90 270 c 256,84,85
 115 270 115 270 132.5 252.5 c 128,-1,86
 150 235 150 235 150 210 c 256,87,88
 150 185 150 185 132.5 167.5 c 128,-1,89
 115 150 115 150 90 150 c 256,90,91
 65 150 65 150 47.5 167.5 c 128,-1,92
 30 185 30 185 30 210 c 256,81,82
180 60 m 256,93,94
 180 85 180 85 197.5 102.5 c 128,-1,95
 215 120 215 120 240 120 c 256,96,97
 265 120 265 120 282.5 102.5 c 128,-1,98
 300 85 300 85 300 60 c 256,99,100
 300 35 300 35 282.5 17.5 c 128,-1,101
 265 0 265 0 240 0 c 256,102,103
 215 0 215 0 197.5 17.5 c 128,-1,104
 180 35 180 35 180 60 c 256,93,94
EndSplineSet
Validated: 1
EndChar

StartChar: x
Encoding: 120 120 91
Width: 931
Flags: W
LayerCount: 2
Fore
SplineSet
600 343 m 1,0,-1
 600 377 l 1,1,-1
 900 640 l 1,2,-1
 900 720 l 1,3,-1
 808 720 l 1,4,-1
 480 432 l 1,5,-1
 480 288 l 1,6,-1
 808 0 l 1,7,-1
 900 0 l 1,8,-1
 900 80 l 1,9,-1
 600 343 l 1,0,-1
330 360 m 256,10,11
 330 335 330 335 347.5 317.5 c 128,-1,12
 365 300 365 300 390 300 c 256,13,14
 415 300 415 300 432.5 317.5 c 128,-1,15
 450 335 450 335 450 360 c 256,16,17
 450 385 450 385 432.5 402.5 c 128,-1,18
 415 420 415 420 390 420 c 256,19,20
 365 420 365 420 347.5 402.5 c 128,-1,21
 330 385 330 385 330 360 c 256,10,11
240 480 m 256,22,23
 240 455 240 455 257.5 437.5 c 128,-1,24
 275 420 275 420 300 420 c 256,25,26
 325 420 325 420 342.5 437.5 c 128,-1,27
 360 455 360 455 360 480 c 256,28,29
 360 505 360 505 342.5 522.5 c 128,-1,30
 325 540 325 540 300 540 c 256,31,32
 275 540 275 540 257.5 522.5 c 128,-1,33
 240 505 240 505 240 480 c 256,22,23
150 600 m 256,34,35
 150 575 150 575 167.5 557.5 c 128,-1,36
 185 540 185 540 210 540 c 256,37,38
 235 540 235 540 252.5 557.5 c 128,-1,39
 270 575 270 575 270 600 c 256,40,41
 270 625 270 625 252.5 642.5 c 128,-1,42
 235 660 235 660 210 660 c 256,43,44
 185 660 185 660 167.5 642.5 c 128,-1,45
 150 625 150 625 150 600 c 256,34,35
30 60 m 256,46,47
 30 35 30 35 47.5 17.5 c 128,-1,48
 65 0 65 0 90 0 c 256,49,50
 115 0 115 0 132.5 17.5 c 128,-1,51
 150 35 150 35 150 60 c 256,52,53
 150 85 150 85 132.5 102.5 c 128,-1,54
 115 120 115 120 90 120 c 256,55,56
 65 120 65 120 47.5 102.5 c 128,-1,57
 30 85 30 85 30 60 c 256,46,47
150 120 m 256,58,59
 150 95 150 95 167.5 77.5 c 128,-1,60
 185 60 185 60 210 60 c 256,61,62
 235 60 235 60 252.5 77.5 c 128,-1,63
 270 95 270 95 270 120 c 256,64,65
 270 145 270 145 252.5 162.5 c 128,-1,66
 235 180 235 180 210 180 c 256,67,68
 185 180 185 180 167.5 162.5 c 128,-1,69
 150 145 150 145 150 120 c 256,58,59
239 240 m 256,70,71
 239 215 239 215 256.5 197.5 c 128,-1,72
 274 180 274 180 299 180 c 256,73,74
 324 180 324 180 341.5 197.5 c 128,-1,75
 359 215 359 215 359 240 c 256,76,77
 359 265 359 265 342 282.5 c 128,-1,78
 325 300 325 300 300 300 c 256,79,80
 275 300 275 300 257 282.5 c 128,-1,81
 239 265 239 265 239 240 c 256,70,71
30 660 m 256,82,83
 30 635 30 635 47.5 617.5 c 128,-1,84
 65 600 65 600 90 600 c 256,85,86
 115 600 115 600 132.5 617.5 c 128,-1,87
 150 635 150 635 150 660 c 256,88,89
 150 685 150 685 132.5 702.5 c 128,-1,90
 115 720 115 720 90 720 c 256,91,92
 65 720 65 720 47.5 702.5 c 128,-1,93
 30 685 30 685 30 660 c 256,82,83
EndSplineSet
Validated: 9
EndChar

StartChar: y
Encoding: 121 121 92
Width: 931
Flags: W
LayerCount: 2
Fore
SplineSet
900 360 m 2,0,-1
 900 720 l 1,1,-1
 780 720 l 1,2,-1
 780 660 l 2,3,4
 780 565 780 565 692.5 494.5 c 128,-1,5
 605 424 605 424 480 420 c 1,6,-1
 480 300 l 1,7,8
 659 300 659 300 780 408 c 1,9,-1
 780 360 l 2,10,11
 780 265 780 265 692.5 194.5 c 128,-1,12
 605 124 605 124 480 120 c 1,13,-1
 480 0 l 1,14,15
 601 0 601 0 705 56 c 0,16,17
 815 116 815 116 867 220 c 0,18,19
 900 285 900 285 900 360 c 2,0,-1
60 510 m 256,20,21
 60 485 60 485 77.5 467.5 c 128,-1,22
 95 450 95 450 120 450 c 256,23,24
 145 450 145 450 162.5 467.5 c 128,-1,25
 180 485 180 485 180 510 c 256,26,27
 180 535 180 535 162.5 552.5 c 128,-1,28
 145 570 145 570 120 570 c 256,29,30
 95 570 95 570 77.5 552.5 c 128,-1,31
 60 535 60 535 60 510 c 256,20,21
330 360 m 256,32,33
 330 335 330 335 347.5 317.5 c 128,-1,34
 365 300 365 300 390 300 c 256,35,36
 415 300 415 300 432.5 317.5 c 128,-1,37
 450 335 450 335 450 360 c 256,38,39
 450 385 450 385 432.5 402.5 c 128,-1,40
 415 420 415 420 390 420 c 256,41,42
 365 420 365 420 347.5 402.5 c 128,-1,43
 330 385 330 385 330 360 c 256,32,33
180 420 m 256,44,45
 180 395 180 395 197.5 377.5 c 128,-1,46
 215 360 215 360 240 360 c 256,47,48
 265 360 265 360 282.5 377.5 c 128,-1,49
 300 395 300 395 300 420 c 256,50,51
 300 445 300 445 282.5 462.5 c 128,-1,52
 265 480 265 480 240 480 c 256,53,54
 215 480 215 480 197.5 462.5 c 128,-1,55
 180 445 180 445 180 420 c 256,44,45
180 90 m 256,56,57
 180 65 180 65 197.5 47.5 c 128,-1,58
 215 30 215 30 240 30 c 256,59,60
 265 30 265 30 282.5 47.5 c 128,-1,61
 300 65 300 65 300 90 c 256,62,63
 300 115 300 115 282.5 132.5 c 128,-1,64
 265 150 265 150 240 150 c 256,65,66
 215 150 215 150 197.5 132.5 c 128,-1,67
 180 115 180 115 180 90 c 256,56,57
330 60 m 256,68,69
 330 35 330 35 347.5 17.5 c 128,-1,70
 365 0 365 0 390 0 c 256,71,72
 415 0 415 0 432.5 17.5 c 128,-1,73
 450 35 450 35 450 60 c 256,74,75
 450 85 450 85 432.5 102.5 c 128,-1,76
 415 120 415 120 390 120 c 256,77,78
 365 120 365 120 347.5 102.5 c 128,-1,79
 330 85 330 85 330 60 c 256,68,69
30 660 m 256,80,81
 30 635 30 635 47.5 617.5 c 128,-1,82
 65 600 65 600 90 600 c 256,83,84
 115 600 115 600 132.5 617.5 c 128,-1,85
 150 635 150 635 150 660 c 256,86,87
 150 685 150 685 132.5 702.5 c 128,-1,88
 115 720 115 720 90 720 c 256,89,90
 65 720 65 720 47.5 702.5 c 128,-1,91
 30 685 30 685 30 660 c 256,80,81
30 120 m 256,92,93
 30 95 30 95 47.5 77.5 c 128,-1,94
 65 60 65 60 90 60 c 256,95,96
 115 60 115 60 132.5 77.5 c 128,-1,97
 150 95 150 95 150 120 c 256,98,99
 150 145 150 145 132.5 162.5 c 128,-1,100
 115 180 115 180 90 180 c 256,101,102
 65 180 65 180 47.5 162.5 c 128,-1,103
 30 145 30 145 30 120 c 256,92,93
EndSplineSet
Validated: 9
EndChar

StartChar: z
Encoding: 122 122 93
Width: 931
Flags: W
LayerCount: 2
Fore
SplineSet
480 720 m 1,0,-1
 900 720 l 1,1,-1
 900 660 l 2,2,3
 900 510 900 510 776.5 405 c 128,-1,4
 653 300 653 300 480 300 c 1,5,-1
 480 420 l 1,6,7
 642 426 642 426 730 531 c 0,8,9
 757 563 757 563 770 600 c 1,10,-1
 480 600 l 1,11,-1
 480 720 l 1,0,-1
480 120 m 1,12,-1
 780 120 l 1,13,-1
 780 0 l 1,14,-1
 480 0 l 1,15,-1
 480 120 l 1,12,-1
30 660 m 256,16,17
 30 685 30 685 47.5 702.5 c 128,-1,18
 65 720 65 720 90 720 c 256,19,20
 115 720 115 720 132.5 702.5 c 128,-1,21
 150 685 150 685 150 660 c 256,22,23
 150 635 150 635 132.5 617.5 c 128,-1,24
 115 600 115 600 90 600 c 256,25,26
 65 600 65 600 47.5 617.5 c 128,-1,27
 30 635 30 635 30 660 c 256,16,17
330 60 m 256,28,29
 330 85 330 85 347.5 102.5 c 128,-1,30
 365 120 365 120 390 120 c 256,31,32
 415 120 415 120 432.5 102.5 c 128,-1,33
 450 85 450 85 450 60 c 256,34,35
 450 35 450 35 432.5 17.5 c 128,-1,36
 415 0 415 0 390 0 c 256,37,38
 365 0 365 0 347.5 17.5 c 128,-1,39
 330 35 330 35 330 60 c 256,28,29
180 300 m 256,40,41
 180 325 180 325 197.5 342.5 c 128,-1,42
 215 360 215 360 240 360 c 256,43,44
 265 360 265 360 282.5 342.5 c 128,-1,45
 300 325 300 325 300 300 c 256,46,47
 300 275 300 275 282.5 257.5 c 128,-1,48
 265 240 265 240 240 240 c 256,49,50
 215 240 215 240 197.5 257.5 c 128,-1,51
 180 275 180 275 180 300 c 256,40,41
180 60 m 256,52,53
 180 85 180 85 197.5 102.5 c 128,-1,54
 215 120 215 120 240 120 c 256,55,56
 265 120 265 120 282.5 102.5 c 128,-1,57
 300 85 300 85 300 60 c 256,58,59
 300 35 300 35 282.5 17.5 c 128,-1,60
 265 0 265 0 240 0 c 256,61,62
 215 0 215 0 197.5 17.5 c 128,-1,63
 180 35 180 35 180 60 c 256,52,53
330 360 m 256,64,65
 330 385 330 385 347.5 402.5 c 128,-1,66
 365 420 365 420 390 420 c 256,67,68
 415 420 415 420 432.5 402.5 c 128,-1,69
 450 385 450 385 450 360 c 256,70,71
 450 335 450 335 432.5 317.5 c 128,-1,72
 415 300 415 300 390 300 c 256,73,74
 365 300 365 300 347.5 317.5 c 128,-1,75
 330 335 330 335 330 360 c 256,64,65
30 210 m 256,76,77
 30 235 30 235 47.5 252.5 c 128,-1,78
 65 270 65 270 90 270 c 256,79,80
 115 270 115 270 132.5 252.5 c 128,-1,81
 150 235 150 235 150 210 c 256,82,83
 150 185 150 185 132.5 167.5 c 128,-1,84
 115 150 115 150 90 150 c 256,85,86
 65 150 65 150 47.5 167.5 c 128,-1,87
 30 185 30 185 30 210 c 256,76,77
330 660 m 256,88,89
 330 685 330 685 347.5 702.5 c 128,-1,90
 365 720 365 720 390 720 c 256,91,92
 415 720 415 720 432.5 702.5 c 128,-1,93
 450 685 450 685 450 660 c 256,94,95
 450 635 450 635 432.5 617.5 c 128,-1,96
 415 600 415 600 390 600 c 256,97,98
 365 600 365 600 347.5 617.5 c 128,-1,99
 330 635 330 635 330 660 c 256,88,89
180 660 m 256,100,101
 180 685 180 685 197.5 702.5 c 128,-1,102
 215 720 215 720 240 720 c 256,103,104
 265 720 265 720 282.5 702.5 c 128,-1,105
 300 685 300 685 300 660 c 256,106,107
 300 635 300 635 282.5 617.5 c 128,-1,108
 265 600 265 600 240 600 c 256,109,110
 215 600 215 600 197.5 617.5 c 128,-1,111
 180 635 180 635 180 660 c 256,100,101
30 60 m 256,112,113
 30 85 30 85 47.5 102.5 c 128,-1,114
 65 120 65 120 90 120 c 256,115,116
 115 120 115 120 132.5 102.5 c 128,-1,117
 150 85 150 85 150 60 c 256,118,119
 150 35 150 35 132.5 17.5 c 128,-1,120
 115 0 115 0 90 0 c 256,121,122
 65 0 65 0 47.5 17.5 c 128,-1,123
 30 35 30 35 30 60 c 256,112,113
EndSplineSet
Validated: 1
EndChar

StartChar: braceleft
Encoding: 123 123 94
Width: 500
Flags: W
LayerCount: 2
Fore
SplineSet
478 362 m 1,0,-1
 463 432 l 1,1,-1
 270 359 l 1,2,-1
 428 494 l 1,3,-1
 375 543 l 1,4,-1
 261 369 l 1,5,-1
 309 572 l 1,6,-1
 238 580 l 1,7,-1
 248 373 l 1,8,-1
 168 565 l 1,9,-1
 106 530 l 1,10,-1
 235 368 l 1,11,-1
 57 477 l 1,12,-1
 28 411 l 1,13,-1
 228 357 l 1,14,-1
 20 340 l 1,15,-1
 35 270 l 1,16,-1
 228 343 l 1,17,-1
 70 208 l 1,18,-1
 123 159 l 1,19,-1
 237 333 l 1,20,-1
 189 130 l 1,21,-1
 260 122 l 1,22,-1
 250 329 l 1,23,-1
 330 137 l 1,24,-1
 392 172 l 1,25,-1
 263 334 l 1,26,-1
 441 225 l 1,27,-1
 470 291 l 1,28,-1
 270 345 l 1,29,-1
 478 362 l 1,0,-1
EndSplineSet
Validated: 9
EndChar

StartChar: bar
Encoding: 124 124 95
Width: 500
Flags: W
LayerCount: 2
Fore
SplineSet
478 362 m 1,0,-1
 463 432 l 1,1,-1
 270 359 l 1,2,-1
 428 494 l 1,3,-1
 375 543 l 1,4,-1
 261 369 l 1,5,-1
 309 572 l 1,6,-1
 238 580 l 1,7,-1
 248 373 l 1,8,-1
 168 565 l 1,9,-1
 106 530 l 1,10,-1
 235 368 l 1,11,-1
 57 477 l 1,12,-1
 28 411 l 1,13,-1
 228 357 l 1,14,-1
 20 340 l 1,15,-1
 35 270 l 1,16,-1
 228 343 l 1,17,-1
 70 208 l 1,18,-1
 123 159 l 1,19,-1
 237 333 l 1,20,-1
 189 130 l 1,21,-1
 260 122 l 1,22,-1
 250 329 l 1,23,-1
 330 137 l 1,24,-1
 392 172 l 1,25,-1
 263 334 l 1,26,-1
 441 225 l 1,27,-1
 470 291 l 1,28,-1
 270 345 l 1,29,-1
 478 362 l 1,0,-1
EndSplineSet
Validated: 9
EndChar

StartChar: braceright
Encoding: 125 125 96
Width: 500
Flags: W
LayerCount: 2
Fore
SplineSet
478 362 m 1,0,-1
 463 432 l 1,1,-1
 270 359 l 1,2,-1
 428 494 l 1,3,-1
 375 543 l 1,4,-1
 261 369 l 1,5,-1
 309 572 l 1,6,-1
 238 580 l 1,7,-1
 248 373 l 1,8,-1
 168 565 l 1,9,-1
 106 530 l 1,10,-1
 235 368 l 1,11,-1
 57 477 l 1,12,-1
 28 411 l 1,13,-1
 228 357 l 1,14,-1
 20 340 l 1,15,-1
 35 270 l 1,16,-1
 228 343 l 1,17,-1
 70 208 l 1,18,-1
 123 159 l 1,19,-1
 237 333 l 1,20,-1
 189 130 l 1,21,-1
 260 122 l 1,22,-1
 250 329 l 1,23,-1
 330 137 l 1,24,-1
 392 172 l 1,25,-1
 263 334 l 1,26,-1
 441 225 l 1,27,-1
 470 291 l 1,28,-1
 270 345 l 1,29,-1
 478 362 l 1,0,-1
EndSplineSet
Validated: 9
EndChar

StartChar: asciitilde
Encoding: 126 126 97
Width: 500
Flags: W
LayerCount: 2
Fore
SplineSet
478 362 m 1,0,-1
 463 432 l 1,1,-1
 270 359 l 1,2,-1
 428 494 l 1,3,-1
 375 543 l 1,4,-1
 261 369 l 1,5,-1
 309 572 l 1,6,-1
 238 580 l 1,7,-1
 248 373 l 1,8,-1
 168 565 l 1,9,-1
 106 530 l 1,10,-1
 235 368 l 1,11,-1
 57 477 l 1,12,-1
 28 411 l 1,13,-1
 228 357 l 1,14,-1
 20 340 l 1,15,-1
 35 270 l 1,16,-1
 228 343 l 1,17,-1
 70 208 l 1,18,-1
 123 159 l 1,19,-1
 237 333 l 1,20,-1
 189 130 l 1,21,-1
 260 122 l 1,22,-1
 250 329 l 1,23,-1
 330 137 l 1,24,-1
 392 172 l 1,25,-1
 263 334 l 1,26,-1
 441 225 l 1,27,-1
 470 291 l 1,28,-1
 270 345 l 1,29,-1
 478 362 l 1,0,-1
EndSplineSet
Validated: 9
EndChar

StartChar: quotesinglbase
Encoding: 8218 8218 98
Width: 181
Flags: W
LayerCount: 2
Fore
SplineSet
150 -120 m 1,0,-1
 150 120 l 1,1,-1
 30 120 l 1,2,-1
 30 0 l 1,3,-1
 90 -120 l 1,4,-1
 150 -120 l 1,0,-1
EndSplineSet
Validated: 9
EndChar

StartChar: quotedblbase
Encoding: 8222 8222 99
Width: 360
Flags: W
LayerCount: 2
Fore
SplineSet
150 -120 m 1,0,-1
 150 120 l 1,1,-1
 30 120 l 1,2,-1
 30 0 l 1,3,-1
 90 -120 l 1,4,-1
 150 -120 l 1,0,-1
330 -120 m 1,5,-1
 330 120 l 1,6,-1
 210 120 l 1,7,-1
 210 0 l 1,8,-1
 270 -120 l 1,9,-1
 330 -120 l 1,5,-1
EndSplineSet
Validated: 9
EndChar

StartChar: quoteleft
Encoding: 8216 8216 100
Width: 181
Flags: W
LayerCount: 2
Fore
SplineSet
150 720 m 1,0,-1
 150 480 l 1,1,-1
 30 480 l 1,2,-1
 30 600 l 1,3,-1
 90 720 l 1,4,-1
 150 720 l 1,0,-1
EndSplineSet
Validated: 1
EndChar

StartChar: quoteright
Encoding: 8217 8217 101
Width: 181
Flags: W
LayerCount: 2
Fore
SplineSet
150 480 m 1,0,-1
 150 720 l 1,1,-1
 30 720 l 1,2,-1
 30 600 l 1,3,-1
 90 480 l 1,4,-1
 150 480 l 1,0,-1
EndSplineSet
Validated: 9
EndChar

StartChar: quotedblleft
Encoding: 8220 8220 102
Width: 360
Flags: W
LayerCount: 2
Fore
SplineSet
150 480 m 1,0,-1
 150 720 l 1,1,-1
 30 720 l 1,2,-1
 30 600 l 1,3,-1
 90 480 l 1,4,-1
 150 480 l 1,0,-1
210 720 m 1,5,-1
 210 480 l 1,6,-1
 330 480 l 1,7,-1
 330 600 l 1,8,-1
 270 720 l 1,9,-1
 210 720 l 1,5,-1
EndSplineSet
Validated: 9
EndChar

StartChar: quotedblright
Encoding: 8221 8221 103
Width: 360
Flags: W
LayerCount: 2
Fore
SplineSet
30 720 m 1,0,-1
 30 480 l 1,1,-1
 150 480 l 1,2,-1
 150 600 l 1,3,-1
 90 720 l 1,4,-1
 30 720 l 1,0,-1
330 480 m 1,5,-1
 330 720 l 1,6,-1
 210 720 l 1,7,-1
 210 600 l 1,8,-1
 270 480 l 1,9,-1
 330 480 l 1,5,-1
EndSplineSet
Validated: 9
EndChar

